<svg xmlns="http://www.w3.org/2000/svg" xmlns:xlink="http://www.w3.org/1999/xlink" width="1000" zoomAndPan="magnify" viewBox="0 0 750 374.999991" height="500" preserveAspectRatio="xMidYMid meet" version="1.0"><defs><g/><clipPath id="1b7e7816ef"><path d="M 4.472656 47.984375 L 215.972656 47.984375 L 215.972656 272.984375 L 4.472656 272.984375 Z M 4.472656 47.984375 " clip-rule="nonzero"/></clipPath><clipPath id="5654ef3c27"><path d="M 526.652344 110.636719 L 654.457031 110.636719 L 654.457031 266.953125 L 526.652344 266.953125 Z M 526.652344 110.636719 " clip-rule="nonzero"/></clipPath><clipPath id="81adb851fd"><path d="M 557.746094 37.5 L 745.277344 37.5 L 745.277344 266.566406 L 557.746094 266.566406 Z M 557.746094 37.5 " clip-rule="nonzero"/></clipPath><clipPath id="d37ed4d3e5"><path d="M 222 14 L 528 14 L 528 255.492188 L 222 255.492188 Z M 222 14 " clip-rule="nonzero"/></clipPath></defs><g clip-path="url(#1b7e7816ef)"><path fill="#ffffff" d="M 174.632812 200.285156 C 172.042969 200.160156 169.148438 199.933594 165.789062 199.664062 C 164.210938 199.535156 162.550781 199.402344 160.796875 199.273438 C 160.566406 199.25 160.359375 199.394531 160.292969 199.609375 C 160.222656 199.824219 160.316406 200.0625 160.507812 200.183594 C 164.441406 202.574219 167.519531 204.402344 169.882812 205.804688 C 172.394531 207.296875 174.257812 208.398438 175.304688 209.097656 C 174.660156 208.882812 173.6875 208.5 172.21875 207.855469 C 170.988281 207.34375 169.554688 206.585938 167.742188 205.621094 L 165.996094 204.695312 C 163.214844 203.109375 160.167969 201.332031 156.9375 199.410156 C 156.929688 199.351562 156.921875 199.296875 156.890625 199.25 C 156.816406 199.097656 156.664062 198.992188 156.488281 198.984375 C 154.925781 198.882812 153.308594 198.785156 151.632812 198.691406 C 145.660156 198.386719 140.570312 198.425781 135.617188 198.820312 C 134.34375 198.9375 132.96875 199.089844 131.503906 199.289062 C 131.367188 199.3125 131.253906 199.382812 131.175781 199.488281 C 131.089844 199.59375 131.0625 199.734375 131.082031 199.863281 C 131.4375 201.707031 132.1875 203.46875 133.328125 205.101562 C 134.316406 206.507812 135.523438 207.824219 137.03125 209.113281 C 139.144531 210.957031 141.089844 212.210938 142.644531 213.222656 L 143.441406 213.734375 C 144.457031 214.371094 145.699219 215.144531 146.59375 215.75 C 145.859375 215.472656 144.765625 215.007812 143.164062 214.21875 C 141.542969 213.382812 139.101562 212.121094 136.367188 209.898438 C 134.726562 208.574219 133.464844 207.265625 132.386719 205.78125 C 131.105469 203.988281 130.273438 202.046875 129.90625 200.007812 C 129.859375 199.742188 129.621094 199.566406 129.347656 199.609375 C 126.085938 200.167969 123.074219 200.925781 120.21875 201.914062 C 118.664062 201.761719 117.089844 201.792969 115.6875 202.589844 C 114.960938 203.003906 114.371094 203.578125 113.925781 204.242188 C 113.328125 203.929688 112.710938 203.738281 112.082031 203.660156 C 112.066406 203.546875 112.027344 203.4375 111.945312 203.363281 C 111.828125 203.246094 111.652344 203.203125 111.5 203.238281 C 107.648438 204.128906 104.296875 205.988281 101.808594 207.519531 C 100.957031 208.039062 100.128906 208.574219 99.335938 209.105469 C 99.179688 209.195312 99.097656 209.363281 99.113281 209.539062 L 99.128906 209.832031 C 99.167969 210.480469 99.203125 211.09375 99.171875 211.628906 C 99.128906 211.953125 99.097656 212.265625 99.058594 212.574219 C 98.996094 213.175781 98.9375 213.742188 98.804688 214.265625 L 98.605469 215.03125 C 98.46875 215.566406 98.332031 216.09375 98.1875 216.5625 C 97.910156 217.273438 97.65625 217.945312 97.4375 218.574219 C 96.449219 220.910156 95.539062 222.632812 94.800781 224.011719 L 94.679688 224.238281 C 94.320312 224.914062 93.714844 226.039062 93.234375 226.828125 C 93.378906 226.230469 93.652344 225.335938 94.175781 224.011719 C 94.410156 223.398438 94.6875 222.722656 94.984375 221.972656 C 95.429688 220.886719 95.933594 219.644531 96.464844 218.207031 C 97.246094 216.0625 97.964844 213.699219 97.988281 210.933594 C 97.996094 210.75 97.886719 210.582031 97.734375 210.496094 C 97.566406 210.414062 97.375 210.429688 97.222656 210.527344 L 95.925781 211.410156 C 94.664062 212.28125 93.441406 213.125 92.246094 213.910156 C 88.867188 216.140625 86.304688 217.585938 83.929688 218.597656 C 82.804688 219.125 81.75 219.425781 80.730469 219.707031 L 80.234375 219.84375 C 79.054688 220.175781 77.972656 220.480469 76.957031 220.757812 L 76.441406 220.902344 C 75.632812 221.125 74.882812 221.324219 74.183594 221.492188 L 72.984375 221.722656 C 72.5625 221.796875 72.171875 221.875 71.820312 221.949219 C 70.265625 222.226562 69.15625 222.402344 68.3125 222.496094 C 67.371094 222.609375 66.8125 222.632812 66.476562 222.617188 C 66.757812 222.441406 67.265625 222.171875 68.136719 221.796875 C 69.023438 221.414062 70.128906 220.992188 71.40625 220.550781 C 72.085938 220.320312 72.84375 220.058594 73.679688 219.761719 L 76.320312 218.757812 C 77.195312 218.429688 78.128906 218.09375 79.121094 217.726562 L 80.050781 217.386719 C 81 217.042969 81.976562 216.699219 82.882812 216.203125 L 83.296875 215.964844 C 83.457031 215.871094 83.554688 215.695312 83.546875 215.503906 C 83.53125 215.320312 83.417969 215.152344 83.242188 215.082031 C 79.246094 213.46875 75.585938 212.609375 72.644531 211.914062 C 69.996094 211.324219 67.753906 210.863281 65.886719 210.488281 L 63.980469 210.105469 C 62.011719 209.695312 60.726562 209.386719 59.875 209.148438 C 60.75 209.203125 62.074219 209.3125 64.0625 209.546875 C 66.925781 209.886719 69.804688 210.335938 72.859375 210.917969 C 75.832031 211.523438 80.316406 212.449219 85.246094 214.640625 C 85.394531 214.699219 85.5625 214.691406 85.699219 214.609375 C 87.230469 213.683594 88.855469 212.601562 90.523438 211.402344 C 91.425781 210.773438 92.359375 210.097656 93.332031 209.394531 C 95.316406 207.957031 97.566406 206.324219 100.0625 204.726562 C 101.890625 203.59375 103.875 202.40625 106.195312 201.433594 C 107.472656 200.898438 108.789062 200.445312 110.113281 200.09375 C 110.273438 200.046875 110.40625 199.917969 110.457031 199.757812 C 110.503906 199.585938 110.464844 199.410156 110.34375 199.28125 C 106.410156 195 101.417969 191.226562 95.101562 187.742188 C 94.167969 187.222656 93.21875 186.726562 92.285156 186.257812 C 92.167969 186.199219 92.03125 186.191406 91.902344 186.234375 C 87.8125 187.691406 84.335938 189.351562 81.265625 190.8125 C 79.851562 191.496094 78.511719 192.128906 77.230469 192.699219 C 73.097656 194.550781 69.898438 195.691406 67.476562 196.195312 C 67.066406 196.28125 66.683594 196.363281 66.320312 196.449219 C 65.527344 196.625 64.835938 196.785156 64.214844 196.808594 C 63.605469 196.863281 63.074219 196.894531 62.617188 196.921875 C 63.054688 196.816406 63.550781 196.710938 64.125 196.59375 C 64.667969 196.496094 65.257812 196.304688 65.878906 196.105469 C 66.3125 195.957031 66.78125 195.804688 67.300781 195.667969 C 69.613281 194.996094 72.546875 193.792969 76.804688 191.769531 C 77.828125 191.289062 78.910156 190.753906 80.050781 190.179688 C 82.789062 188.816406 85.890625 187.253906 89.566406 185.835938 C 89.75 185.761719 89.871094 185.59375 89.878906 185.394531 C 89.886719 185.203125 89.773438 185.019531 89.597656 184.933594 C 84.628906 182.570312 79.925781 180.761719 75.378906 179.007812 C 75.371094 179.007812 75.257812 178.960938 75.25 178.960938 C 73.128906 178.226562 71.097656 177.347656 69.199219 176.511719 C 69.070312 176.460938 68.925781 176.460938 68.792969 176.519531 C 67.632812 177.070312 66.535156 177.609375 65.503906 178.121094 C 63.613281 179.039062 61.980469 179.84375 60.480469 180.492188 C 57.800781 181.648438 55.816406 182.371094 54.226562 182.773438 C 52.855469 183.164062 51.835938 183.320312 51.148438 183.371094 C 51.371094 183.289062 51.628906 183.1875 51.921875 183.082031 C 52.503906 182.859375 53.214844 182.589844 54.058594 182.238281 C 55.609375 181.632812 57.570312 180.753906 60.035156 179.558594 C 61.023438 179.085938 62.089844 178.542969 63.253906 177.945312 C 64.285156 177.417969 65.386719 176.847656 66.582031 176.253906 C 66.757812 176.175781 66.867188 176 66.859375 175.808594 C 66.859375 175.617188 66.742188 175.449219 66.566406 175.363281 C 65.769531 175.011719 64.972656 174.675781 64.195312 174.347656 C 62.347656 173.558594 60.601562 172.816406 58.996094 171.972656 L 58.878906 171.917969 C 54.277344 169.621094 50.273438 167.632812 46.808594 165.894531 L 37.917969 161.367188 C 35.628906 160.289062 33.609375 159.308594 31.945312 158.460938 C 30.414062 157.679688 29.472656 157.144531 28.890625 156.78125 C 29.550781 156.945312 30.597656 157.25 32.214844 157.785156 C 33.824219 158.320312 35.890625 159.066406 38.53125 160.050781 C 40.589844 160.855469 42.925781 161.890625 45.628906 163.085938 L 60.082031 169.582031 C 61.628906 170.328125 63.253906 170.96875 64.96875 171.652344 C 65.847656 172.003906 66.757812 172.363281 67.683594 172.753906 C 68.089844 172.90625 68.488281 173.066406 68.886719 173.234375 L 69.589844 173.519531 C 69.75 173.582031 69.929688 173.558594 70.066406 173.457031 C 70.203125 173.359375 70.273438 173.199219 70.257812 173.023438 C 70.019531 170.019531 69.363281 166.765625 68.296875 163.34375 C 67.378906 160.433594 66.535156 157.9375 65.929688 156.140625 L 65.863281 155.933594 C 65.34375 154.394531 65.027344 153.339844 64.84375 152.625 C 65.234375 153.375 65.746094 154.449219 66.390625 155.839844 C 67.058594 157.304688 68.105469 159.738281 69.308594 163.105469 C 70.304688 166 71.328125 168.988281 71.511719 174.007812 C 71.519531 174.207031 71.644531 174.375 71.828125 174.445312 C 73.183594 174.980469 74.714844 175.585938 76.3125 176.113281 C 82.445312 178.367188 89.390625 180.914062 96.671875 184.851562 C 100.820312 187.101562 104.371094 189.445312 107.535156 192.015625 C 108.828125 193.082031 110.136719 194.273438 111.539062 195.675781 C 111.683594 195.820312 111.914062 195.859375 112.097656 195.765625 C 112.289062 195.675781 112.394531 195.46875 112.363281 195.261719 C 111.90625 192 111.402344 188.507812 110.847656 185.070312 C 110.4375 182.859375 110.046875 180.691406 109.65625 178.558594 C 109.082031 175.324219 108.515625 172.179688 107.917969 169.117188 C 107.878906 168.902344 107.703125 168.75 107.488281 168.726562 C 104.171875 168.375 101.300781 167.441406 98.421875 166.4375 C 95.125 165.210938 92.128906 163.871094 89.519531 162.449219 C 85.003906 160.058594 81.152344 157.441406 78.066406 154.664062 C 76.328125 153.101562 74.90625 151.429688 73.855469 149.730469 C 74.75 150.820312 76.191406 152.425781 78.449219 154.257812 C 81.710938 156.867188 85.59375 159.316406 89.988281 161.53125 C 92.582031 162.886719 95.550781 164.171875 98.8125 165.359375 C 101.1875 166.175781 104.011719 167.066406 106.9375 167.464844 C 107.105469 167.484375 107.25 167.433594 107.359375 167.316406 C 107.464844 167.195312 107.519531 167.035156 107.480469 166.882812 L 104.15625 151.171875 L 103.308594 147.464844 C 102.441406 143.738281 101.617188 140.148438 100.828125 136.695312 L 100.367188 134.78125 C 100.144531 133.859375 99.933594 132.949219 99.71875 132.046875 C 99.671875 131.847656 99.511719 131.703125 99.3125 131.671875 C 95.484375 131.074219 92.390625 129.488281 90.125 128.171875 C 87.277344 126.503906 84.972656 124.75 83.496094 123.570312 C 80.085938 120.859375 77.554688 118.535156 75.523438 116.664062 L 74.90625 116.089844 C 73.386719 114.683594 71.988281 113.367188 70.976562 112.394531 C 71.917969 113.035156 73.289062 114.054688 75.257812 115.664062 C 75.976562 116.230469 76.75 116.871094 77.597656 117.570312 C 79.453125 119.085938 81.550781 120.808594 84.128906 122.769531 C 85.792969 124.015625 88.042969 125.644531 90.707031 127.175781 C 93.484375 128.753906 96.058594 129.773438 98.59375 130.285156 C 98.753906 130.324219 98.921875 130.269531 99.035156 130.148438 C 99.160156 130.027344 99.203125 129.855469 99.167969 129.695312 C 98.046875 125.035156 97 120.664062 96.019531 116.566406 C 93.851562 107.585938 91.992188 99.832031 90.515625 93.316406 L 90.332031 92.480469 C 89.191406 87.421875 88.203125 83.046875 87.460938 79.375 C 86.742188 75.746094 86.152344 72.589844 85.699219 69.988281 C 85.292969 67.652344 85.070312 66.128906 84.957031 65.125 C 85.285156 66.082031 85.753906 67.554688 86.394531 69.828125 C 87.078125 72.183594 87.890625 75.195312 88.882812 79.042969 C 89.902344 82.839844 91.121094 87.40625 92.566406 92.808594 C 93.285156 95.566406 94.074219 98.535156 94.925781 101.746094 C 96.707031 108.488281 98.730469 116.136719 100.996094 124.964844 C 101.050781 125.164062 101.21875 125.308594 101.433594 125.332031 C 101.640625 125.332031 101.832031 125.234375 101.914062 125.042969 C 103.308594 121.886719 104.570312 119.054688 105.6875 116.535156 L 107.199219 113.136719 L 107.960938 111.3125 C 108.476562 110.089844 108.949219 108.964844 109.394531 107.921875 C 109.59375 107.457031 109.777344 107.003906 109.96875 106.582031 C 110.382812 105.601562 110.78125 104.683594 111.054688 103.84375 C 111.835938 101.707031 112.386719 100.304688 112.777344 99.394531 C 112.5625 100.375 112.195312 101.851562 111.585938 104.078125 C 111.371094 104.9375 111.03125 105.839844 110.648438 106.882812 C 110.488281 107.308594 110.328125 107.753906 110.167969 108.214844 C 109.976562 108.703125 109.785156 109.230469 109.585938 109.777344 C 109.15625 110.9375 108.691406 112.203125 108.148438 113.542969 C 106.324219 117.859375 104.273438 122.621094 102.042969 127.691406 C 102.015625 127.707031 101.984375 127.730469 101.960938 127.757812 C 101.832031 127.875 101.777344 128.058594 101.816406 128.234375 C 102.457031 130.730469 103.109375 133.300781 103.773438 135.980469 C 104.53125 139.136719 105.328125 142.40625 106.148438 145.804688 L 107.273438 150.453125 C 108.332031 155.351562 109.449219 160.480469 110.628906 165.871094 C 110.664062 166.054688 110.8125 166.199219 111.003906 166.246094 C 111.195312 166.277344 111.386719 166.207031 111.5 166.054688 C 115.871094 160.058594 119.09375 154.449219 121.078125 149.410156 C 121.523438 148.429688 121.84375 147.464844 122.148438 146.539062 C 122.308594 146.042969 122.472656 145.550781 122.648438 145.085938 C 122.761719 144.753906 122.875 144.425781 122.992188 144.097656 C 123.105469 143.761719 123.222656 143.421875 123.359375 143.039062 C 123.449219 142.636719 123.542969 142.230469 123.632812 141.839844 L 123.804688 141.140625 C 124.054688 140.109375 124.292969 139.121094 124.515625 138.195312 L 124.636719 137.667969 C 124.820312 136.96875 124.90625 136.304688 124.980469 135.667969 C 125.035156 135.285156 125.082031 134.917969 125.152344 134.542969 C 125.242188 133.855469 125.335938 133.210938 125.425781 132.597656 L 125.527344 131.910156 C 125.578125 131.503906 125.640625 131.113281 125.695312 130.707031 C 125.710938 130.515625 125.726562 130.332031 125.730469 130.148438 C 125.746094 129.980469 125.753906 129.8125 125.769531 129.644531 C 125.832031 128.722656 125.886719 127.933594 125.9375 127.261719 C 125.960938 127.941406 125.992188 128.738281 126.007812 129.664062 L 126.03125 130.730469 L 126.007812 130.976562 C 125.984375 131.273438 125.953125 131.578125 125.921875 131.910156 L 125.695312 134.617188 C 125.65625 134.949219 125.625 135.292969 125.59375 135.644531 C 125.539062 136.328125 125.488281 137.023438 125.335938 137.734375 L 124.597656 141.347656 C 124.515625 141.769531 124.421875 142.199219 124.332031 142.636719 L 124.195312 143.285156 C 123.988281 143.945312 123.773438 144.632812 123.542969 145.320312 C 123.382812 145.804688 123.230469 146.292969 123.074219 146.800781 C 122.777344 147.765625 122.472656 148.765625 122.042969 149.769531 C 119.914062 155.445312 116.292969 161.683594 111.285156 168.335938 C 111.210938 168.449219 111.171875 168.589844 111.203125 168.726562 C 111.851562 172.003906 112.472656 175.378906 113.109375 178.855469 C 113.445312 180.714844 113.796875 182.605469 114.148438 184.511719 C 114.484375 186.574219 114.800781 188.671875 115.121094 190.796875 C 115.152344 190.996094 115.304688 191.167969 115.511719 191.203125 C 115.703125 191.242188 115.917969 191.152344 116.023438 190.976562 C 116.582031 190.046875 117.179688 189.136719 117.785156 188.273438 C 120.648438 184.269531 123.726562 181.03125 126.367188 178.394531 C 129.238281 175.515625 132.027344 172.929688 134.726562 170.425781 C 137.460938 167.882812 140.042969 165.488281 142.355469 163.121094 C 143.585938 161.859375 144.628906 160.71875 145.53125 159.640625 C 145.699219 159.441406 145.867188 159.242188 146.074219 158.972656 C 146.167969 158.859375 146.203125 158.703125 146.175781 158.566406 C 145.246094 154.117188 145.046875 149.640625 145.601562 145.269531 C 146.050781 141.730469 146.769531 138.46875 147.742188 135.582031 C 148.273438 133.929688 148.832031 132.476562 149.40625 131.25 C 149.328125 131.5625 149.234375 131.917969 149.128906 132.316406 C 148.890625 133.226562 148.601562 134.359375 148.273438 135.738281 C 147.484375 138.96875 146.960938 142.03125 146.625 145.359375 C 146.265625 149.042969 146.386719 152.777344 146.992188 156.453125 C 147.023438 156.644531 147.160156 156.796875 147.34375 156.851562 C 147.535156 156.898438 147.726562 156.835938 147.851562 156.691406 C 148.003906 156.507812 148.15625 156.308594 148.285156 156.125 C 150.09375 153.765625 151.808594 151.53125 153.394531 149.433594 C 154.441406 148.101562 155.515625 146.890625 156.5625 145.710938 C 157.128906 145.078125 157.679688 144.449219 158.195312 143.84375 C 158.769531 143.214844 159.3125 142.589844 159.839844 141.984375 C 160.742188 140.941406 161.601562 139.957031 162.480469 139.082031 L 163.285156 138.277344 C 163.746094 137.8125 164.195312 137.359375 164.640625 136.921875 C 164.746094 136.824219 164.792969 136.671875 164.777344 136.527344 C 164.378906 132.566406 164.457031 128.707031 165.023438 124.734375 C 165.453125 121.71875 166.027344 118.917969 166.777344 116.160156 C 167.296875 114.285156 167.703125 113.042969 168.007812 112.242188 C 167.832031 113.464844 167.542969 115.113281 167.335938 116.277344 C 166.914062 118.570312 166.4375 121.3125 166.042969 124.859375 C 165.664062 128.195312 165.589844 131.386719 165.804688 134.605469 C 165.820312 134.796875 165.941406 134.964844 166.117188 135.03125 C 166.300781 135.101562 166.5 135.054688 166.636719 134.917969 C 167.726562 133.839844 168.734375 132.84375 169.648438 131.953125 C 171.636719 130.148438 173.269531 128.785156 174.777344 127.539062 C 176.09375 126.449219 176.964844 125.792969 177.53125 125.394531 C 177.113281 125.945312 176.414062 126.785156 175.273438 128.066406 C 174.46875 128.953125 173.492188 129.996094 172.34375 131.210938 L 170.6875 132.980469 C 168.699219 135.269531 166.46875 137.789062 164.058594 140.460938 C 163.238281 141.363281 162.449219 142.351562 161.617188 143.402344 C 161.101562 144.042969 160.574219 144.710938 160.007812 145.382812 C 159.488281 146.050781 158.9375 146.714844 158.378906 147.398438 C 157.414062 148.554688 156.425781 149.753906 155.453125 151.078125 L 150.597656 157.785156 L 149 159.976562 C 148.898438 160.105469 148.867188 160.28125 148.929688 160.441406 C 148.984375 160.601562 149.121094 160.71875 149.289062 160.757812 C 158.460938 162.671875 166.792969 163.128906 174.050781 162.105469 C 174.539062 162.027344 175.007812 161.957031 175.433594 161.890625 C 176.132812 161.789062 176.75 161.707031 177.3125 161.589844 C 177.894531 161.460938 178.398438 161.347656 178.835938 161.246094 C 178.414062 161.421875 177.914062 161.621094 177.347656 161.835938 C 176.722656 162.042969 175.972656 162.21875 175.113281 162.425781 L 174.140625 162.664062 C 169.171875 163.75 160.605469 164.46875 148.003906 161.707031 C 147.828125 161.667969 147.636719 161.730469 147.519531 161.867188 C 146.371094 163.230469 145.453125 164.261719 144.542969 165.226562 C 142.015625 167.898438 139.230469 170.546875 136.273438 173.351562 C 133.855469 175.65625 131.34375 178.027344 128.816406 180.585938 C 128.6875 180.714844 128.640625 180.898438 128.695312 181.074219 C 128.75 181.242188 128.886719 181.375 129.070312 181.414062 C 142.183594 184.105469 149.894531 183.800781 154.035156 183.082031 C 155.015625 182.9375 155.851562 182.730469 156.578125 182.546875 L 157.265625 182.378906 C 157.597656 182.269531 157.902344 182.171875 158.195312 182.085938 C 158.386719 182.023438 158.570312 181.964844 158.746094 181.910156 C 158.421875 182.085938 158.046875 182.269531 157.621094 182.476562 L 157.054688 182.722656 C 156.226562 183.027344 155.292969 183.371094 154.160156 183.625 C 150.714844 184.503906 142.796875 185.507812 128.289062 182.476562 L 128.296875 182.414062 C 128.34375 182.199219 128.234375 181.988281 128.042969 181.886719 C 127.851562 181.789062 127.617188 181.824219 127.460938 181.980469 C 125.640625 183.902344 122.929688 186.832031 120.542969 190.195312 C 118.453125 193.148438 117.058594 195.898438 116.277344 198.585938 C 116.261719 198.644531 116.253906 198.714844 116.261719 198.785156 L 116.308594 199.121094 C 116.324219 199.273438 116.40625 199.410156 116.539062 199.488281 C 116.667969 199.566406 116.828125 199.582031 116.972656 199.527344 C 122.515625 197.359375 128.535156 196.058594 135.355469 195.5625 C 140.609375 195.1875 145.828125 195.214844 151.800781 195.660156 C 154.320312 195.84375 156.664062 196.066406 158.890625 196.28125 C 159.035156 196.289062 159.203125 196.234375 159.304688 196.121094 C 161.992188 193.042969 164.320312 190.714844 166.417969 189 C 168.734375 187.054688 171.1875 185.53125 173.5 184.582031 C 175.144531 183.921875 176.414062 183.664062 177.296875 183.570312 C 176.460938 183.871094 175.25 184.3125 173.726562 185.101562 C 171.429688 186.3125 169.257812 187.835938 167.082031 189.773438 C 165.351562 191.296875 163.429688 193.257812 161.21875 195.757812 C 161.09375 195.898438 161.066406 196.089844 161.125 196.257812 C 161.195312 196.425781 161.347656 196.546875 161.53125 196.570312 C 164.800781 196.929688 167.75 197.304688 170.390625 197.644531 C 171.972656 197.84375 173.453125 198.027344 174.824219 198.195312 C 177.871094 198.585938 180.417969 198.890625 182.515625 199.152344 C 185.878906 199.558594 188.382812 199.863281 189.566406 200.117188 C 187.992188 200.445312 183.75 200.84375 174.632812 200.285156 Z M 215.78125 194.925781 C 206.105469 188.226562 197.109375 178.511719 188.265625 165.226562 C 187.976562 164.800781 187.914062 164.371094 188.058594 163.957031 C 188.242188 163.46875 188.71875 163.054688 189.300781 162.886719 C 189.375 162.871094 189.4375 162.832031 189.5 162.777344 C 193.417969 159.203125 195.761719 154.472656 198.019531 149.894531 C 199.941406 146.019531 201.925781 142.015625 204.855469 138.738281 C 205.023438 138.554688 205.023438 138.269531 204.855469 138.085938 C 200.277344 132.980469 201.617188 124.574219 203.304688 117.8125 C 204.199219 114.214844 205.484375 110.488281 206.734375 106.882812 C 208.714844 101.125 210.773438 95.167969 211.464844 89.234375 C 211.488281 89.058594 211.410156 88.890625 211.273438 88.78125 C 211.136719 88.683594 210.949219 88.660156 210.78125 88.730469 C 205.214844 91.171875 199.988281 92.941406 194.789062 94.140625 C 191.988281 94.800781 189.039062 95.3125 186.199219 95.8125 C 181.589844 96.621094 176.828125 97.457031 172.378906 98.910156 C 168.367188 100.222656 164.464844 102.226562 160.691406 104.171875 C 153.179688 108.03125 145.414062 112.027344 136.613281 110.496094 C 135.386719 110.28125 135.433594 109.238281 135.476562 108.933594 C 135.484375 108.871094 135.476562 108.8125 135.464844 108.75 C 130.914062 89.625 116.023438 77.398438 101.625 65.578125 C 94.933594 60.089844 88.019531 54.414062 82.277344 48.136719 C 82.15625 48.007812 81.964844 47.945312 81.78125 48 C 81.597656 48.054688 81.464844 48.199219 81.425781 48.382812 C 80.148438 55.15625 78.816406 62.164062 75.898438 68.679688 C 74.492188 71.839844 72.761719 74.941406 71.089844 77.933594 C 68.773438 82.097656 66.375 86.410156 64.730469 90.996094 C 61.8125 99.210938 60.96875 106.851562 62.148438 114.355469 C 62.28125 115.234375 62.449219 116.144531 62.609375 117.078125 C 63.328125 121.113281 64.148438 125.683594 63.144531 129.464844 C 61.117188 137.054688 51.414062 138.171875 43.621094 139.066406 C 42.273438 139.21875 40.996094 139.367188 39.847656 139.542969 C 35.132812 140.246094 30.507812 141.28125 26.027344 142.273438 C 19.238281 143.785156 12.210938 145.34375 4.996094 145.734375 C 4.804688 145.742188 4.644531 145.859375 4.570312 146.035156 C 4.5 146.203125 4.53125 146.402344 4.652344 146.546875 C 7.800781 150.144531 10.273438 154.296875 12.660156 158.3125 C 15.707031 163.421875 18.863281 168.710938 23.449219 172.960938 C 28.914062 178.035156 32.085938 182.636719 29.78125 188.578125 C 29.703125 188.792969 29.78125 189.03125 29.972656 189.160156 C 38.835938 195.132812 48.007812 201.308594 46.921875 214.21875 C 46.203125 222.769531 41.640625 232.019531 35.285156 237.792969 C 35.140625 237.921875 35.085938 238.128906 35.15625 238.3125 C 35.222656 238.503906 35.390625 238.632812 35.589844 238.640625 C 39.925781 238.847656 44.296875 239.359375 48.375 239.882812 C 49.148438 239.980469 49.929688 240.09375 50.726562 240.210938 C 53.445312 240.601562 56.214844 241 58.949219 241 C 60.757812 241 62.546875 240.824219 64.292969 240.363281 C 66.742188 239.703125 69.148438 238.871094 71.46875 238.050781 C 76.75 236.207031 81.773438 234.460938 87.351562 234.667969 C 88.203125 234.699219 89.089844 235.347656 89.058594 236.34375 C 89.03125 237.585938 89.136719 238.816406 89.230469 239.75 C 89.25 239.933594 89.382812 240.09375 89.558594 240.164062 C 89.734375 240.21875 89.933594 240.179688 90.0625 240.042969 C 98.660156 231.453125 107.703125 220.980469 111.214844 207.71875 C 114.539062 207.035156 117.066406 221.84375 117.210938 223.445312 C 117.738281 229.179688 118.367188 234.90625 119.117188 240.625 C 120.472656 250.953125 122.257812 261.21875 124.339844 271.429688 C 124.5 272.234375 125.027344 272.632812 125.625 272.761719 C 125.710938 272.863281 125.808594 272.925781 125.945312 272.925781 C 125.96875 272.925781 126 272.917969 126.03125 272.917969 C 126.167969 272.902344 126.269531 272.863281 126.34375 272.785156 C 127.394531 272.625 128.390625 271.730469 128.113281 270.390625 C 125.855469 259.257812 123.941406 248.082031 122.546875 236.8125 C 121.574219 228.910156 121.84375 220.328125 119.785156 212.609375 C 119.246094 210.644531 118.277344 208.605469 117.019531 206.976562 C 117.019531 206.929688 117.042969 206.898438 117.042969 206.851562 C 117.035156 206.484375 117.226562 206.171875 117.746094 205.941406 C 123.488281 215.480469 132.660156 224.875 143.824219 232.539062 C 143.960938 232.636719 144.144531 232.652344 144.296875 232.585938 C 144.457031 232.515625 144.566406 232.371094 144.589844 232.203125 C 144.847656 230.15625 144.964844 228.441406 144.671875 226.710938 C 144.566406 226.085938 144.789062 225.3125 145.203125 224.882812 C 145.484375 224.59375 145.8125 224.46875 146.226562 224.53125 C 167.351562 227.308594 184.945312 216.261719 197.90625 206.324219 L 199.046875 205.453125 C 203.5 202.03125 209.605469 197.34375 215.621094 195.804688 C 215.804688 195.757812 215.949219 195.605469 215.980469 195.414062 C 216.019531 195.222656 215.933594 195.03125 215.78125 194.925781 " fill-opacity="1" fill-rule="nonzero"/></g><path fill="#ffffff" d="M 567.546875 183.703125 C 567.785156 183.65625 568.011719 183.582031 568.230469 183.476562 C 568.449219 183.375 568.648438 183.246094 568.835938 183.09375 C 569.023438 182.941406 569.1875 182.769531 569.332031 182.574219 C 569.476562 182.382812 569.59375 182.171875 569.683594 181.949219 C 569.777344 181.726562 569.839844 181.496094 569.875 181.257812 C 569.914062 181.019531 569.917969 180.78125 569.894531 180.542969 C 569.871094 180.300781 569.820312 180.066406 569.738281 179.839844 C 569.65625 179.613281 569.546875 179.402344 569.414062 179.199219 C 569.28125 179 569.125 178.820312 568.945312 178.65625 C 568.769531 178.496094 568.570312 178.355469 568.359375 178.242188 C 568.148438 178.128906 567.925781 178.042969 567.691406 177.984375 C 567.457031 177.925781 567.21875 177.898438 566.976562 177.898438 C 566.738281 177.898438 566.5 177.925781 566.265625 177.984375 C 566.03125 178.042969 565.808594 178.128906 565.597656 178.242188 C 565.382812 178.355469 565.1875 178.496094 565.007812 178.65625 C 564.832031 178.820312 564.675781 179 564.539062 179.199219 C 564.40625 179.402344 564.300781 179.613281 564.21875 179.839844 C 564.136719 180.066406 564.085938 180.300781 564.0625 180.542969 C 564.039062 180.78125 564.042969 181.019531 564.078125 181.257812 C 564.113281 181.496094 564.179688 181.726562 564.269531 181.949219 C 564.363281 182.171875 564.480469 182.382812 564.625 182.574219 C 564.769531 182.769531 564.933594 182.941406 565.117188 183.09375 C 565.304688 183.246094 565.507812 183.375 565.726562 183.476562 C 565.945312 183.582031 566.171875 183.65625 566.40625 183.703125 L 566.40625 222.234375 L 573.199219 222.234375 L 573.199219 211.75 C 573.4375 211.703125 573.664062 211.628906 573.882812 211.523438 C 574.101562 211.421875 574.300781 211.292969 574.488281 211.140625 C 574.675781 210.988281 574.839844 210.8125 574.984375 210.621094 C 575.128906 210.425781 575.246094 210.21875 575.339844 209.996094 C 575.429688 209.773438 575.496094 209.542969 575.53125 209.304688 C 575.566406 209.066406 575.570312 208.828125 575.546875 208.585938 C 575.523438 208.347656 575.472656 208.113281 575.390625 207.886719 C 575.308594 207.660156 575.203125 207.445312 575.066406 207.246094 C 574.933594 207.042969 574.777344 206.863281 574.597656 206.699219 C 574.417969 206.539062 574.222656 206.402344 574.011719 206.289062 C 573.800781 206.175781 573.574219 206.089844 573.339844 206.03125 C 573.109375 205.972656 572.871094 205.941406 572.628906 205.941406 C 572.386719 205.941406 572.152344 205.972656 571.917969 206.03125 C 571.683594 206.089844 571.460938 206.175781 571.246094 206.289062 C 571.035156 206.402344 570.839844 206.539062 570.660156 206.703125 C 570.480469 206.863281 570.324219 207.042969 570.191406 207.246094 C 570.058594 207.445312 569.949219 207.660156 569.867188 207.886719 C 569.789062 208.113281 569.734375 208.347656 569.710938 208.585938 C 569.6875 208.828125 569.695312 209.066406 569.730469 209.304688 C 569.765625 209.542969 569.828125 209.773438 569.921875 209.996094 C 570.011719 210.21875 570.128906 210.425781 570.273438 210.621094 C 570.417969 210.8125 570.582031 210.988281 570.769531 211.140625 C 570.957031 211.292969 571.15625 211.421875 571.375 211.523438 C 571.59375 211.628906 571.820312 211.703125 572.058594 211.75 L 572.058594 221.089844 L 567.546875 221.089844 Z M 567.546875 183.703125 " fill-opacity="1" fill-rule="nonzero"/><g clip-path="url(#5654ef3c27)"><path fill="#ffffff" d="M 616.292969 262.695312 L 615.457031 262.695312 L 615.457031 255.425781 L 613.542969 255.425781 L 613.542969 237.917969 L 615.457031 237.917969 L 615.457031 228.398438 L 610.484375 228.398438 L 610.484375 237.917969 L 612.398438 237.917969 L 612.398438 255.429688 L 610.484375 255.429688 L 610.484375 262.699219 L 604.996094 262.699219 L 604.996094 255.8125 L 603.082031 255.8125 L 603.082031 217.65625 L 651.753906 168.980469 L 651.921875 168.8125 L 651.921875 137.339844 C 652.160156 137.292969 652.386719 137.21875 652.605469 137.113281 C 652.820312 137.011719 653.023438 136.882812 653.210938 136.730469 C 653.398438 136.578125 653.5625 136.40625 653.707031 136.210938 C 653.847656 136.019531 653.96875 135.808594 654.058594 135.585938 C 654.152344 135.363281 654.214844 135.132812 654.25 134.894531 C 654.285156 134.65625 654.292969 134.417969 654.269531 134.179688 C 654.246094 133.9375 654.191406 133.707031 654.113281 133.476562 C 654.03125 133.25 653.921875 133.039062 653.789062 132.835938 C 653.65625 132.636719 653.5 132.457031 653.320312 132.292969 C 653.140625 132.132812 652.945312 131.992188 652.734375 131.878906 C 652.519531 131.765625 652.296875 131.679688 652.0625 131.621094 C 651.832031 131.5625 651.59375 131.535156 651.351562 131.535156 C 651.109375 131.535156 650.875 131.5625 650.640625 131.621094 C 650.40625 131.679688 650.183594 131.765625 649.96875 131.878906 C 649.757812 131.992188 649.5625 132.132812 649.382812 132.292969 C 649.203125 132.457031 649.046875 132.636719 648.914062 132.835938 C 648.78125 133.039062 648.671875 133.25 648.59375 133.476562 C 648.511719 133.707031 648.457031 133.9375 648.433594 134.179688 C 648.410156 134.417969 648.417969 134.65625 648.453125 134.894531 C 648.488281 135.132812 648.550781 135.363281 648.644531 135.585938 C 648.738281 135.808594 648.855469 136.019531 648.996094 136.210938 C 649.140625 136.40625 649.308594 136.578125 649.492188 136.730469 C 649.679688 136.882812 649.882812 137.011719 650.097656 137.113281 C 650.316406 137.21875 650.542969 137.292969 650.78125 137.339844 L 650.78125 168.339844 L 602.105469 217.015625 L 601.9375 217.179688 L 601.9375 255.808594 L 600.019531 255.808594 L 600.019531 262.695312 L 594.535156 262.695312 L 594.535156 255.425781 L 592.617188 255.425781 L 592.617188 214.90625 L 635.238281 172.28125 C 635.4375 172.414062 635.65625 172.519531 635.882812 172.597656 C 636.109375 172.675781 636.34375 172.726562 636.585938 172.746094 C 636.828125 172.765625 637.066406 172.757812 637.304688 172.71875 C 637.542969 172.679688 637.773438 172.613281 637.996094 172.519531 C 638.214844 172.425781 638.421875 172.304688 638.613281 172.15625 C 638.808594 172.011719 638.976562 171.84375 639.128906 171.65625 C 639.28125 171.46875 639.40625 171.261719 639.507812 171.042969 C 639.605469 170.824219 639.679688 170.59375 639.722656 170.359375 C 639.765625 170.121094 639.78125 169.882812 639.765625 169.640625 C 639.75 169.398438 639.707031 169.164062 639.632812 168.933594 C 639.5625 168.703125 639.460938 168.488281 639.335938 168.28125 C 639.207031 168.074219 639.058594 167.890625 638.886719 167.722656 C 638.710938 167.550781 638.523438 167.40625 638.3125 167.285156 C 638.105469 167.164062 637.882812 167.070312 637.652344 167.003906 C 637.421875 166.9375 637.183594 166.898438 636.941406 166.890625 C 636.703125 166.878906 636.464844 166.902344 636.226562 166.953125 C 635.992188 167 635.765625 167.078125 635.546875 167.1875 C 635.332031 167.292969 635.128906 167.421875 634.945312 167.578125 C 634.761719 167.734375 634.597656 167.910156 634.457031 168.105469 C 634.316406 168.300781 634.199219 168.511719 634.113281 168.734375 C 634.023438 168.960938 633.960938 169.191406 633.929688 169.429688 C 633.898438 169.667969 633.894531 169.910156 633.921875 170.148438 C 633.949219 170.386719 634.003906 170.621094 634.085938 170.847656 C 634.171875 171.074219 634.28125 171.285156 634.417969 171.484375 L 611.097656 194.808594 L 611.097656 183.585938 L 620.828125 173.855469 C 621 174.03125 621.183594 174.183594 621.390625 174.3125 C 621.597656 174.441406 621.816406 174.542969 622.046875 174.617188 C 622.277344 174.691406 622.515625 174.738281 622.757812 174.757812 C 623 174.773438 623.238281 174.761719 623.476562 174.71875 C 623.71875 174.675781 623.949219 174.605469 624.167969 174.503906 C 624.390625 174.40625 624.597656 174.28125 624.789062 174.132812 C 624.980469 173.980469 625.148438 173.8125 625.296875 173.617188 C 625.445312 173.425781 625.570312 173.21875 625.667969 172.996094 C 625.765625 172.777344 625.835938 172.542969 625.875 172.304688 C 625.917969 172.066406 625.929688 171.824219 625.910156 171.582031 C 625.890625 171.339844 625.84375 171.105469 625.769531 170.875 C 625.691406 170.644531 625.585938 170.425781 625.457031 170.21875 C 625.328125 170.015625 625.175781 169.828125 624.996094 169.664062 C 624.820312 169.496094 624.628906 169.351562 624.417969 169.230469 C 624.203125 169.113281 623.980469 169.019531 623.746094 168.957031 C 623.515625 168.890625 623.273438 168.855469 623.03125 168.851562 C 622.789062 168.84375 622.550781 168.867188 622.3125 168.921875 C 622.074219 168.976562 621.847656 169.058594 621.632812 169.167969 C 621.414062 169.273438 621.214844 169.410156 621.03125 169.566406 C 620.847656 169.726562 620.683594 169.90625 620.546875 170.105469 C 620.40625 170.300781 620.292969 170.515625 620.203125 170.742188 C 620.117188 170.96875 620.058594 171.203125 620.027344 171.441406 C 619.996094 171.683594 619.996094 171.925781 620.027344 172.164062 C 620.058594 172.40625 620.113281 172.640625 620.203125 172.867188 L 609.953125 183.113281 L 609.953125 195.953125 L 591.644531 214.265625 L 591.476562 214.433594 L 591.476562 255.425781 L 589.558594 255.425781 L 589.558594 262.695312 L 584.1875 262.695312 L 584.1875 255.425781 L 582.277344 255.425781 L 582.277344 250.519531 C 582.511719 250.472656 582.738281 250.398438 582.957031 250.296875 C 583.175781 250.191406 583.378906 250.0625 583.5625 249.910156 C 583.75 249.757812 583.914062 249.585938 584.058594 249.390625 C 584.203125 249.199219 584.320312 248.992188 584.414062 248.769531 C 584.503906 248.546875 584.566406 248.316406 584.605469 248.074219 C 584.640625 247.835938 584.644531 247.597656 584.621094 247.359375 C 584.597656 247.117188 584.546875 246.886719 584.464844 246.660156 C 584.382812 246.429688 584.277344 246.21875 584.140625 246.015625 C 584.007812 245.816406 583.851562 245.636719 583.671875 245.472656 C 583.496094 245.3125 583.300781 245.175781 583.085938 245.0625 C 582.875 244.945312 582.652344 244.859375 582.417969 244.800781 C 582.183594 244.742188 581.945312 244.714844 581.703125 244.714844 C 581.464844 244.714844 581.226562 244.742188 580.992188 244.800781 C 580.757812 244.859375 580.535156 244.945312 580.324219 245.0625 C 580.109375 245.175781 579.914062 245.3125 579.734375 245.472656 C 579.558594 245.636719 579.402344 245.816406 579.269531 246.015625 C 579.132812 246.21875 579.027344 246.429688 578.945312 246.660156 C 578.863281 246.886719 578.8125 247.117188 578.789062 247.359375 C 578.765625 247.597656 578.769531 247.835938 578.804688 248.074219 C 578.839844 248.316406 578.90625 248.546875 578.996094 248.769531 C 579.089844 248.992188 579.207031 249.199219 579.351562 249.390625 C 579.496094 249.585938 579.660156 249.757812 579.847656 249.910156 C 580.03125 250.0625 580.234375 250.191406 580.453125 250.296875 C 580.671875 250.398438 580.898438 250.472656 581.132812 250.519531 L 581.132812 255.425781 L 579.214844 255.425781 L 579.214844 262.695312 L 573.847656 262.695312 L 573.847656 255.425781 L 571.929688 255.425781 L 571.929688 230.945312 L 581.910156 220.957031 L 581.910156 192.449219 L 612.539062 161.820312 L 612.539062 123.042969 C 612.804688 123.015625 613.0625 122.976562 613.320312 122.917969 C 613.578125 122.863281 613.832031 122.789062 614.078125 122.699219 C 614.324219 122.609375 614.566406 122.503906 614.800781 122.386719 C 615.035156 122.265625 615.261719 122.128906 615.480469 121.980469 C 615.699219 121.832031 615.90625 121.671875 616.101562 121.496094 C 616.296875 121.320312 616.484375 121.132812 616.65625 120.933594 C 616.828125 120.734375 616.988281 120.527344 617.136719 120.308594 C 617.28125 120.089844 617.414062 119.859375 617.53125 119.625 C 617.648438 119.390625 617.75 119.148438 617.839844 118.898438 C 617.925781 118.648438 617.996094 118.394531 618.050781 118.136719 C 618.105469 117.878906 618.140625 117.621094 618.164062 117.355469 C 618.183594 117.09375 618.191406 116.832031 618.175781 116.566406 C 618.164062 116.304688 618.136719 116.042969 618.089844 115.785156 C 618.046875 115.523438 617.984375 115.269531 617.90625 115.015625 C 617.828125 114.765625 617.734375 114.519531 617.625 114.28125 C 617.515625 114.039062 617.390625 113.808594 617.253906 113.582031 C 617.113281 113.359375 616.960938 113.144531 616.796875 112.941406 C 616.628906 112.734375 616.453125 112.542969 616.261719 112.359375 C 616.070312 112.179688 615.871094 112.007812 615.65625 111.851562 C 615.445312 111.695312 615.222656 111.554688 614.996094 111.425781 C 614.765625 111.296875 614.527344 111.183594 614.28125 111.085938 C 614.039062 110.988281 613.789062 110.90625 613.53125 110.839844 C 613.277344 110.773438 613.019531 110.722656 612.757812 110.691406 C 612.496094 110.65625 612.234375 110.640625 611.96875 110.640625 C 611.707031 110.640625 611.445312 110.65625 611.183594 110.691406 C 610.921875 110.722656 610.664062 110.773438 610.40625 110.839844 C 610.152344 110.90625 609.902344 110.988281 609.660156 111.085938 C 609.414062 111.183594 609.175781 111.296875 608.945312 111.425781 C 608.714844 111.554688 608.496094 111.695312 608.28125 111.851562 C 608.070312 112.007812 607.867188 112.179688 607.679688 112.359375 C 607.488281 112.542969 607.308594 112.734375 607.144531 112.941406 C 606.976562 113.144531 606.824219 113.359375 606.6875 113.582031 C 606.546875 113.808594 606.425781 114.039062 606.316406 114.28125 C 606.207031 114.519531 606.113281 114.765625 606.035156 115.015625 C 605.957031 115.269531 605.894531 115.523438 605.847656 115.785156 C 605.804688 116.042969 605.773438 116.304688 605.761719 116.566406 C 605.75 116.832031 605.753906 117.09375 605.777344 117.355469 C 605.796875 117.621094 605.835938 117.878906 605.890625 118.136719 C 605.945312 118.394531 606.015625 118.648438 606.101562 118.898438 C 606.1875 119.148438 606.289062 119.390625 606.410156 119.625 C 606.527344 119.859375 606.65625 120.089844 606.804688 120.308594 C 606.949219 120.527344 607.109375 120.734375 607.285156 120.933594 C 607.457031 121.132812 607.640625 121.320312 607.839844 121.496094 C 608.035156 121.671875 608.242188 121.832031 608.460938 121.980469 C 608.675781 122.128906 608.902344 122.265625 609.136719 122.386719 C 609.371094 122.503906 609.613281 122.609375 609.863281 122.699219 C 610.109375 122.789062 610.363281 122.863281 610.621094 122.917969 C 610.875 122.976562 611.136719 123.015625 611.398438 123.042969 L 611.398438 161.34375 L 588.558594 184.191406 L 588.558594 174.121094 L 598.769531 163.90625 C 598.96875 164.042969 599.183594 164.148438 599.410156 164.230469 C 599.636719 164.3125 599.871094 164.363281 600.109375 164.386719 C 600.351562 164.414062 600.589844 164.40625 600.828125 164.371094 C 601.066406 164.335938 601.296875 164.273438 601.519531 164.179688 C 601.742188 164.085938 601.953125 163.96875 602.144531 163.824219 C 602.339844 163.683594 602.511719 163.515625 602.664062 163.332031 C 602.820312 163.144531 602.945312 162.941406 603.050781 162.722656 C 603.152344 162.507812 603.226562 162.28125 603.273438 162.042969 C 603.320312 161.804688 603.339844 161.566406 603.328125 161.328125 C 603.316406 161.085938 603.273438 160.851562 603.207031 160.621094 C 603.136719 160.390625 603.039062 160.171875 602.914062 159.964844 C 602.789062 159.757812 602.644531 159.566406 602.472656 159.398438 C 602.300781 159.226562 602.113281 159.078125 601.90625 158.957031 C 601.699219 158.832031 601.480469 158.734375 601.25 158.664062 C 601.019531 158.59375 600.785156 158.554688 600.542969 158.542969 C 600.300781 158.53125 600.0625 158.546875 599.828125 158.59375 C 599.589844 158.640625 599.363281 158.71875 599.144531 158.820312 C 598.925781 158.921875 598.726562 159.050781 598.539062 159.203125 C 598.351562 159.355469 598.1875 159.53125 598.042969 159.722656 C 597.898438 159.917969 597.78125 160.125 597.691406 160.347656 C 597.597656 160.570312 597.535156 160.800781 597.5 161.039062 C 597.464844 161.28125 597.457031 161.519531 597.480469 161.757812 C 597.503906 162 597.558594 162.230469 597.640625 162.460938 C 597.71875 162.6875 597.828125 162.898438 597.960938 163.101562 L 587.414062 173.648438 L 587.414062 185.335938 L 580.941406 191.8125 L 580.773438 191.980469 L 580.773438 220.492188 L 570.789062 230.476562 L 570.789062 255.429688 L 568.875 255.429688 L 568.875 262.699219 L 563.503906 262.699219 L 563.503906 254.761719 L 561.585938 254.761719 L 561.585938 222.382812 L 547.308594 208.105469 L 547.308594 201.621094 L 557.96875 190.960938 L 557.96875 167.992188 L 560.808594 167.992188 L 560.808594 154.941406 L 553.984375 154.941406 L 553.984375 167.992188 L 556.824219 167.992188 L 556.824219 190.484375 L 547.308594 200 L 547.308594 184.03125 L 550.0625 184.03125 L 550.0625 170.988281 L 543.242188 170.988281 L 543.242188 184.03125 L 546.15625 184.03125 L 546.15625 208.570312 L 560.433594 222.847656 L 560.433594 254.753906 L 558.519531 254.753906 L 558.519531 262.695312 L 554.105469 262.695312 L 554.105469 254.753906 L 552.1875 254.753906 L 552.1875 230.320312 L 530.078125 208.210938 L 530.078125 190.503906 C 530.3125 190.457031 530.542969 190.382812 530.757812 190.277344 C 530.976562 190.175781 531.179688 190.046875 531.367188 189.894531 C 531.550781 189.742188 531.71875 189.570312 531.859375 189.375 C 532.003906 189.179688 532.121094 188.972656 532.214844 188.75 C 532.308594 188.527344 532.371094 188.296875 532.40625 188.058594 C 532.441406 187.820312 532.449219 187.582031 532.421875 187.34375 C 532.398438 187.101562 532.347656 186.867188 532.265625 186.640625 C 532.183594 186.414062 532.078125 186.199219 531.945312 186 C 531.808594 185.800781 531.652344 185.617188 531.476562 185.457031 C 531.296875 185.296875 531.101562 185.15625 530.890625 185.042969 C 530.675781 184.929688 530.453125 184.84375 530.21875 184.785156 C 529.984375 184.726562 529.746094 184.699219 529.507812 184.699219 C 529.265625 184.699219 529.027344 184.726562 528.792969 184.785156 C 528.5625 184.84375 528.335938 184.929688 528.125 185.042969 C 527.914062 185.15625 527.71875 185.296875 527.539062 185.457031 C 527.359375 185.617188 527.203125 185.800781 527.070312 186 C 526.9375 186.199219 526.828125 186.414062 526.746094 186.640625 C 526.667969 186.867188 526.613281 187.101562 526.589844 187.34375 C 526.566406 187.582031 526.574219 187.820312 526.609375 188.058594 C 526.644531 188.296875 526.707031 188.527344 526.800781 188.75 C 526.890625 188.972656 527.007812 189.179688 527.152344 189.375 C 527.296875 189.570312 527.460938 189.742188 527.648438 189.894531 C 527.835938 190.046875 528.035156 190.175781 528.253906 190.277344 C 528.472656 190.382812 528.699219 190.457031 528.9375 190.503906 L 528.9375 208.683594 L 551.050781 230.796875 L 551.050781 254.757812 L 549.136719 254.757812 L 549.136719 262.699219 L 544.964844 262.699219 L 544.964844 266.796875 L 616.296875 266.796875 Z M 609.246094 116.863281 C 609.246094 116.5 609.316406 116.15625 609.453125 115.820312 C 609.59375 115.488281 609.789062 115.195312 610.046875 114.941406 C 610.300781 114.6875 610.59375 114.492188 610.929688 114.355469 C 611.261719 114.21875 611.609375 114.148438 611.96875 114.148438 C 612.328125 114.148438 612.675781 114.21875 613.007812 114.359375 C 613.339844 114.496094 613.632812 114.691406 613.886719 114.949219 C 614.144531 115.203125 614.339844 115.496094 614.476562 115.828125 C 614.613281 116.164062 614.683594 116.507812 614.683594 116.871094 C 614.683594 117.230469 614.613281 117.578125 614.476562 117.910156 C 614.335938 118.242188 614.140625 118.535156 613.886719 118.789062 C 613.628906 119.046875 613.335938 119.242188 613.003906 119.378906 C 612.671875 119.515625 612.324219 119.585938 611.964844 119.585938 C 611.601562 119.585938 611.257812 119.515625 610.921875 119.375 C 610.589844 119.238281 610.296875 119.039062 610.042969 118.785156 C 609.785156 118.53125 609.589844 118.234375 609.453125 117.902344 C 609.316406 117.570312 609.246094 117.222656 609.246094 116.863281 Z M 609.246094 116.863281 " fill-opacity="1" fill-rule="nonzero"/></g><path fill="#ffffff" d="M 685.113281 144.789062 C 684.765625 144.71875 684.429688 144.609375 684.109375 144.457031 C 683.792969 144.304688 683.496094 144.117188 683.222656 143.894531 C 682.949219 143.667969 682.703125 143.414062 682.496094 143.132812 C 682.285156 142.847656 682.109375 142.542969 681.972656 142.214844 C 681.839844 141.886719 681.746094 141.546875 681.695312 141.199219 C 681.640625 140.847656 681.632812 140.496094 681.667969 140.144531 C 681.703125 139.792969 681.777344 139.449219 681.898438 139.117188 C 682.015625 138.785156 682.175781 138.46875 682.371094 138.175781 C 682.566406 137.882812 682.796875 137.617188 683.058594 137.378906 C 683.320312 137.140625 683.609375 136.9375 683.921875 136.769531 C 684.234375 136.605469 684.5625 136.476562 684.90625 136.390625 C 685.246094 136.304688 685.597656 136.261719 685.949219 136.261719 C 686.304688 136.261719 686.652344 136.304688 686.996094 136.390625 C 687.339844 136.476562 687.667969 136.605469 687.980469 136.769531 C 688.292969 136.9375 688.578125 137.140625 688.839844 137.378906 C 689.101562 137.617188 689.332031 137.882812 689.527344 138.175781 C 689.726562 138.46875 689.882812 138.785156 690.003906 139.117188 C 690.121094 139.449219 690.199219 139.792969 690.234375 140.144531 C 690.269531 140.496094 690.257812 140.847656 690.207031 141.199219 C 690.15625 141.546875 690.0625 141.886719 689.925781 142.214844 C 689.789062 142.542969 689.617188 142.847656 689.40625 143.132812 C 689.195312 143.414062 688.953125 143.667969 688.679688 143.894531 C 688.40625 144.117188 688.109375 144.304688 687.789062 144.457031 C 687.46875 144.609375 687.136719 144.71875 686.789062 144.789062 L 686.789062 201.367188 L 676.8125 201.367188 L 676.8125 185.96875 C 676.464844 185.898438 676.132812 185.789062 675.8125 185.636719 C 675.492188 185.488281 675.195312 185.300781 674.921875 185.074219 C 674.648438 184.851562 674.40625 184.597656 674.195312 184.3125 C 673.984375 184.027344 673.808594 183.722656 673.675781 183.394531 C 673.539062 183.066406 673.445312 182.730469 673.394531 182.378906 C 673.339844 182.027344 673.332031 181.675781 673.367188 181.324219 C 673.402344 180.972656 673.480469 180.628906 673.597656 180.296875 C 673.71875 179.960938 673.875 179.648438 674.070312 179.355469 C 674.269531 179.058594 674.5 178.792969 674.761719 178.554688 C 675.023438 178.320312 675.308594 178.117188 675.621094 177.949219 C 675.933594 177.78125 676.261719 177.65625 676.605469 177.570312 C 676.949219 177.484375 677.296875 177.441406 677.652344 177.441406 C 678.007812 177.441406 678.355469 177.484375 678.699219 177.570312 C 679.042969 177.65625 679.371094 177.78125 679.683594 177.949219 C 679.992188 178.117188 680.28125 178.320312 680.542969 178.554688 C 680.804688 178.792969 681.035156 179.058594 681.230469 179.355469 C 681.429688 179.648438 681.585938 179.960938 681.707031 180.296875 C 681.824219 180.628906 681.902344 180.972656 681.9375 181.324219 C 681.972656 181.675781 681.960938 182.027344 681.910156 182.378906 C 681.859375 182.730469 681.765625 183.066406 681.628906 183.394531 C 681.492188 183.722656 681.320312 184.027344 681.109375 184.3125 C 680.898438 184.597656 680.65625 184.851562 680.382812 185.074219 C 680.109375 185.300781 679.8125 185.488281 679.492188 185.636719 C 679.171875 185.789062 678.839844 185.898438 678.492188 185.96875 L 678.492188 199.683594 L 685.113281 199.683594 Z M 685.113281 144.789062 " fill-opacity="1" fill-rule="nonzero"/><g clip-path="url(#81adb851fd)"><path fill="#ffffff" d="M 613.542969 260.773438 L 614.765625 260.773438 L 614.765625 250.097656 L 617.578125 250.097656 L 617.578125 224.390625 L 614.765625 224.390625 L 614.765625 210.417969 L 622.070312 210.417969 L 622.070312 224.390625 L 619.253906 224.390625 L 619.253906 250.105469 L 622.070312 250.105469 L 622.070312 260.78125 L 630.125 260.78125 L 630.125 250.667969 L 632.941406 250.667969 L 632.941406 194.640625 L 561.46875 123.167969 L 561.222656 122.925781 L 561.222656 76.710938 C 560.875 76.640625 560.542969 76.53125 560.222656 76.382812 C 559.902344 76.230469 559.605469 76.042969 559.332031 75.816406 C 559.058594 75.59375 558.816406 75.339844 558.605469 75.054688 C 558.394531 74.769531 558.222656 74.464844 558.085938 74.136719 C 557.949219 73.8125 557.855469 73.472656 557.804688 73.121094 C 557.753906 72.773438 557.746094 72.421875 557.777344 72.070312 C 557.8125 71.71875 557.890625 71.375 558.007812 71.042969 C 558.128906 70.707031 558.285156 70.394531 558.484375 70.101562 C 558.679688 69.804688 558.910156 69.539062 559.171875 69.300781 C 559.433594 69.0625 559.722656 68.863281 560.03125 68.695312 C 560.34375 68.527344 560.671875 68.402344 561.015625 68.316406 C 561.359375 68.230469 561.707031 68.1875 562.0625 68.1875 C 562.414062 68.1875 562.765625 68.230469 563.109375 68.316406 C 563.449219 68.402344 563.777344 68.527344 564.089844 68.695312 C 564.402344 68.863281 564.691406 69.0625 564.953125 69.300781 C 565.214844 69.539062 565.445312 69.804688 565.640625 70.101562 C 565.835938 70.394531 565.996094 70.707031 566.113281 71.042969 C 566.234375 71.375 566.308594 71.71875 566.34375 72.070312 C 566.378906 72.421875 566.371094 72.773438 566.320312 73.121094 C 566.265625 73.472656 566.171875 73.8125 566.039062 74.136719 C 565.902344 74.464844 565.730469 74.769531 565.519531 75.054688 C 565.308594 75.339844 565.066406 75.59375 564.792969 75.816406 C 564.515625 76.042969 564.21875 76.230469 563.902344 76.382812 C 563.582031 76.53125 563.246094 76.640625 562.898438 76.710938 L 562.898438 122.230469 L 634.371094 193.699219 L 634.617188 193.945312 L 634.617188 250.660156 L 637.429688 250.660156 L 637.429688 260.773438 L 645.488281 260.773438 L 645.488281 250.097656 L 648.300781 250.097656 L 648.300781 190.601562 L 585.722656 128.019531 C 585.425781 128.210938 585.109375 128.367188 584.773438 128.480469 C 584.441406 128.597656 584.097656 128.667969 583.742188 128.699219 C 583.390625 128.730469 583.039062 128.71875 582.6875 128.660156 C 582.339844 128.605469 582 128.507812 581.675781 128.367188 C 581.347656 128.226562 581.046875 128.050781 580.761719 127.835938 C 580.480469 127.621094 580.230469 127.375 580.007812 127.097656 C 579.789062 126.820312 579.601562 126.519531 579.457031 126.199219 C 579.308594 125.875 579.203125 125.542969 579.136719 125.191406 C 579.074219 124.84375 579.050781 124.492188 579.074219 124.140625 C 579.09375 123.785156 579.160156 123.441406 579.265625 123.101562 C 579.375 122.765625 579.519531 122.445312 579.707031 122.144531 C 579.890625 121.84375 580.113281 121.566406 580.367188 121.320312 C 580.621094 121.074219 580.898438 120.859375 581.207031 120.683594 C 581.511719 120.503906 581.835938 120.363281 582.175781 120.265625 C 582.515625 120.167969 582.863281 120.113281 583.21875 120.101562 C 583.570312 120.085938 583.921875 120.117188 584.269531 120.191406 C 584.617188 120.265625 584.949219 120.378906 585.265625 120.535156 C 585.585938 120.691406 585.878906 120.882812 586.152344 121.109375 C 586.421875 121.339844 586.660156 121.597656 586.867188 121.882812 C 587.074219 122.171875 587.246094 122.480469 587.375 122.808594 C 587.507812 123.136719 587.597656 123.480469 587.644531 123.828125 C 587.691406 124.179688 587.695312 124.53125 587.65625 124.886719 C 587.617188 125.238281 587.535156 125.578125 587.410156 125.910156 C 587.289062 126.242188 587.125 126.554688 586.925781 126.847656 L 621.171875 161.09375 L 621.171875 144.617188 L 606.878906 130.328125 C 606.628906 130.585938 606.355469 130.808594 606.054688 130.996094 C 605.75 131.1875 605.429688 131.335938 605.09375 131.449219 C 604.753906 131.558594 604.40625 131.625 604.050781 131.652344 C 603.695312 131.675781 603.339844 131.65625 602.988281 131.59375 C 602.636719 131.53125 602.300781 131.429688 601.972656 131.28125 C 601.648438 131.136719 601.347656 130.953125 601.066406 130.734375 C 600.785156 130.515625 600.535156 130.261719 600.316406 129.980469 C 600.097656 129.699219 599.917969 129.394531 599.773438 129.070312 C 599.628906 128.742188 599.527344 128.402344 599.46875 128.050781 C 599.40625 127.699219 599.390625 127.347656 599.417969 126.992188 C 599.445312 126.636719 599.515625 126.289062 599.628906 125.949219 C 599.738281 125.613281 599.890625 125.292969 600.082031 124.992188 C 600.273438 124.691406 600.5 124.417969 600.757812 124.171875 C 601.015625 123.925781 601.300781 123.714844 601.613281 123.539062 C 601.921875 123.363281 602.25 123.230469 602.59375 123.132812 C 602.9375 123.039062 603.289062 122.988281 603.644531 122.980469 C 604 122.972656 604.351562 123.007812 604.699219 123.085938 C 605.046875 123.164062 605.382812 123.28125 605.699219 123.441406 C 606.019531 123.601562 606.3125 123.800781 606.582031 124.03125 C 606.851562 124.265625 607.089844 124.527344 607.296875 124.820312 C 607.5 125.109375 607.667969 125.421875 607.796875 125.753906 C 607.925781 126.089844 608.011719 126.429688 608.054688 126.785156 C 608.097656 127.140625 608.101562 127.492188 608.054688 127.847656 C 608.011719 128.203125 607.925781 128.542969 607.800781 128.878906 L 622.847656 143.921875 L 622.847656 162.773438 L 649.734375 189.664062 L 649.980469 189.90625 L 649.980469 250.097656 L 652.792969 250.097656 L 652.792969 260.773438 L 660.679688 260.773438 L 660.679688 250.097656 L 663.488281 250.097656 L 663.488281 242.898438 C 663.140625 242.828125 662.808594 242.71875 662.488281 242.566406 C 662.167969 242.414062 661.871094 242.226562 661.597656 242.003906 C 661.324219 241.777344 661.082031 241.523438 660.871094 241.242188 C 660.660156 240.957031 660.484375 240.652344 660.351562 240.324219 C 660.214844 239.996094 660.121094 239.65625 660.070312 239.308594 C 660.015625 238.957031 660.007812 238.605469 660.042969 238.253906 C 660.078125 237.902344 660.15625 237.558594 660.273438 237.226562 C 660.394531 236.894531 660.550781 236.578125 660.746094 236.285156 C 660.945312 235.992188 661.175781 235.726562 661.4375 235.488281 C 661.699219 235.25 661.984375 235.046875 662.296875 234.878906 C 662.609375 234.714844 662.9375 234.585938 663.28125 234.5 C 663.625 234.414062 663.972656 234.371094 664.328125 234.371094 C 664.679688 234.371094 665.027344 234.414062 665.371094 234.5 C 665.714844 234.585938 666.042969 234.714844 666.355469 234.878906 C 666.667969 235.046875 666.953125 235.25 667.214844 235.488281 C 667.480469 235.726562 667.707031 235.992188 667.90625 236.285156 C 668.101562 236.578125 668.257812 236.894531 668.378906 237.226562 C 668.496094 237.558594 668.574219 237.902344 668.609375 238.253906 C 668.644531 238.605469 668.636719 238.957031 668.582031 239.308594 C 668.53125 239.65625 668.4375 239.996094 668.300781 240.324219 C 668.167969 240.652344 667.992188 240.957031 667.78125 241.242188 C 667.570312 241.523438 667.328125 241.777344 667.054688 242.003906 C 666.78125 242.226562 666.484375 242.414062 666.164062 242.566406 C 665.84375 242.71875 665.511719 242.828125 665.164062 242.898438 L 665.164062 250.097656 L 667.980469 250.097656 L 667.980469 260.773438 L 675.863281 260.773438 L 675.863281 250.097656 L 678.675781 250.097656 L 678.675781 214.15625 L 664.023438 199.488281 L 664.023438 157.628906 L 619.046875 112.652344 L 619.046875 55.714844 C 618.664062 55.679688 618.28125 55.621094 617.902344 55.539062 C 617.527344 55.453125 617.15625 55.34375 616.792969 55.214844 C 616.425781 55.082031 616.074219 54.929688 615.730469 54.753906 C 615.382812 54.578125 615.050781 54.378906 614.734375 54.160156 C 614.414062 53.941406 614.109375 53.703125 613.820312 53.445312 C 613.53125 53.1875 613.261719 52.914062 613.003906 52.621094 C 612.75 52.332031 612.515625 52.023438 612.300781 51.703125 C 612.085938 51.378906 611.894531 51.046875 611.71875 50.699219 C 611.546875 50.355469 611.398438 50 611.269531 49.632812 C 611.144531 49.265625 611.039062 48.894531 610.960938 48.515625 C 610.878906 48.136719 610.824219 47.753906 610.792969 47.371094 C 610.761719 46.984375 610.753906 46.597656 610.773438 46.210938 C 610.789062 45.824219 610.832031 45.441406 610.898438 45.058594 C 610.964844 44.679688 611.054688 44.304688 611.171875 43.933594 C 611.285156 43.5625 611.421875 43.203125 611.582031 42.851562 C 611.742188 42.5 611.925781 42.160156 612.128906 41.828125 C 612.332031 41.5 612.554688 41.183594 612.800781 40.886719 C 613.042969 40.585938 613.304688 40.300781 613.585938 40.03125 C 613.863281 39.765625 614.160156 39.515625 614.472656 39.289062 C 614.785156 39.058594 615.109375 38.847656 615.445312 38.660156 C 615.785156 38.472656 616.132812 38.304688 616.492188 38.164062 C 616.851562 38.019531 617.21875 37.898438 617.59375 37.800781 C 617.96875 37.703125 618.347656 37.628906 618.730469 37.582031 C 619.113281 37.53125 619.5 37.507812 619.886719 37.507812 C 620.273438 37.507812 620.660156 37.53125 621.042969 37.582031 C 621.425781 37.628906 621.804688 37.703125 622.179688 37.800781 C 622.554688 37.898438 622.921875 38.019531 623.28125 38.164062 C 623.640625 38.304688 623.988281 38.472656 624.328125 38.660156 C 624.664062 38.847656 624.988281 39.058594 625.300781 39.289062 C 625.613281 39.515625 625.910156 39.765625 626.1875 40.03125 C 626.46875 40.300781 626.730469 40.585938 626.972656 40.886719 C 627.21875 41.183594 627.441406 41.5 627.644531 41.828125 C 627.847656 42.160156 628.03125 42.5 628.191406 42.851562 C 628.351562 43.203125 628.488281 43.5625 628.601562 43.933594 C 628.71875 44.304688 628.808594 44.679688 628.875 45.058594 C 628.941406 45.441406 628.984375 45.824219 629 46.210938 C 629.019531 46.597656 629.011719 46.984375 628.980469 47.371094 C 628.949219 47.753906 628.894531 48.136719 628.8125 48.515625 C 628.734375 48.894531 628.628906 49.265625 628.503906 49.632812 C 628.375 50 628.226562 50.355469 628.054688 50.699219 C 627.878906 51.046875 627.6875 51.378906 627.472656 51.703125 C 627.257812 52.023438 627.023438 52.332031 626.769531 52.621094 C 626.515625 52.914062 626.242188 53.1875 625.953125 53.445312 C 625.664062 53.703125 625.359375 53.941406 625.039062 54.160156 C 624.722656 54.378906 624.390625 54.578125 624.046875 54.753906 C 623.699219 54.929688 623.347656 55.082031 622.980469 55.214844 C 622.617188 55.34375 622.246094 55.453125 621.871094 55.539062 C 621.492188 55.621094 621.109375 55.679688 620.726562 55.714844 L 620.726562 111.957031 L 654.265625 145.507812 L 654.265625 130.71875 L 639.269531 115.722656 C 638.976562 115.917969 638.660156 116.078125 638.328125 116.195312 C 637.996094 116.316406 637.652344 116.394531 637.300781 116.425781 C 636.949219 116.460938 636.597656 116.453125 636.246094 116.402344 C 635.894531 116.351562 635.558594 116.257812 635.230469 116.121094 C 634.902344 115.984375 634.597656 115.8125 634.3125 115.601562 C 634.027344 115.390625 633.773438 115.148438 633.550781 114.875 C 633.324219 114.601562 633.136719 114.304688 632.984375 113.984375 C 632.832031 113.664062 632.722656 113.332031 632.652344 112.984375 C 632.585938 112.636719 632.558594 112.285156 632.578125 111.933594 C 632.59375 111.578125 632.652344 111.230469 632.757812 110.894531 C 632.859375 110.554688 633 110.234375 633.183594 109.929688 C 633.367188 109.625 633.582031 109.347656 633.832031 109.097656 C 634.082031 108.847656 634.359375 108.632812 634.664062 108.449219 C 634.96875 108.269531 635.289062 108.125 635.628906 108.023438 C 635.964844 107.921875 636.3125 107.859375 636.664062 107.84375 C 637.019531 107.824219 637.371094 107.851562 637.71875 107.921875 C 638.0625 107.988281 638.398438 108.101562 638.71875 108.25 C 639.039062 108.402344 639.335938 108.589844 639.609375 108.816406 C 639.882812 109.039062 640.125 109.292969 640.335938 109.578125 C 640.546875 109.863281 640.71875 110.167969 640.855469 110.496094 C 640.988281 110.824219 641.082031 111.160156 641.136719 111.511719 C 641.1875 111.863281 641.195312 112.214844 641.160156 112.566406 C 641.125 112.917969 641.050781 113.261719 640.929688 113.59375 C 640.8125 113.929688 640.652344 114.242188 640.457031 114.535156 L 655.941406 130.023438 L 655.941406 147.183594 L 665.445312 156.695312 L 665.691406 156.941406 L 665.691406 198.808594 L 680.351562 213.46875 L 680.351562 250.105469 L 683.164062 250.105469 L 683.164062 260.78125 L 691.050781 260.78125 L 691.050781 249.121094 L 693.863281 249.121094 L 693.863281 201.582031 L 714.828125 180.617188 L 714.828125 171.097656 L 699.179688 155.445312 L 699.179688 121.71875 L 695.007812 121.71875 L 695.007812 102.558594 L 705.027344 102.558594 L 705.027344 121.71875 L 700.855469 121.71875 L 700.855469 154.742188 L 714.828125 168.714844 L 714.828125 145.269531 L 710.785156 145.269531 L 710.785156 126.117188 L 720.804688 126.117188 L 720.804688 145.269531 L 716.519531 145.269531 L 716.519531 181.300781 L 695.558594 202.265625 L 695.558594 249.113281 L 698.371094 249.113281 L 698.371094 260.773438 L 704.851562 260.773438 L 704.851562 249.113281 L 707.667969 249.113281 L 707.667969 213.238281 L 740.132812 180.773438 L 740.132812 154.773438 C 739.785156 154.703125 739.449219 154.59375 739.128906 154.441406 C 738.8125 154.292969 738.515625 154.101562 738.242188 153.878906 C 737.964844 153.65625 737.722656 153.398438 737.511719 153.117188 C 737.300781 152.832031 737.128906 152.527344 736.992188 152.199219 C 736.859375 151.871094 736.765625 151.535156 736.710938 151.183594 C 736.660156 150.832031 736.652344 150.484375 736.6875 150.128906 C 736.722656 149.777344 736.796875 149.433594 736.917969 149.101562 C 737.035156 148.769531 737.195312 148.457031 737.390625 148.160156 C 737.585938 147.867188 737.816406 147.601562 738.078125 147.363281 C 738.339844 147.125 738.628906 146.921875 738.941406 146.757812 C 739.253906 146.589844 739.582031 146.464844 739.921875 146.378906 C 740.265625 146.292969 740.617188 146.25 740.96875 146.25 C 741.324219 146.25 741.671875 146.292969 742.015625 146.378906 C 742.359375 146.464844 742.6875 146.589844 743 146.757812 C 743.308594 146.921875 743.597656 147.125 743.859375 147.363281 C 744.121094 147.601562 744.351562 147.867188 744.546875 148.160156 C 744.746094 148.457031 744.902344 148.769531 745.023438 149.101562 C 745.140625 149.433594 745.21875 149.777344 745.253906 150.128906 C 745.285156 150.484375 745.277344 150.832031 745.226562 151.183594 C 745.175781 151.535156 745.082031 151.871094 744.945312 152.199219 C 744.808594 152.527344 744.636719 152.832031 744.425781 153.117188 C 744.214844 153.398438 743.972656 153.65625 743.699219 153.878906 C 743.425781 154.101562 743.128906 154.292969 742.808594 154.441406 C 742.488281 154.59375 742.15625 154.703125 741.808594 154.773438 L 741.808594 181.464844 L 709.339844 213.9375 L 709.339844 249.121094 L 712.148438 249.121094 L 712.148438 260.777344 L 718.269531 260.777344 L 718.269531 266.796875 L 613.535156 266.796875 Z M 623.886719 46.640625 C 623.886719 46.378906 623.863281 46.121094 623.808594 45.863281 C 623.757812 45.605469 623.683594 45.359375 623.582031 45.117188 C 623.480469 44.875 623.355469 44.644531 623.210938 44.425781 C 623.066406 44.210938 622.898438 44.007812 622.714844 43.824219 C 622.527344 43.636719 622.324219 43.472656 622.109375 43.328125 C 621.890625 43.183594 621.660156 43.0625 621.417969 42.960938 C 621.175781 42.859375 620.925781 42.785156 620.667969 42.734375 C 620.410156 42.683594 620.152344 42.660156 619.890625 42.660156 C 619.628906 42.660156 619.367188 42.6875 619.113281 42.738281 C 618.855469 42.789062 618.605469 42.867188 618.363281 42.964844 C 618.121094 43.066406 617.890625 43.191406 617.675781 43.335938 C 617.457031 43.480469 617.253906 43.648438 617.070312 43.832031 C 616.886719 44.019531 616.71875 44.21875 616.574219 44.4375 C 616.429688 44.65625 616.308594 44.886719 616.207031 45.128906 C 616.105469 45.371094 616.03125 45.621094 615.980469 45.875 C 615.929688 46.132812 615.90625 46.394531 615.90625 46.65625 C 615.90625 46.917969 615.929688 47.175781 615.980469 47.433594 C 616.03125 47.691406 616.109375 47.941406 616.210938 48.179688 C 616.308594 48.421875 616.433594 48.652344 616.578125 48.871094 C 616.722656 49.089844 616.890625 49.289062 617.074219 49.476562 C 617.261719 49.660156 617.460938 49.824219 617.679688 49.972656 C 617.898438 50.117188 618.128906 50.238281 618.371094 50.339844 C 618.613281 50.441406 618.859375 50.515625 619.117188 50.566406 C 619.375 50.617188 619.632812 50.644531 619.894531 50.644531 C 620.425781 50.640625 620.933594 50.539062 621.425781 50.335938 C 621.914062 50.132812 622.34375 49.84375 622.71875 49.46875 C 623.09375 49.09375 623.378906 48.660156 623.582031 48.171875 C 623.785156 47.679688 623.886719 47.171875 623.886719 46.640625 Z M 623.886719 46.640625 " fill-opacity="1" fill-rule="nonzero"/></g><path fill="#ffffff" d="M 533.164062 172.523438 L 429.460938 172.523438 C 427.46875 172.523438 426.507812 174.941406 427.898438 176.332031 C 441.039062 189.515625 460.0625 197.816406 481.3125 197.816406 C 502.542969 197.816406 521.585938 189.492188 534.726562 176.332031 C 536.140625 174.941406 535.15625 172.523438 533.164062 172.523438 Z M 533.164062 172.523438 " fill-opacity="1" fill-rule="nonzero"/><g clip-path="url(#d37ed4d3e5)"><path fill="#ffffff" d="M 435.601562 167.902344 L 479.792969 79.582031 L 481.3125 169.183594 L 482.832031 79.625 L 527.042969 167.902344 L 481.871094 71.257812 L 508.554688 70.425781 C 508.703125 73.742188 511.402344 76.351562 514.738281 76.351562 C 518.164062 76.351562 520.96875 73.589844 520.96875 70.125 C 520.96875 66.699219 518.164062 63.898438 514.738281 63.898438 C 511.421875 63.898438 508.726562 66.550781 508.554688 69.867188 L 422.570312 67.171875 L 382.789062 49.003906 L 382.765625 49.003906 L 374.890625 14.097656 L 367.015625 49.003906 L 327.234375 67.171875 L 241.25 69.867188 C 241.035156 66.550781 238.402344 63.898438 235.0625 63.898438 C 231.640625 63.898438 228.835938 66.699219 228.835938 70.125 C 228.835938 73.613281 231.640625 76.351562 235.0625 76.351562 C 238.378906 76.351562 241.035156 73.761719 241.25 70.425781 L 267.890625 71.257812 L 222.757812 167.902344 L 266.929688 79.605469 L 268.449219 169.183594 L 269.96875 79.605469 L 314.199219 167.902344 L 269.066406 71.324219 L 327.855469 73.097656 C 328.261719 73.097656 328.6875 73.054688 329.050781 72.886719 L 329.09375 72.84375 L 366.996094 55.507812 L 374.890625 255.746094 L 382.789062 55.507812 L 420.644531 72.84375 L 420.75 72.886719 C 421.113281 73.035156 421.480469 73.097656 421.949219 73.097656 L 480.734375 71.324219 Z M 435.601562 167.902344 " fill-opacity="1" fill-rule="nonzero"/></g><path fill="#ffffff" d="M 320.320312 172.523438 L 216.617188 172.523438 C 214.625 172.523438 213.664062 174.941406 215.054688 176.332031 C 228.195312 189.515625 247.21875 197.816406 268.46875 197.816406 C 289.699219 197.816406 308.742188 189.492188 321.882812 176.332031 C 323.273438 174.941406 322.3125 172.523438 320.320312 172.523438 Z M 320.320312 172.523438 " fill-opacity="1" fill-rule="nonzero"/><g fill="#00ff41" fill-opacity="1"><g transform="translate(4.472944, 345.223458)"><g><path d="M 36.546875 1.90625 C 29.171875 1.90625 22.957031 0.34375 17.90625 -2.78125 C 12.851562 -5.90625 9.023438 -10.507812 6.421875 -16.59375 C 3.828125 -22.675781 2.53125 -30.171875 2.53125 -39.078125 C 2.53125 -45.703125 3.453125 -51.546875 5.296875 -56.609375 C 7.148438 -61.679688 9.722656 -65.929688 13.015625 -69.359375 C 16.316406 -72.785156 20.15625 -75.378906 24.53125 -77.140625 C 28.914062 -78.898438 33.632812 -79.78125 38.6875 -79.78125 C 44.375 -79.78125 49.160156 -78.898438 53.046875 -77.140625 C 56.941406 -75.378906 60.40625 -73.054688 63.4375 -70.171875 L 53.78125 -60.1875 C 51.425781 -62.28125 49.160156 -63.832031 46.984375 -64.84375 C 44.816406 -65.851562 42.347656 -66.359375 39.578125 -66.359375 C 36.960938 -66.359375 34.554688 -65.84375 32.359375 -64.8125 C 30.171875 -63.78125 28.265625 -62.171875 26.640625 -59.984375 C 25.015625 -57.796875 23.75 -54.96875 22.84375 -51.5 C 21.945312 -48.039062 21.5 -43.863281 21.5 -38.96875 C 21.5 -32.1875 22.050781 -26.789062 23.15625 -22.78125 C 24.257812 -18.78125 25.929688 -15.910156 28.171875 -14.171875 C 30.421875 -12.429688 33.269531 -11.5625 36.71875 -11.5625 C 38.550781 -11.5625 40.269531 -11.773438 41.875 -12.203125 C 43.488281 -12.640625 44.988281 -13.210938 46.375 -13.921875 L 46.375 -31.71875 L 36.609375 -31.71875 L 34.8125 -44.625 L 63.78125 -44.625 L 63.78125 -5.953125 C 59.882812 -3.554688 55.695312 -1.644531 51.21875 -0.21875 C 46.75 1.195312 41.859375 1.90625 36.546875 1.90625 Z M 36.546875 1.90625 "/></g></g></g><g fill="#00ff41" fill-opacity="1"><g transform="translate(71.838788, 345.223458)"><g><path d="M 8.421875 0 L 8.421875 -11.90625 L 16.28125 -11.90625 L 16.28125 -47.828125 L 8.421875 -47.828125 L 8.421875 -59.625 L 29.8125 -59.625 L 33.0625 -46.203125 C 35.195312 -51.328125 37.921875 -55.144531 41.234375 -57.65625 C 44.546875 -60.164062 48.597656 -61.421875 53.390625 -61.421875 C 55.410156 -61.421875 57.207031 -61.257812 58.78125 -60.9375 C 60.351562 -60.625 61.832031 -60.1875 63.21875 -59.625 L 57.828125 -44.96875 C 56.742188 -45.269531 55.65625 -45.492188 54.5625 -45.640625 C 53.476562 -45.785156 52.28125 -45.859375 50.96875 -45.859375 C 47.082031 -45.859375 43.671875 -44.269531 40.734375 -41.09375 C 37.796875 -37.914062 35.554688 -33.875 34.015625 -28.96875 L 34.015625 -11.90625 L 45.8125 -11.90625 L 45.8125 0 Z M 48.78125 -34.6875 L 48.78125 -52.09375 L 51.421875 -59.625 L 63.21875 -59.625 L 59.90625 -34.6875 Z M 48.78125 -34.6875 "/></g></g></g><g fill="#00ff41" fill-opacity="1"><g transform="translate(139.204632, 345.223458)"><g><path d="M 23.25 -24.640625 C 23.65625 -21.390625 24.503906 -18.757812 25.796875 -16.75 C 27.085938 -14.75 28.742188 -13.289062 30.765625 -12.375 C 32.785156 -11.457031 35.050781 -11 37.5625 -11 C 40.289062 -11 42.925781 -11.445312 45.46875 -12.34375 C 48.019531 -13.25 50.472656 -14.445312 52.828125 -15.9375 L 59.953125 -6.28125 C 57.148438 -3.882812 53.753906 -1.921875 49.765625 -0.390625 C 45.785156 1.140625 41.25 1.90625 36.15625 1.90625 C 29.34375 1.90625 23.632812 0.550781 19.03125 -2.15625 C 14.425781 -4.875 10.960938 -8.609375 8.640625 -13.359375 C 6.328125 -18.109375 5.171875 -23.570312 5.171875 -29.75 C 5.171875 -35.625 6.289062 -40.96875 8.53125 -45.78125 C 10.78125 -50.59375 14.066406 -54.429688 18.390625 -57.296875 C 22.710938 -60.160156 28 -61.59375 34.25 -61.59375 C 39.9375 -61.59375 44.863281 -60.375 49.03125 -57.9375 C 53.207031 -55.5 56.445312 -52 58.75 -47.4375 C 61.050781 -42.875 62.203125 -37.390625 62.203125 -30.984375 C 62.203125 -29.972656 62.171875 -28.890625 62.109375 -27.734375 C 62.054688 -26.578125 61.972656 -25.546875 61.859375 -24.640625 Z M 34.25 -49.6875 C 31.0625 -49.6875 28.492188 -48.539062 26.546875 -46.25 C 24.609375 -43.96875 23.429688 -40.320312 23.015625 -35.3125 L 44.90625 -35.3125 C 44.875 -39.65625 44.035156 -43.132812 42.390625 -45.75 C 40.742188 -48.375 38.03125 -49.6875 34.25 -49.6875 Z M 34.25 -49.6875 "/></g></g></g><g fill="#00ff41" fill-opacity="1"><g transform="translate(206.570476, 345.223458)"><g><path d="M 23.25 -24.640625 C 23.65625 -21.390625 24.503906 -18.757812 25.796875 -16.75 C 27.085938 -14.75 28.742188 -13.289062 30.765625 -12.375 C 32.785156 -11.457031 35.050781 -11 37.5625 -11 C 40.289062 -11 42.925781 -11.445312 45.46875 -12.34375 C 48.019531 -13.25 50.472656 -14.445312 52.828125 -15.9375 L 59.953125 -6.28125 C 57.148438 -3.882812 53.753906 -1.921875 49.765625 -0.390625 C 45.785156 1.140625 41.25 1.90625 36.15625 1.90625 C 29.34375 1.90625 23.632812 0.550781 19.03125 -2.15625 C 14.425781 -4.875 10.960938 -8.609375 8.640625 -13.359375 C 6.328125 -18.109375 5.171875 -23.570312 5.171875 -29.75 C 5.171875 -35.625 6.289062 -40.96875 8.53125 -45.78125 C 10.78125 -50.59375 14.066406 -54.429688 18.390625 -57.296875 C 22.710938 -60.160156 28 -61.59375 34.25 -61.59375 C 39.9375 -61.59375 44.863281 -60.375 49.03125 -57.9375 C 53.207031 -55.5 56.445312 -52 58.75 -47.4375 C 61.050781 -42.875 62.203125 -37.390625 62.203125 -30.984375 C 62.203125 -29.972656 62.171875 -28.890625 62.109375 -27.734375 C 62.054688 -26.578125 61.972656 -25.546875 61.859375 -24.640625 Z M 34.25 -49.6875 C 31.0625 -49.6875 28.492188 -48.539062 26.546875 -46.25 C 24.609375 -43.96875 23.429688 -40.320312 23.015625 -35.3125 L 44.90625 -35.3125 C 44.875 -39.65625 44.035156 -43.132812 42.390625 -45.75 C 40.742188 -48.375 38.03125 -49.6875 34.25 -49.6875 Z M 34.25 -49.6875 "/></g></g></g><g fill="#00ff41" fill-opacity="1"><g transform="translate(273.93632, 345.223458)"><g><path d="M 7.859375 0 L 7.859375 -59.625 L 23.359375 -59.625 L 24.59375 -52.71875 C 27.25 -55.707031 30.054688 -57.929688 33.015625 -59.390625 C 35.972656 -60.859375 39.335938 -61.59375 43.109375 -61.59375 C 48.203125 -61.59375 52.207031 -60.035156 55.125 -56.921875 C 58.050781 -53.816406 59.515625 -49.441406 59.515625 -43.796875 L 59.515625 0 L 41.765625 0 L 41.765625 -38.6875 C 41.765625 -41.113281 41.597656 -43.046875 41.265625 -44.484375 C 40.929688 -45.929688 40.34375 -46.960938 39.5 -47.578125 C 38.65625 -48.191406 37.503906 -48.5 36.046875 -48.5 C 34.804688 -48.5 33.597656 -48.226562 32.421875 -47.6875 C 31.242188 -47.144531 30.09375 -46.367188 28.96875 -45.359375 C 27.84375 -44.347656 26.71875 -43.132812 25.59375 -41.71875 L 25.59375 0 Z M 7.859375 0 "/></g></g></g><g fill="#ffffff" fill-opacity="1"><g transform="translate(341.302662, 345.223458)"><g><path d="M 63.046875 -54.171875 C 63.046875 -50.472656 62.351562 -47.238281 60.96875 -44.46875 C 59.582031 -41.695312 57.707031 -39.351562 55.34375 -37.4375 C 52.988281 -35.53125 50.351562 -34 47.4375 -32.84375 L 67.8125 0 L 46.984375 0 L 30.140625 -29.75 L 24.921875 -29.75 L 24.921875 0 L 6.515625 0 L 6.515625 -77.8125 L 30.984375 -77.8125 C 41.578125 -77.8125 49.566406 -75.882812 54.953125 -72.03125 C 60.347656 -68.175781 63.046875 -62.222656 63.046875 -54.171875 Z M 44.078125 -54.171875 C 44.078125 -57.921875 42.976562 -60.644531 40.78125 -62.34375 C 38.59375 -64.050781 35.347656 -64.90625 31.046875 -64.90625 L 24.921875 -64.90625 L 24.921875 -42.390625 L 31.78125 -42.390625 C 35.78125 -42.390625 38.828125 -43.320312 40.921875 -45.1875 C 43.023438 -47.0625 44.078125 -50.054688 44.078125 -54.171875 Z M 44.078125 -54.171875 "/></g></g></g><g fill="#ffffff" fill-opacity="1"><g transform="translate(408.668506, 345.223458)"><g><path d="M 23.25 -24.640625 C 23.65625 -21.390625 24.503906 -18.757812 25.796875 -16.75 C 27.085938 -14.75 28.742188 -13.289062 30.765625 -12.375 C 32.785156 -11.457031 35.050781 -11 37.5625 -11 C 40.289062 -11 42.925781 -11.445312 45.46875 -12.34375 C 48.019531 -13.25 50.472656 -14.445312 52.828125 -15.9375 L 59.953125 -6.28125 C 57.148438 -3.882812 53.753906 -1.921875 49.765625 -0.390625 C 45.785156 1.140625 41.25 1.90625 36.15625 1.90625 C 29.34375 1.90625 23.632812 0.550781 19.03125 -2.15625 C 14.425781 -4.875 10.960938 -8.609375 8.640625 -13.359375 C 6.328125 -18.109375 5.171875 -23.570312 5.171875 -29.75 C 5.171875 -35.625 6.289062 -40.96875 8.53125 -45.78125 C 10.78125 -50.59375 14.066406 -54.429688 18.390625 -57.296875 C 22.710938 -60.160156 28 -61.59375 34.25 -61.59375 C 39.9375 -61.59375 44.863281 -60.375 49.03125 -57.9375 C 53.207031 -55.5 56.445312 -52 58.75 -47.4375 C 61.050781 -42.875 62.203125 -37.390625 62.203125 -30.984375 C 62.203125 -29.972656 62.171875 -28.890625 62.109375 -27.734375 C 62.054688 -26.578125 61.972656 -25.546875 61.859375 -24.640625 Z M 34.25 -49.6875 C 31.0625 -49.6875 28.492188 -48.539062 26.546875 -46.25 C 24.609375 -43.96875 23.429688 -40.320312 23.015625 -35.3125 L 44.90625 -35.3125 C 44.875 -39.65625 44.035156 -43.132812 42.390625 -45.75 C 40.742188 -48.375 38.03125 -49.6875 34.25 -49.6875 Z M 34.25 -49.6875 "/></g></g></g><g fill="#ffffff" fill-opacity="1"><g transform="translate(476.03435, 345.223458)"><g><path d="M 60.796875 -69.171875 L 64.953125 -56.140625 C 62.859375 -55.316406 60.40625 -54.71875 57.59375 -54.34375 C 54.789062 -53.96875 51.519531 -53.78125 47.78125 -53.78125 C 51.519531 -52.175781 54.367188 -50.179688 56.328125 -47.796875 C 58.296875 -45.421875 59.28125 -42.304688 59.28125 -38.453125 C 59.28125 -34.597656 58.25 -31.164062 56.1875 -28.15625 C 54.132812 -25.144531 51.21875 -22.773438 47.4375 -21.046875 C 43.65625 -19.328125 39.179688 -18.46875 34.015625 -18.46875 C 32.742188 -18.46875 31.546875 -18.523438 30.421875 -18.640625 C 29.304688 -18.753906 28.203125 -18.921875 27.109375 -19.140625 C 26.472656 -18.804688 25.988281 -18.320312 25.65625 -17.6875 C 25.320312 -17.050781 25.15625 -16.394531 25.15625 -15.71875 C 25.15625 -14.78125 25.535156 -13.9375 26.296875 -13.1875 C 27.066406 -12.4375 28.875 -12.0625 31.71875 -12.0625 L 41.484375 -12.0625 C 46.128906 -12.0625 50.144531 -11.3125 53.53125 -9.8125 C 56.914062 -8.320312 59.539062 -6.285156 61.40625 -3.703125 C 63.28125 -1.117188 64.21875 1.835938 64.21875 5.171875 C 64.21875 11.265625 61.539062 16.070312 56.1875 19.59375 C 50.84375 23.113281 42.894531 24.875 32.34375 24.875 C 24.707031 24.875 18.800781 24.09375 14.625 22.53125 C 10.445312 20.976562 7.546875 18.769531 5.921875 15.90625 C 4.296875 13.050781 3.484375 9.65625 3.484375 5.71875 L 19.203125 5.71875 C 19.203125 7.445312 19.546875 8.863281 20.234375 9.96875 C 20.929688 11.070312 22.257812 11.882812 24.21875 12.40625 C 26.1875 12.925781 29.039062 13.1875 32.78125 13.1875 C 36.5625 13.1875 39.441406 12.882812 41.421875 12.28125 C 43.410156 11.6875 44.769531 10.875 45.5 9.84375 C 46.226562 8.820312 46.59375 7.675781 46.59375 6.40625 C 46.59375 4.644531 45.898438 3.21875 44.515625 2.125 C 43.128906 1.039062 40.941406 0.5 37.953125 0.5 L 28.46875 0.5 C 22.03125 0.5 17.347656 -0.6875 14.421875 -3.0625 C 11.503906 -5.4375 10.046875 -8.210938 10.046875 -11.390625 C 10.046875 -13.597656 10.632812 -15.691406 11.8125 -17.671875 C 13 -19.660156 14.65625 -21.332031 16.78125 -22.6875 C 12.96875 -24.707031 10.238281 -27.09375 8.59375 -29.84375 C 6.945312 -32.59375 6.125 -35.894531 6.125 -39.75 C 6.125 -44.238281 7.265625 -48.101562 9.546875 -51.34375 C 11.828125 -54.582031 14.976562 -57.078125 19 -58.828125 C 23.019531 -60.585938 27.613281 -61.46875 32.78125 -61.46875 C 37.238281 -61.394531 41.113281 -61.703125 44.40625 -62.390625 C 47.695312 -63.085938 50.648438 -64.046875 53.265625 -65.265625 C 55.890625 -66.484375 58.398438 -67.785156 60.796875 -69.171875 Z M 33.234375 -49.96875 C 30.429688 -49.96875 28.203125 -49.078125 26.546875 -47.296875 C 24.898438 -45.515625 24.078125 -43.070312 24.078125 -39.96875 C 24.078125 -36.675781 24.921875 -34.148438 26.609375 -32.390625 C 28.296875 -30.628906 30.503906 -29.75 33.234375 -29.75 C 36.191406 -29.75 38.445312 -30.628906 40 -32.390625 C 41.550781 -34.148438 42.328125 -36.753906 42.328125 -40.203125 C 42.328125 -43.523438 41.554688 -45.984375 40.015625 -47.578125 C 38.484375 -49.171875 36.222656 -49.96875 33.234375 -49.96875 Z M 33.234375 -49.96875 "/></g></g></g><g fill="#ffffff" fill-opacity="1"><g transform="translate(543.400194, 345.223458)"><g><path d="M 25.59375 -59.625 L 25.59375 -18.8125 C 25.59375 -15.925781 26.125 -13.941406 27.1875 -12.859375 C 28.257812 -11.773438 29.75 -11.234375 31.65625 -11.234375 C 33.5 -11.234375 35.335938 -11.8125 37.171875 -12.96875 C 39.003906 -14.125 40.535156 -15.695312 41.765625 -17.6875 L 41.765625 -59.625 L 59.515625 -59.625 L 59.515625 0 L 44.015625 0 L 43.234375 -6.96875 C 41.210938 -4.039062 38.550781 -1.828125 35.25 -0.328125 C 31.957031 1.160156 28.515625 1.90625 24.921875 1.90625 C 19.160156 1.90625 14.875 0.234375 12.0625 -3.109375 C 9.257812 -6.460938 7.859375 -10.96875 7.859375 -16.625 L 7.859375 -59.625 Z M 25.59375 -59.625 "/></g></g></g><g fill="#00b4d8" fill-opacity="1"><g transform="translate(610.78557, 345.223458)"><g><path d="M 44.90625 -16.78125 L 22.125 -16.78125 L 18.015625 0 L -1.234375 0 L 22.5625 -77.8125 L 44.90625 -77.8125 L 68.71875 0 L 49.015625 0 Z M 25.03125 -30.140625 L 41.875 -30.140625 L 33.453125 -64.5625 Z M 25.03125 -30.140625 "/></g></g></g><g fill="#00b4d8" fill-opacity="1"><g transform="translate(678.151414, 345.223458)"><g><path d="M 58.953125 -77.8125 L 58.953125 -64.34375 L 42.890625 -64.34375 L 42.890625 -13.53125 L 58.953125 -13.53125 L 58.953125 0 L 8.421875 0 L 8.421875 -13.53125 L 24.484375 -13.53125 L 24.484375 -64.34375 L 8.421875 -64.34375 L 8.421875 -77.8125 Z M 58.953125 -77.8125 "/></g></g></g></svg>