<svg xmlns="http://www.w3.org/2000/svg" xmlns:xlink="http://www.w3.org/1999/xlink" width="500" zoomAndPan="magnify" viewBox="0 0 375 374.999991" height="500" preserveAspectRatio="xMidYMid meet" version="1.0"><defs><g/><clipPath id="4561658dcd"><path d="M 187.5 0 C 83.945312 0 0 83.945312 0 187.5 C 0 291.054688 83.945312 375 187.5 375 C 291.054688 375 375 291.054688 375 187.5 C 375 83.945312 291.054688 0 187.5 0 Z M 187.5 0 " clip-rule="nonzero"/></clipPath><clipPath id="0d3ebf1849"><path d="M 73.597656 160.5 L 187.597656 160.5 L 187.597656 372.75 L 73.597656 372.75 Z M 73.597656 160.5 " clip-rule="nonzero"/></clipPath><clipPath id="39a9112b0b"><path d="M 187.382812 171.546875 L 306.632812 171.546875 L 306.632812 269 L 187.382812 269 Z M 187.382812 171.546875 " clip-rule="nonzero"/></clipPath><clipPath id="b27041ed1c"><path d="M 187.675781 195.269531 L 362.425781 195.269531 L 362.425781 338.332031 L 187.675781 338.332031 Z M 187.675781 195.269531 " clip-rule="nonzero"/></clipPath><clipPath id="6c21393fe8"><path d="M 66 7.238281 L 309 7.238281 L 309 199.988281 L 66 199.988281 Z M 66 7.238281 " clip-rule="nonzero"/></clipPath></defs><g clip-path="url(#4561658dcd)"><rect x="-37.5" width="450" fill="#0a2f2f" y="-37.499999" height="449.999989" fill-opacity="1"/></g><g clip-path="url(#0d3ebf1849)"><path fill="#000000" d="M 234.105469 304.171875 C 231.664062 304.054688 228.933594 303.839844 225.761719 303.585938 C 224.273438 303.464844 222.707031 303.339844 221.054688 303.21875 C 220.835938 303.195312 220.644531 303.332031 220.578125 303.535156 C 220.511719 303.738281 220.597656 303.960938 220.78125 304.078125 C 224.492188 306.332031 227.394531 308.058594 229.625 309.378906 C 231.996094 310.785156 233.75 311.828125 234.738281 312.484375 C 234.132812 312.28125 233.214844 311.921875 231.828125 311.3125 C 230.667969 310.832031 229.316406 310.117188 227.605469 309.207031 L 225.957031 308.332031 C 223.335938 306.835938 220.460938 305.160156 217.414062 303.347656 C 217.40625 303.289062 217.398438 303.238281 217.371094 303.195312 C 217.300781 303.050781 217.15625 302.949219 216.988281 302.945312 C 215.515625 302.851562 213.992188 302.757812 212.410156 302.667969 C 206.777344 302.378906 201.972656 302.417969 197.300781 302.792969 C 196.101562 302.898438 194.804688 303.042969 193.421875 303.234375 C 193.292969 303.253906 193.183594 303.320312 193.113281 303.421875 C 193.035156 303.519531 193.003906 303.652344 193.027344 303.773438 C 193.359375 305.515625 194.066406 307.175781 195.140625 308.714844 C 196.074219 310.042969 197.214844 311.285156 198.636719 312.5 C 200.632812 314.238281 202.464844 315.421875 203.929688 316.375 L 204.683594 316.859375 C 205.644531 317.460938 206.8125 318.191406 207.65625 318.761719 C 206.964844 318.5 205.933594 318.058594 204.421875 317.316406 C 202.890625 316.527344 200.585938 315.335938 198.007812 313.242188 C 196.464844 311.992188 195.273438 310.757812 194.253906 309.355469 C 193.046875 307.667969 192.261719 305.832031 191.914062 303.910156 C 191.871094 303.660156 191.648438 303.492188 191.386719 303.535156 C 188.3125 304.0625 185.472656 304.777344 182.777344 305.710938 C 181.3125 305.566406 179.824219 305.59375 178.503906 306.34375 C 177.816406 306.734375 177.261719 307.277344 176.84375 307.90625 C 176.277344 307.609375 175.695312 307.429688 175.101562 307.355469 C 175.085938 307.25 175.050781 307.148438 174.972656 307.074219 C 174.863281 306.964844 174.699219 306.921875 174.554688 306.960938 C 170.921875 307.796875 167.757812 309.550781 165.410156 310.996094 C 164.609375 311.488281 163.828125 311.992188 163.078125 312.492188 C 162.933594 312.578125 162.855469 312.738281 162.867188 312.902344 L 162.882812 313.175781 C 162.917969 313.792969 162.953125 314.367188 162.925781 314.875 C 162.882812 315.179688 162.855469 315.472656 162.816406 315.761719 C 162.761719 316.332031 162.703125 316.867188 162.578125 317.359375 L 162.390625 318.082031 C 162.261719 318.585938 162.132812 319.085938 161.996094 319.527344 C 161.734375 320.199219 161.496094 320.832031 161.285156 321.425781 C 160.355469 323.628906 159.496094 325.253906 158.800781 326.554688 L 158.6875 326.769531 C 158.347656 327.40625 157.777344 328.464844 157.320312 329.210938 C 157.460938 328.648438 157.71875 327.800781 158.210938 326.554688 C 158.433594 325.976562 158.695312 325.339844 158.976562 324.632812 C 159.394531 323.605469 159.871094 322.4375 160.371094 321.078125 C 161.105469 319.054688 161.785156 316.824219 161.808594 314.21875 C 161.8125 314.042969 161.710938 313.886719 161.570312 313.804688 C 161.410156 313.726562 161.230469 313.742188 161.085938 313.835938 L 159.863281 314.664062 C 158.671875 315.488281 157.515625 316.28125 156.390625 317.027344 C 153.207031 319.128906 150.785156 320.492188 148.546875 321.445312 C 147.484375 321.945312 146.488281 322.226562 145.527344 322.492188 L 145.058594 322.625 C 143.945312 322.933594 142.929688 323.222656 141.96875 323.484375 L 141.484375 323.621094 C 140.71875 323.832031 140.011719 324.019531 139.355469 324.175781 L 138.21875 324.394531 C 137.824219 324.464844 137.453125 324.539062 137.121094 324.609375 C 135.65625 324.871094 134.609375 325.035156 133.816406 325.121094 C 132.925781 325.230469 132.398438 325.253906 132.082031 325.238281 C 132.347656 325.074219 132.824219 324.820312 133.648438 324.464844 C 134.488281 324.105469 135.527344 323.707031 136.734375 323.289062 C 137.375 323.070312 138.089844 322.828125 138.878906 322.542969 L 141.367188 321.597656 C 142.191406 321.289062 143.074219 320.96875 144.011719 320.625 L 144.886719 320.304688 C 145.78125 319.980469 146.707031 319.65625 147.558594 319.1875 L 147.949219 318.960938 C 148.101562 318.875 148.195312 318.710938 148.1875 318.527344 C 148.171875 318.355469 148.0625 318.195312 147.898438 318.132812 C 144.128906 316.609375 140.675781 315.800781 137.902344 315.140625 C 135.402344 314.585938 133.289062 314.152344 131.527344 313.796875 L 129.726562 313.4375 C 127.871094 313.046875 126.660156 312.757812 125.855469 312.535156 C 126.679688 312.585938 127.929688 312.6875 129.808594 312.910156 C 132.507812 313.226562 135.222656 313.652344 138.105469 314.203125 C 140.90625 314.773438 145.140625 315.648438 149.789062 317.714844 C 149.925781 317.769531 150.085938 317.761719 150.214844 317.683594 C 151.660156 316.808594 153.191406 315.792969 154.765625 314.65625 C 155.617188 314.066406 156.5 313.429688 157.414062 312.765625 C 159.285156 311.40625 161.410156 309.871094 163.765625 308.359375 C 165.488281 307.292969 167.359375 306.171875 169.546875 305.253906 C 170.753906 304.75 171.996094 304.324219 173.246094 303.992188 C 173.398438 303.949219 173.519531 303.824219 173.570312 303.671875 C 173.613281 303.515625 173.578125 303.347656 173.460938 303.226562 C 169.75 299.1875 165.042969 295.628906 159.085938 292.339844 C 158.203125 291.851562 157.308594 291.382812 156.425781 290.941406 C 156.316406 290.882812 156.1875 290.875 156.066406 290.917969 C 152.207031 292.292969 148.929688 293.859375 146.035156 295.238281 C 144.699219 295.878906 143.433594 296.480469 142.226562 297.015625 C 138.328125 298.761719 135.308594 299.839844 133.027344 300.316406 C 132.636719 300.394531 132.277344 300.472656 131.9375 300.554688 C 131.1875 300.71875 130.535156 300.871094 129.953125 300.894531 C 129.375 300.941406 128.875 300.972656 128.441406 301 C 128.855469 300.898438 129.324219 300.796875 129.863281 300.691406 C 130.378906 300.597656 130.933594 300.414062 131.519531 300.226562 C 131.929688 300.089844 132.371094 299.945312 132.863281 299.816406 C 135.042969 299.179688 137.808594 298.046875 141.824219 296.140625 C 142.792969 295.683594 143.808594 295.179688 144.886719 294.636719 C 147.472656 293.351562 150.394531 291.878906 153.863281 290.542969 C 154.035156 290.472656 154.152344 290.3125 154.160156 290.125 C 154.167969 289.945312 154.058594 289.769531 153.890625 289.691406 C 149.203125 287.460938 144.769531 285.753906 140.480469 284.101562 C 140.472656 284.101562 140.363281 284.058594 140.359375 284.058594 C 138.359375 283.363281 136.445312 282.535156 134.652344 281.746094 C 134.53125 281.695312 134.394531 281.695312 134.269531 281.753906 C 133.171875 282.273438 132.140625 282.78125 131.164062 283.261719 C 129.382812 284.128906 127.84375 284.886719 126.425781 285.503906 C 123.898438 286.59375 122.027344 287.273438 120.527344 287.65625 C 119.234375 288.023438 118.273438 288.167969 117.625 288.21875 C 117.832031 288.136719 118.078125 288.042969 118.351562 287.941406 C 118.902344 287.734375 119.574219 287.480469 120.367188 287.148438 C 121.835938 286.578125 123.683594 285.746094 126.007812 284.621094 C 126.941406 284.171875 127.945312 283.660156 129.042969 283.097656 C 130.015625 282.597656 131.054688 282.066406 132.183594 281.5 C 132.347656 281.429688 132.449219 281.261719 132.441406 281.082031 C 132.441406 280.902344 132.335938 280.742188 132.167969 280.664062 C 131.417969 280.332031 130.667969 280.011719 129.929688 279.703125 C 128.1875 278.957031 126.542969 278.257812 125.027344 277.464844 L 124.917969 277.414062 C 120.578125 275.246094 116.800781 273.367188 113.527344 271.730469 L 105.144531 267.460938 C 102.984375 266.441406 101.078125 265.519531 99.511719 264.71875 C 98.066406 263.980469 97.179688 263.476562 96.628906 263.136719 C 97.25 263.285156 98.242188 263.574219 99.765625 264.082031 C 101.28125 264.585938 103.230469 265.289062 105.722656 266.21875 C 107.664062 266.976562 109.867188 267.953125 112.417969 269.078125 L 126.050781 275.210938 C 127.511719 275.910156 129.042969 276.519531 130.660156 277.160156 C 131.488281 277.492188 132.347656 277.832031 133.222656 278.199219 C 133.605469 278.34375 133.980469 278.496094 134.355469 278.65625 L 135.019531 278.921875 C 135.171875 278.980469 135.339844 278.957031 135.46875 278.863281 C 135.597656 278.769531 135.664062 278.621094 135.648438 278.453125 C 135.425781 275.621094 134.804688 272.554688 133.800781 269.324219 C 132.933594 266.582031 132.140625 264.226562 131.570312 262.527344 L 131.503906 262.332031 C 131.011719 260.882812 130.71875 259.886719 130.542969 259.214844 C 130.910156 259.921875 131.394531 260.933594 132.003906 262.246094 C 132.628906 263.625 133.621094 265.921875 134.753906 269.101562 C 135.691406 271.832031 136.660156 274.648438 136.832031 279.386719 C 136.839844 279.574219 136.957031 279.730469 137.128906 279.796875 C 138.40625 280.300781 139.851562 280.871094 141.363281 281.371094 C 147.148438 283.496094 153.695312 285.898438 160.566406 289.613281 C 164.480469 291.734375 167.828125 293.945312 170.8125 296.371094 C 172.03125 297.375 173.269531 298.503906 174.589844 299.824219 C 174.726562 299.960938 174.941406 299.996094 175.117188 299.910156 C 175.296875 299.824219 175.398438 299.628906 175.371094 299.433594 C 174.9375 296.355469 174.460938 293.0625 173.9375 289.820312 C 173.550781 287.734375 173.179688 285.691406 172.8125 283.675781 C 172.269531 280.628906 171.738281 277.660156 171.171875 274.769531 C 171.136719 274.566406 170.972656 274.421875 170.769531 274.402344 C 167.640625 274.070312 164.933594 273.1875 162.21875 272.242188 C 159.105469 271.085938 156.28125 269.824219 153.820312 268.480469 C 149.558594 266.226562 145.925781 263.757812 143.015625 261.132812 C 141.375 259.660156 140.03125 258.085938 139.042969 256.484375 C 139.886719 257.507812 141.246094 259.027344 143.375 260.75 C 146.453125 263.214844 150.113281 265.527344 154.261719 267.613281 C 156.707031 268.890625 159.511719 270.105469 162.585938 271.222656 C 164.824219 271.996094 167.492188 272.835938 170.25 273.210938 C 170.40625 273.230469 170.546875 273.179688 170.644531 273.074219 C 170.746094 272.957031 170.796875 272.804688 170.761719 272.660156 L 167.628906 257.839844 L 166.824219 254.347656 C 166.011719 250.828125 165.230469 247.441406 164.484375 244.183594 L 164.050781 242.378906 C 163.84375 241.511719 163.640625 240.652344 163.4375 239.800781 C 163.394531 239.613281 163.242188 239.476562 163.054688 239.445312 C 159.445312 238.882812 156.527344 237.386719 154.390625 236.144531 C 151.703125 234.570312 149.53125 232.917969 148.136719 231.804688 C 144.921875 229.25 142.53125 227.054688 140.617188 225.292969 L 140.03125 224.75 C 138.601562 223.421875 137.28125 222.179688 136.328125 221.261719 C 137.214844 221.867188 138.507812 222.828125 140.363281 224.34375 C 141.042969 224.878906 141.773438 225.484375 142.574219 226.144531 C 144.324219 227.574219 146.300781 229.199219 148.734375 231.046875 C 150.300781 232.222656 152.425781 233.761719 154.9375 235.207031 C 157.558594 236.695312 159.988281 237.65625 162.378906 238.140625 C 162.527344 238.175781 162.6875 238.125 162.796875 238.007812 C 162.910156 237.894531 162.953125 237.734375 162.917969 237.582031 C 161.863281 233.183594 160.875 229.0625 159.949219 225.199219 C 157.90625 216.726562 156.152344 209.410156 154.757812 203.265625 L 154.585938 202.476562 C 153.507812 197.703125 152.578125 193.578125 151.875 190.113281 C 151.199219 186.6875 150.640625 183.714844 150.214844 181.257812 C 149.832031 179.054688 149.625 177.617188 149.515625 176.671875 C 149.824219 177.574219 150.265625 178.960938 150.871094 181.105469 C 151.515625 183.332031 152.28125 186.167969 153.21875 189.800781 C 154.179688 193.382812 155.328125 197.6875 156.695312 202.785156 C 157.371094 205.386719 158.117188 208.1875 158.917969 211.214844 C 160.601562 217.578125 162.507812 224.792969 164.644531 233.121094 C 164.695312 233.308594 164.855469 233.445312 165.054688 233.464844 C 165.25 233.464844 165.433594 233.371094 165.511719 233.191406 C 166.824219 230.214844 168.015625 227.542969 169.070312 225.167969 L 170.496094 221.960938 L 171.214844 220.242188 C 171.699219 219.085938 172.148438 218.027344 172.566406 217.042969 C 172.753906 216.601562 172.929688 216.175781 173.109375 215.78125 C 173.5 214.855469 173.875 213.988281 174.132812 213.195312 C 174.871094 211.179688 175.390625 209.859375 175.757812 209 C 175.558594 209.921875 175.210938 211.316406 174.632812 213.417969 C 174.429688 214.226562 174.113281 215.078125 173.75 216.0625 C 173.601562 216.464844 173.449219 216.882812 173.296875 217.316406 C 173.117188 217.78125 172.933594 218.277344 172.746094 218.792969 C 172.34375 219.890625 171.902344 221.082031 171.390625 222.34375 C 169.671875 226.417969 167.734375 230.910156 165.632812 235.691406 C 165.605469 235.707031 165.578125 235.726562 165.554688 235.757812 C 165.433594 235.863281 165.382812 236.039062 165.417969 236.203125 C 166.023438 238.558594 166.636719 240.984375 167.265625 243.511719 C 167.980469 246.488281 168.734375 249.570312 169.503906 252.777344 L 170.566406 257.164062 C 171.5625 261.785156 172.617188 266.625 173.730469 271.707031 C 173.765625 271.882812 173.902344 272.019531 174.082031 272.0625 C 174.265625 272.089844 174.445312 272.027344 174.554688 271.882812 C 178.675781 266.226562 181.71875 260.933594 183.585938 256.179688 C 184.007812 255.257812 184.308594 254.347656 184.597656 253.472656 C 184.75 253.003906 184.902344 252.539062 185.066406 252.101562 C 185.175781 251.789062 185.285156 251.480469 185.394531 251.167969 C 185.5 250.851562 185.609375 250.53125 185.738281 250.171875 C 185.828125 249.789062 185.914062 249.40625 186 249.039062 L 186.160156 248.378906 C 186.398438 247.40625 186.621094 246.472656 186.832031 245.601562 L 186.945312 245.101562 C 187.121094 244.445312 187.199219 243.816406 187.269531 243.214844 C 187.320312 242.855469 187.363281 242.507812 187.429688 242.15625 C 187.515625 241.503906 187.601562 240.898438 187.691406 240.320312 L 187.785156 239.671875 C 187.835938 239.289062 187.890625 238.917969 187.941406 238.535156 C 187.957031 238.355469 187.972656 238.183594 187.980469 238.007812 C 187.992188 237.851562 188 237.691406 188.015625 237.53125 C 188.074219 236.667969 188.121094 235.921875 188.171875 235.285156 C 188.195312 235.929688 188.222656 236.679688 188.238281 237.554688 L 188.261719 238.558594 L 188.238281 238.789062 C 188.21875 239.070312 188.1875 239.359375 188.160156 239.671875 L 187.941406 242.226562 C 187.90625 242.539062 187.878906 242.863281 187.847656 243.195312 C 187.796875 243.835938 187.746094 244.496094 187.601562 245.167969 L 186.910156 248.574219 C 186.832031 248.972656 186.742188 249.378906 186.65625 249.789062 L 186.527344 250.402344 C 186.332031 251.023438 186.128906 251.671875 185.914062 252.324219 C 185.761719 252.777344 185.617188 253.242188 185.472656 253.71875 C 185.191406 254.628906 184.902344 255.574219 184.496094 256.519531 C 182.488281 261.871094 179.074219 267.757812 174.351562 274.035156 C 174.277344 274.140625 174.242188 274.273438 174.273438 274.402344 C 174.886719 277.492188 175.46875 280.679688 176.070312 283.957031 C 176.386719 285.710938 176.71875 287.496094 177.050781 289.292969 C 177.371094 291.238281 177.664062 293.214844 177.96875 295.222656 C 177.996094 295.410156 178.140625 295.570312 178.335938 295.605469 C 178.519531 295.640625 178.71875 295.554688 178.820312 295.390625 C 179.347656 294.515625 179.910156 293.65625 180.480469 292.839844 C 183.183594 289.0625 186.085938 286.007812 188.578125 283.523438 C 191.285156 280.808594 193.914062 278.367188 196.464844 276.003906 C 199.042969 273.605469 201.476562 271.347656 203.65625 269.113281 C 204.820312 267.921875 205.800781 266.847656 206.652344 265.828125 C 206.8125 265.640625 206.972656 265.453125 207.167969 265.199219 C 207.253906 265.09375 207.289062 264.949219 207.261719 264.816406 C 206.386719 260.621094 206.199219 256.398438 206.71875 252.273438 C 207.144531 248.9375 207.824219 245.859375 208.742188 243.136719 C 209.238281 241.578125 209.765625 240.203125 210.308594 239.050781 C 210.234375 239.34375 210.148438 239.679688 210.046875 240.054688 C 209.824219 240.914062 209.550781 241.980469 209.238281 243.28125 C 208.496094 246.328125 208.003906 249.21875 207.6875 252.359375 C 207.347656 255.832031 207.464844 259.359375 208.035156 262.824219 C 208.0625 263.003906 208.191406 263.148438 208.367188 263.199219 C 208.546875 263.242188 208.726562 263.1875 208.84375 263.046875 C 208.988281 262.875 209.132812 262.6875 209.253906 262.515625 C 210.957031 260.289062 212.574219 258.179688 214.070312 256.203125 C 215.058594 254.945312 216.070312 253.804688 217.0625 252.691406 C 217.59375 252.09375 218.113281 251.5 218.597656 250.929688 C 219.140625 250.335938 219.652344 249.746094 220.152344 249.175781 C 221.003906 248.191406 221.8125 247.261719 222.644531 246.4375 L 223.402344 245.679688 C 223.835938 245.238281 224.261719 244.8125 224.679688 244.402344 C 224.78125 244.308594 224.824219 244.164062 224.808594 244.027344 C 224.433594 240.292969 224.507812 236.652344 225.039062 232.902344 C 225.445312 230.058594 225.988281 227.414062 226.695312 224.816406 C 227.1875 223.046875 227.570312 221.875 227.855469 221.117188 C 227.691406 222.273438 227.417969 223.824219 227.222656 224.921875 C 226.824219 227.089844 226.375 229.675781 226 233.019531 C 225.648438 236.167969 225.574219 239.179688 225.777344 242.210938 C 225.792969 242.394531 225.90625 242.550781 226.074219 242.617188 C 226.246094 242.683594 226.433594 242.640625 226.566406 242.507812 C 227.589844 241.492188 228.542969 240.550781 229.402344 239.714844 C 231.28125 238.007812 232.820312 236.722656 234.242188 235.546875 C 235.484375 234.519531 236.308594 233.898438 236.839844 233.523438 C 236.445312 234.042969 235.785156 234.839844 234.710938 236.046875 C 233.953125 236.882812 233.027344 237.863281 231.945312 239.011719 L 230.386719 240.679688 C 228.507812 242.839844 226.40625 245.21875 224.132812 247.738281 C 223.359375 248.589844 222.613281 249.523438 221.828125 250.511719 C 221.34375 251.117188 220.84375 251.746094 220.308594 252.382812 C 219.820312 253.011719 219.300781 253.636719 218.773438 254.28125 C 217.863281 255.371094 216.929688 256.503906 216.011719 257.753906 L 211.433594 264.082031 L 209.925781 266.148438 C 209.832031 266.269531 209.804688 266.4375 209.859375 266.585938 C 209.910156 266.738281 210.042969 266.847656 210.199219 266.882812 C 218.851562 268.6875 226.710938 269.121094 233.554688 268.15625 C 234.015625 268.082031 234.457031 268.015625 234.863281 267.953125 C 235.519531 267.859375 236.105469 267.777344 236.632812 267.671875 C 237.179688 267.546875 237.65625 267.441406 238.070312 267.347656 C 237.671875 267.511719 237.203125 267.699219 236.667969 267.902344 C 236.074219 268.097656 235.367188 268.261719 234.558594 268.457031 L 233.640625 268.683594 C 228.953125 269.707031 220.875 270.386719 208.988281 267.777344 C 208.820312 267.742188 208.640625 267.800781 208.53125 267.929688 C 207.449219 269.214844 206.582031 270.191406 205.722656 271.101562 C 203.339844 273.621094 200.710938 276.121094 197.921875 278.765625 C 195.640625 280.9375 193.273438 283.175781 190.890625 285.589844 C 190.765625 285.710938 190.722656 285.886719 190.773438 286.050781 C 190.824219 286.210938 190.953125 286.332031 191.128906 286.367188 C 203.5 288.910156 210.769531 288.621094 214.675781 287.941406 C 215.601562 287.804688 216.390625 287.609375 217.074219 287.4375 L 217.726562 287.277344 C 218.035156 287.179688 218.324219 287.082031 218.597656 287.003906 C 218.78125 286.945312 218.953125 286.890625 219.117188 286.839844 C 218.816406 287.003906 218.460938 287.179688 218.058594 287.371094 L 217.523438 287.605469 C 216.742188 287.894531 215.863281 288.21875 214.792969 288.457031 C 211.542969 289.285156 204.074219 290.234375 190.390625 287.371094 L 190.398438 287.316406 C 190.441406 287.113281 190.339844 286.910156 190.160156 286.816406 C 189.980469 286.722656 189.753906 286.757812 189.609375 286.902344 C 187.890625 288.714844 185.335938 291.480469 183.082031 294.652344 C 181.109375 297.441406 179.796875 300.03125 179.058594 302.566406 C 179.046875 302.625 179.039062 302.691406 179.046875 302.757812 L 179.089844 303.074219 C 179.101562 303.21875 179.183594 303.347656 179.304688 303.421875 C 179.429688 303.492188 179.578125 303.507812 179.71875 303.457031 C 184.945312 301.414062 190.621094 300.183594 197.054688 299.714844 C 202.011719 299.363281 206.9375 299.390625 212.570312 299.808594 C 214.945312 299.984375 217.15625 300.191406 219.257812 300.394531 C 219.394531 300.402344 219.550781 300.351562 219.644531 300.242188 C 222.179688 297.339844 224.375 295.144531 226.355469 293.527344 C 228.542969 291.691406 230.855469 290.253906 233.035156 289.359375 C 234.589844 288.738281 235.785156 288.492188 236.617188 288.40625 C 235.832031 288.6875 234.6875 289.105469 233.253906 289.851562 C 231.085938 290.992188 229.035156 292.429688 226.984375 294.253906 C 225.351562 295.691406 223.539062 297.542969 221.453125 299.902344 C 221.335938 300.03125 221.308594 300.214844 221.363281 300.371094 C 221.429688 300.53125 221.574219 300.648438 221.746094 300.667969 C 224.832031 301.007812 227.613281 301.363281 230.101562 301.679688 C 231.597656 301.867188 232.992188 302.039062 234.285156 302.199219 C 237.160156 302.566406 239.5625 302.855469 241.542969 303.101562 C 244.714844 303.484375 247.074219 303.773438 248.195312 304.011719 C 246.707031 304.324219 242.707031 304.699219 234.105469 304.171875 Z M 272.921875 299.117188 C 263.792969 292.796875 255.308594 283.632812 246.964844 271.101562 C 246.691406 270.695312 246.632812 270.292969 246.769531 269.902344 C 246.945312 269.441406 247.390625 269.050781 247.941406 268.890625 C 248.011719 268.875 248.070312 268.839844 248.128906 268.789062 C 251.828125 265.417969 254.035156 260.953125 256.167969 256.636719 C 257.980469 252.980469 259.851562 249.203125 262.617188 246.113281 C 262.773438 245.9375 262.773438 245.671875 262.617188 245.5 C 258.296875 240.679688 259.5625 232.75 261.148438 226.375 C 261.996094 222.980469 263.207031 219.464844 264.386719 216.0625 C 266.253906 210.628906 268.199219 205.011719 268.847656 199.414062 C 268.871094 199.25 268.796875 199.089844 268.667969 198.988281 C 268.539062 198.894531 268.363281 198.871094 268.207031 198.9375 C 262.957031 201.242188 258.023438 202.910156 253.121094 204.042969 C 250.476562 204.664062 247.695312 205.148438 245.015625 205.617188 C 240.667969 206.382812 236.175781 207.171875 231.980469 208.542969 C 228.195312 209.777344 224.511719 211.671875 220.953125 213.503906 C 213.867188 217.144531 206.546875 220.914062 198.242188 219.46875 C 197.085938 219.269531 197.128906 218.285156 197.171875 217.996094 C 197.179688 217.9375 197.171875 217.882812 197.15625 217.824219 C 192.867188 199.78125 178.820312 188.25 165.238281 177.097656 C 158.925781 171.917969 152.402344 166.566406 146.988281 160.644531 C 146.871094 160.523438 146.691406 160.464844 146.519531 160.515625 C 146.34375 160.566406 146.222656 160.703125 146.1875 160.878906 C 144.980469 167.269531 143.722656 173.875 140.972656 180.023438 C 139.644531 183.003906 138.011719 185.929688 136.4375 188.753906 C 134.25 192.683594 131.988281 196.75 130.433594 201.074219 C 127.683594 208.824219 126.890625 216.03125 128 223.109375 C 128.125 223.941406 128.28125 224.800781 128.433594 225.679688 C 129.113281 229.488281 129.886719 233.800781 128.941406 237.367188 C 127.027344 244.523438 117.875 245.578125 110.523438 246.421875 C 109.253906 246.566406 108.046875 246.703125 106.964844 246.871094 C 102.515625 247.535156 98.152344 248.511719 93.929688 249.449219 C 87.523438 250.871094 80.894531 252.34375 74.089844 252.714844 C 73.910156 252.722656 73.757812 252.828125 73.6875 252.996094 C 73.621094 253.152344 73.648438 253.34375 73.765625 253.480469 C 76.734375 256.875 79.066406 260.789062 81.320312 264.578125 C 84.195312 269.398438 87.167969 274.386719 91.496094 278.394531 C 96.652344 283.183594 99.640625 287.523438 97.46875 293.128906 C 97.394531 293.332031 97.46875 293.554688 97.648438 293.675781 C 106.011719 299.3125 114.664062 305.140625 113.636719 317.316406 C 112.957031 325.382812 108.65625 334.105469 102.660156 339.550781 C 102.523438 339.675781 102.472656 339.871094 102.539062 340.042969 C 102.601562 340.222656 102.761719 340.347656 102.949219 340.355469 C 107.035156 340.550781 111.160156 341.035156 115.007812 341.523438 C 115.738281 341.617188 116.476562 341.726562 117.226562 341.835938 C 119.789062 342.203125 122.40625 342.578125 124.984375 342.578125 C 126.6875 342.578125 128.378906 342.414062 130.023438 341.980469 C 132.335938 341.359375 134.601562 340.570312 136.789062 339.796875 C 141.773438 338.058594 146.511719 336.410156 151.777344 336.605469 C 152.578125 336.636719 153.414062 337.25 153.386719 338.1875 C 153.355469 339.359375 153.457031 340.519531 153.546875 341.402344 C 153.566406 341.574219 153.6875 341.726562 153.855469 341.792969 C 154.023438 341.84375 154.210938 341.804688 154.332031 341.675781 C 162.441406 333.574219 170.972656 323.691406 174.285156 311.183594 C 177.421875 310.542969 179.804688 324.507812 179.941406 326.019531 C 180.4375 331.429688 181.03125 336.828125 181.738281 342.226562 C 183.015625 351.96875 184.699219 361.652344 186.664062 371.285156 C 186.816406 372.046875 187.3125 372.421875 187.878906 372.542969 C 187.957031 372.636719 188.050781 372.695312 188.179688 372.695312 C 188.203125 372.695312 188.230469 372.6875 188.261719 372.6875 C 188.390625 372.671875 188.484375 372.636719 188.554688 372.566406 C 189.546875 372.414062 190.484375 371.570312 190.222656 370.304688 C 188.09375 359.804688 186.289062 349.257812 184.972656 338.628906 C 184.058594 331.175781 184.308594 323.078125 182.367188 315.800781 C 181.863281 313.941406 180.945312 312.023438 179.761719 310.484375 C 179.761719 310.441406 179.78125 310.410156 179.78125 310.367188 C 179.773438 310.019531 179.957031 309.726562 180.445312 309.507812 C 185.863281 318.507812 194.515625 327.367188 205.042969 334.597656 C 205.171875 334.691406 205.347656 334.707031 205.492188 334.640625 C 205.644531 334.578125 205.746094 334.4375 205.765625 334.28125 C 206.011719 332.351562 206.121094 330.734375 205.84375 329.101562 C 205.746094 328.511719 205.953125 327.78125 206.34375 327.375 C 206.609375 327.101562 206.921875 326.984375 207.3125 327.042969 C 227.234375 329.664062 243.832031 319.242188 256.058594 309.871094 L 257.132812 309.046875 C 261.335938 305.816406 267.09375 301.398438 272.769531 299.945312 C 272.941406 299.902344 273.082031 299.757812 273.109375 299.578125 C 273.144531 299.398438 273.066406 299.21875 272.921875 299.117188 " fill-opacity="1" fill-rule="nonzero"/></g><path fill="#000000" d="M 250.890625 202.746094 C 250.925781 202.925781 250.984375 203.097656 251.0625 203.265625 C 251.140625 203.429688 251.238281 203.585938 251.355469 203.726562 C 251.472656 203.871094 251.605469 203.996094 251.753906 204.105469 C 251.898438 204.214844 252.058594 204.304688 252.226562 204.375 C 252.398438 204.445312 252.574219 204.496094 252.757812 204.519531 C 252.9375 204.546875 253.121094 204.554688 253.304688 204.535156 C 253.484375 204.515625 253.664062 204.476562 253.835938 204.414062 C 254.011719 204.351562 254.171875 204.269531 254.328125 204.167969 C 254.480469 204.066406 254.617188 203.949219 254.742188 203.8125 C 254.863281 203.675781 254.96875 203.527344 255.054688 203.363281 C 255.144531 203.203125 255.207031 203.03125 255.253906 202.851562 C 255.296875 202.675781 255.320312 202.492188 255.320312 202.308594 C 255.320312 202.125 255.296875 201.945312 255.253906 201.765625 C 255.207031 201.589844 255.144531 201.417969 255.054688 201.253906 C 254.96875 201.09375 254.863281 200.945312 254.742188 200.808594 C 254.617188 200.671875 254.480469 200.550781 254.328125 200.449219 C 254.171875 200.347656 254.011719 200.265625 253.835938 200.203125 C 253.664062 200.140625 253.484375 200.101562 253.304688 200.085938 C 253.121094 200.066406 252.9375 200.070312 252.757812 200.097656 C 252.574219 200.125 252.398438 200.171875 252.226562 200.242188 C 252.058594 200.316406 251.898438 200.40625 251.753906 200.515625 C 251.605469 200.625 251.472656 200.75 251.355469 200.890625 C 251.238281 201.035156 251.140625 201.1875 251.0625 201.355469 C 250.984375 201.519531 250.925781 201.695312 250.890625 201.875 L 221.496094 201.875 L 221.496094 207.058594 L 229.496094 207.058594 C 229.53125 207.238281 229.589844 207.410156 229.667969 207.578125 C 229.746094 207.742188 229.84375 207.898438 229.960938 208.039062 C 230.078125 208.183594 230.207031 208.308594 230.355469 208.417969 C 230.503906 208.527344 230.664062 208.617188 230.832031 208.6875 C 231.003906 208.757812 231.179688 208.804688 231.359375 208.832031 C 231.542969 208.859375 231.726562 208.863281 231.910156 208.847656 C 232.089844 208.828125 232.269531 208.789062 232.441406 208.726562 C 232.617188 208.664062 232.777344 208.582031 232.933594 208.480469 C 233.085938 208.378906 233.222656 208.257812 233.347656 208.125 C 233.46875 207.988281 233.574219 207.835938 233.660156 207.675781 C 233.75 207.511719 233.8125 207.34375 233.859375 207.164062 C 233.902344 206.984375 233.925781 206.804688 233.925781 206.621094 C 233.925781 206.4375 233.902344 206.253906 233.859375 206.078125 C 233.8125 205.898438 233.75 205.730469 233.660156 205.566406 C 233.574219 205.402344 233.46875 205.253906 233.347656 205.117188 C 233.222656 204.980469 233.085938 204.863281 232.933594 204.761719 C 232.777344 204.660156 232.617188 204.578125 232.441406 204.515625 C 232.269531 204.453125 232.089844 204.414062 231.910156 204.394531 C 231.726562 204.375 231.542969 204.382812 231.359375 204.410156 C 231.179688 204.433594 231.003906 204.484375 230.832031 204.554688 C 230.664062 204.625 230.503906 204.714844 230.355469 204.824219 C 230.207031 204.933594 230.078125 205.058594 229.960938 205.203125 C 229.84375 205.34375 229.746094 205.5 229.667969 205.664062 C 229.589844 205.832031 229.53125 206.003906 229.496094 206.183594 L 222.371094 206.183594 L 222.371094 202.746094 Z M 250.890625 202.746094 " fill-opacity="1" fill-rule="nonzero"/><g clip-path="url(#39a9112b0b)"><path fill="#000000" d="M 190.628906 239.929688 L 190.628906 239.292969 L 196.175781 239.292969 L 196.175781 237.832031 L 209.53125 237.832031 L 209.53125 239.292969 L 216.792969 239.292969 L 216.792969 235.5 L 209.53125 235.5 L 209.53125 236.960938 L 196.171875 236.960938 L 196.171875 235.5 L 190.625 235.5 L 190.625 231.3125 L 195.878906 231.3125 L 195.878906 229.851562 L 224.988281 229.851562 L 262.125 266.984375 L 262.25 267.113281 L 286.261719 267.113281 C 286.296875 267.292969 286.355469 267.464844 286.433594 267.632812 C 286.511719 267.796875 286.609375 267.953125 286.726562 268.09375 C 286.839844 268.238281 286.972656 268.363281 287.121094 268.472656 C 287.269531 268.582031 287.429688 268.671875 287.597656 268.742188 C 287.769531 268.8125 287.945312 268.859375 288.125 268.886719 C 288.308594 268.914062 288.488281 268.917969 288.671875 268.902344 C 288.855469 268.882812 289.035156 268.84375 289.207031 268.78125 C 289.378906 268.71875 289.542969 268.636719 289.695312 268.535156 C 289.847656 268.433594 289.988281 268.316406 290.109375 268.179688 C 290.234375 268.042969 290.339844 267.894531 290.425781 267.730469 C 290.511719 267.570312 290.578125 267.398438 290.621094 267.21875 C 290.667969 267.042969 290.691406 266.859375 290.691406 266.675781 C 290.691406 266.492188 290.667969 266.3125 290.621094 266.132812 C 290.578125 265.953125 290.511719 265.785156 290.425781 265.621094 C 290.339844 265.460938 290.234375 265.3125 290.109375 265.175781 C 289.988281 265.039062 289.847656 264.917969 289.695312 264.816406 C 289.542969 264.714844 289.378906 264.632812 289.207031 264.570312 C 289.035156 264.507812 288.855469 264.46875 288.671875 264.453125 C 288.488281 264.433594 288.308594 264.4375 288.125 264.464844 C 287.945312 264.492188 287.769531 264.539062 287.597656 264.609375 C 287.429688 264.679688 287.269531 264.773438 287.121094 264.882812 C 286.972656 264.992188 286.839844 265.117188 286.726562 265.257812 C 286.609375 265.402344 286.511719 265.554688 286.433594 265.722656 C 286.355469 265.886719 286.296875 266.0625 286.261719 266.242188 L 262.613281 266.242188 L 225.351562 228.980469 L 195.882812 228.980469 L 195.882812 227.519531 L 190.628906 227.519531 L 190.628906 223.332031 L 196.175781 223.332031 L 196.175781 221.871094 L 227.085938 221.871094 L 259.605469 254.382812 C 259.503906 254.539062 259.421875 254.703125 259.363281 254.875 C 259.304688 255.050781 259.265625 255.230469 259.25 255.414062 C 259.234375 255.59375 259.242188 255.777344 259.269531 255.960938 C 259.300781 256.140625 259.351562 256.316406 259.421875 256.488281 C 259.496094 256.65625 259.585938 256.8125 259.699219 256.960938 C 259.8125 257.105469 259.9375 257.238281 260.082031 257.351562 C 260.226562 257.46875 260.382812 257.5625 260.550781 257.640625 C 260.714844 257.714844 260.890625 257.769531 261.070312 257.804688 C 261.253906 257.839844 261.433594 257.851562 261.617188 257.839844 C 261.800781 257.828125 261.980469 257.792969 262.15625 257.738281 C 262.332031 257.683594 262.5 257.605469 262.65625 257.507812 C 262.8125 257.414062 262.957031 257.296875 263.082031 257.167969 C 263.210938 257.035156 263.324219 256.890625 263.414062 256.730469 C 263.507812 256.570312 263.582031 256.402344 263.632812 256.226562 C 263.683594 256.050781 263.710938 255.867188 263.71875 255.683594 C 263.726562 255.5 263.707031 255.320312 263.671875 255.136719 C 263.632812 254.957031 263.574219 254.785156 263.492188 254.621094 C 263.410156 254.453125 263.3125 254.300781 263.191406 254.160156 C 263.074219 254.019531 262.941406 253.894531 262.789062 253.789062 C 262.640625 253.679688 262.480469 253.59375 262.308594 253.523438 C 262.140625 253.457031 261.960938 253.410156 261.78125 253.386719 C 261.597656 253.359375 261.414062 253.359375 261.230469 253.378906 C 261.046875 253.398438 260.871094 253.441406 260.699219 253.507812 C 260.527344 253.570312 260.363281 253.65625 260.210938 253.757812 L 242.417969 235.964844 L 250.980469 235.964844 L 258.402344 243.390625 C 258.269531 243.519531 258.152344 243.664062 258.054688 243.820312 C 257.957031 243.976562 257.878906 244.144531 257.820312 244.320312 C 257.765625 244.496094 257.730469 244.675781 257.714844 244.863281 C 257.703125 245.046875 257.714844 245.230469 257.746094 245.414062 C 257.777344 245.59375 257.832031 245.769531 257.90625 245.941406 C 257.984375 246.109375 258.078125 246.265625 258.191406 246.414062 C 258.308594 246.558594 258.4375 246.6875 258.585938 246.800781 C 258.730469 246.914062 258.886719 247.007812 259.058594 247.082031 C 259.226562 247.15625 259.402344 247.210938 259.585938 247.242188 C 259.769531 247.273438 259.953125 247.28125 260.136719 247.269531 C 260.324219 247.253906 260.503906 247.21875 260.679688 247.160156 C 260.855469 247.101562 261.019531 247.023438 261.175781 246.921875 C 261.332031 246.824219 261.476562 246.707031 261.601562 246.570312 C 261.730469 246.4375 261.839844 246.289062 261.929688 246.128906 C 262.023438 245.96875 262.09375 245.796875 262.140625 245.617188 C 262.191406 245.441406 262.21875 245.257812 262.222656 245.074219 C 262.226562 244.886719 262.207031 244.703125 262.167969 244.523438 C 262.125 244.34375 262.066406 244.167969 261.980469 244.003906 C 261.898438 243.839844 261.796875 243.6875 261.675781 243.546875 C 261.554688 243.40625 261.417969 243.28125 261.265625 243.175781 C 261.113281 243.066406 260.953125 242.980469 260.78125 242.914062 C 260.605469 242.847656 260.429688 242.804688 260.246094 242.78125 C 260.058594 242.757812 259.875 242.757812 259.691406 242.78125 C 259.507812 242.800781 259.332031 242.847656 259.15625 242.914062 L 251.339844 235.09375 L 241.546875 235.09375 L 227.449219 220.996094 L 196.175781 220.996094 L 196.175781 219.535156 L 190.628906 219.535156 L 190.628906 215.441406 L 196.175781 215.441406 L 196.175781 213.980469 L 199.917969 213.980469 C 199.953125 214.160156 200.011719 214.332031 200.089844 214.5 C 200.167969 214.667969 200.265625 214.820312 200.382812 214.960938 C 200.5 215.105469 200.632812 215.230469 200.777344 215.339844 C 200.925781 215.449219 201.085938 215.539062 201.253906 215.609375 C 201.425781 215.679688 201.601562 215.730469 201.78125 215.757812 C 201.964844 215.78125 202.148438 215.789062 202.328125 215.769531 C 202.511719 215.75 202.691406 215.710938 202.863281 215.648438 C 203.035156 215.585938 203.199219 215.503906 203.351562 215.402344 C 203.507812 215.300781 203.644531 215.183594 203.765625 215.046875 C 203.890625 214.910156 203.996094 214.761719 204.082031 214.597656 C 204.167969 214.4375 204.234375 214.265625 204.28125 214.085938 C 204.324219 213.910156 204.347656 213.726562 204.347656 213.542969 C 204.347656 213.359375 204.324219 213.179688 204.28125 213 C 204.234375 212.824219 204.167969 212.652344 204.082031 212.492188 C 203.996094 212.328125 203.890625 212.179688 203.765625 212.042969 C 203.644531 211.90625 203.507812 211.789062 203.351562 211.683594 C 203.199219 211.582031 203.035156 211.5 202.863281 211.4375 C 202.691406 211.378906 202.511719 211.335938 202.328125 211.320312 C 202.148438 211.300781 201.964844 211.304688 201.78125 211.332031 C 201.601562 211.359375 201.425781 211.410156 201.253906 211.480469 C 201.085938 211.550781 200.925781 211.640625 200.777344 211.75 C 200.632812 211.859375 200.5 211.984375 200.382812 212.125 C 200.265625 212.269531 200.167969 212.421875 200.089844 212.589844 C 200.011719 212.753906 199.953125 212.929688 199.917969 213.109375 L 196.175781 213.109375 L 196.175781 211.644531 L 190.628906 211.644531 L 190.628906 207.550781 L 196.175781 207.550781 L 196.175781 206.089844 L 214.851562 206.089844 L 222.46875 213.703125 L 244.21875 213.703125 L 267.460938 236.941406 L 267.585938 237.070312 L 297.167969 237.070312 C 297.1875 237.269531 297.21875 237.46875 297.261719 237.664062 C 297.304688 237.859375 297.363281 238.050781 297.429688 238.242188 C 297.496094 238.429688 297.578125 238.613281 297.667969 238.792969 C 297.761719 238.972656 297.863281 239.144531 297.976562 239.3125 C 298.089844 239.476562 298.214844 239.636719 298.347656 239.785156 C 298.480469 239.933594 298.625 240.078125 298.777344 240.207031 C 298.929688 240.339844 299.085938 240.460938 299.253906 240.574219 C 299.421875 240.6875 299.59375 240.785156 299.773438 240.875 C 299.953125 240.964844 300.140625 241.042969 300.328125 241.109375 C 300.519531 241.175781 300.710938 241.230469 300.910156 241.269531 C 301.105469 241.3125 301.304688 241.34375 301.503906 241.359375 C 301.707031 241.375 301.90625 241.378906 302.105469 241.367188 C 302.308594 241.359375 302.507812 241.335938 302.707031 241.304688 C 302.902344 241.269531 303.097656 241.222656 303.289062 241.160156 C 303.484375 241.101562 303.671875 241.03125 303.851562 240.949219 C 304.035156 240.863281 304.214844 240.769531 304.382812 240.664062 C 304.554688 240.558594 304.71875 240.441406 304.875 240.316406 C 305.03125 240.1875 305.179688 240.050781 305.316406 239.90625 C 305.457031 239.761719 305.585938 239.609375 305.703125 239.445312 C 305.824219 239.285156 305.933594 239.117188 306.03125 238.941406 C 306.128906 238.765625 306.214844 238.582031 306.289062 238.398438 C 306.363281 238.210938 306.425781 238.019531 306.476562 237.824219 C 306.527344 237.628906 306.566406 237.433594 306.589844 237.234375 C 306.617188 237.035156 306.628906 236.835938 306.628906 236.632812 C 306.628906 236.433594 306.617188 236.230469 306.589844 236.03125 C 306.566406 235.832031 306.527344 235.636719 306.476562 235.441406 C 306.425781 235.246094 306.363281 235.054688 306.289062 234.871094 C 306.214844 234.683594 306.128906 234.5 306.03125 234.328125 C 305.933594 234.152344 305.824219 233.980469 305.703125 233.820312 C 305.585938 233.660156 305.457031 233.503906 305.316406 233.359375 C 305.179688 233.214844 305.03125 233.078125 304.875 232.953125 C 304.71875 232.824219 304.554688 232.707031 304.382812 232.601562 C 304.214844 232.496094 304.035156 232.402344 303.851562 232.320312 C 303.671875 232.234375 303.484375 232.164062 303.289062 232.105469 C 303.097656 232.046875 302.902344 232 302.707031 231.964844 C 302.507812 231.929688 302.308594 231.90625 302.105469 231.898438 C 301.90625 231.886719 301.707031 231.890625 301.503906 231.910156 C 301.304688 231.925781 301.105469 231.953125 300.910156 231.996094 C 300.710938 232.035156 300.519531 232.089844 300.328125 232.15625 C 300.140625 232.222656 299.953125 232.300781 299.773438 232.390625 C 299.59375 232.480469 299.421875 232.582031 299.253906 232.691406 C 299.085938 232.804688 298.929688 232.925781 298.777344 233.058594 C 298.625 233.191406 298.480469 233.332031 298.347656 233.480469 C 298.214844 233.632812 298.089844 233.789062 297.976562 233.957031 C 297.863281 234.121094 297.761719 234.292969 297.667969 234.472656 C 297.578125 234.652344 297.496094 234.835938 297.429688 235.023438 C 297.363281 235.214844 297.304688 235.40625 297.261719 235.601562 C 297.21875 235.800781 297.1875 235.996094 297.167969 236.199219 L 267.949219 236.199219 L 250.519531 218.773438 L 258.203125 218.773438 L 265.992188 226.5625 C 265.890625 226.714844 265.808594 226.878906 265.746094 227.050781 C 265.683594 227.226562 265.644531 227.402344 265.625 227.585938 C 265.609375 227.769531 265.613281 227.953125 265.640625 228.132812 C 265.667969 228.316406 265.714844 228.492188 265.785156 228.660156 C 265.855469 228.832031 265.945312 228.992188 266.054688 229.136719 C 266.164062 229.285156 266.289062 229.417969 266.433594 229.535156 C 266.574219 229.652344 266.730469 229.75 266.894531 229.828125 C 267.0625 229.90625 267.234375 229.964844 267.414062 230 C 267.597656 230.035156 267.777344 230.050781 267.960938 230.039062 C 268.144531 230.03125 268.324219 230 268.5 229.945312 C 268.675781 229.894531 268.84375 229.820312 269.003906 229.726562 C 269.160156 229.628906 269.304688 229.519531 269.433594 229.386719 C 269.5625 229.257812 269.675781 229.113281 269.769531 228.957031 C 269.867188 228.796875 269.9375 228.632812 269.992188 228.457031 C 270.046875 228.277344 270.078125 228.097656 270.085938 227.914062 C 270.09375 227.730469 270.082031 227.550781 270.046875 227.371094 C 270.011719 227.1875 269.953125 227.015625 269.875 226.847656 C 269.796875 226.683594 269.699219 226.527344 269.582031 226.386719 C 269.464844 226.246094 269.332031 226.117188 269.183594 226.007812 C 269.035156 225.898438 268.878906 225.808594 268.707031 225.738281 C 268.539062 225.667969 268.363281 225.621094 268.179688 225.59375 C 267.996094 225.566406 267.816406 225.5625 267.632812 225.578125 C 267.449219 225.597656 267.269531 225.636719 267.097656 225.699219 C 266.925781 225.761719 266.761719 225.84375 266.609375 225.945312 L 258.5625 217.902344 L 249.648438 217.902344 L 244.703125 212.960938 L 244.578125 212.835938 L 222.824219 212.835938 L 215.207031 205.21875 L 196.171875 205.21875 L 196.171875 203.757812 L 190.625 203.757812 L 190.625 199.660156 L 196.683594 199.660156 L 196.683594 198.199219 L 221.382812 198.199219 L 232.273438 187.304688 L 237.222656 187.304688 L 245.355469 195.4375 L 262.878906 195.4375 L 262.878906 197.605469 L 272.832031 197.605469 L 272.832031 192.398438 L 262.878906 192.398438 L 262.878906 194.566406 L 245.71875 194.566406 L 238.460938 187.304688 L 250.640625 187.304688 L 250.640625 189.40625 L 260.589844 189.40625 L 260.589844 184.199219 L 250.640625 184.199219 L 250.640625 186.425781 L 231.917969 186.425781 L 221.027344 197.316406 L 196.6875 197.316406 L 196.6875 195.855469 L 190.628906 195.855469 L 190.628906 192.488281 L 196.6875 192.488281 L 196.6875 191.027344 L 215.328125 191.027344 L 232.195312 174.160156 L 245.703125 174.160156 C 245.738281 174.339844 245.796875 174.511719 245.875 174.679688 C 245.953125 174.84375 246.050781 175 246.167969 175.140625 C 246.285156 175.285156 246.417969 175.410156 246.5625 175.519531 C 246.710938 175.628906 246.871094 175.71875 247.039062 175.789062 C 247.210938 175.859375 247.386719 175.910156 247.566406 175.933594 C 247.75 175.960938 247.933594 175.96875 248.117188 175.949219 C 248.296875 175.929688 248.476562 175.890625 248.648438 175.828125 C 248.824219 175.765625 248.984375 175.683594 249.136719 175.582031 C 249.292969 175.480469 249.429688 175.363281 249.554688 175.226562 C 249.675781 175.089844 249.78125 174.941406 249.867188 174.777344 C 249.957031 174.617188 250.019531 174.445312 250.066406 174.265625 C 250.109375 174.089844 250.132812 173.90625 250.132812 173.722656 C 250.132812 173.539062 250.109375 173.359375 250.066406 173.179688 C 250.019531 173.003906 249.957031 172.832031 249.867188 172.667969 C 249.78125 172.507812 249.675781 172.359375 249.554688 172.222656 C 249.429688 172.085938 249.292969 171.964844 249.136719 171.863281 C 248.984375 171.761719 248.824219 171.679688 248.648438 171.617188 C 248.476562 171.554688 248.296875 171.515625 248.117188 171.5 C 247.933594 171.480469 247.75 171.484375 247.566406 171.511719 C 247.386719 171.539062 247.210938 171.589844 247.039062 171.660156 C 246.871094 171.730469 246.710938 171.820312 246.5625 171.929688 C 246.417969 172.039062 246.285156 172.164062 246.167969 172.304688 C 246.050781 172.449219 245.953125 172.601562 245.875 172.769531 C 245.796875 172.933594 245.738281 173.109375 245.703125 173.289062 L 231.835938 173.289062 L 214.964844 190.160156 L 196.683594 190.160156 L 196.683594 188.699219 L 190.628906 188.699219 L 190.628906 185.519531 L 187.5 185.519531 L 187.5 239.933594 Z M 301.882812 234.554688 C 302.160156 234.554688 302.421875 234.609375 302.675781 234.714844 C 302.929688 234.820312 303.152344 234.96875 303.347656 235.164062 C 303.542969 235.359375 303.691406 235.582031 303.796875 235.839844 C 303.902344 236.09375 303.953125 236.355469 303.953125 236.632812 C 303.953125 236.90625 303.898438 237.171875 303.792969 237.425781 C 303.6875 237.679688 303.539062 237.902344 303.34375 238.097656 C 303.148438 238.289062 302.925781 238.441406 302.671875 238.546875 C 302.417969 238.648438 302.152344 238.703125 301.875 238.703125 C 301.601562 238.703125 301.335938 238.648438 301.082031 238.542969 C 300.828125 238.4375 300.605469 238.289062 300.410156 238.09375 C 300.21875 237.898438 300.066406 237.675781 299.960938 237.421875 C 299.855469 237.167969 299.804688 236.902344 299.804688 236.628906 C 299.804688 236.351562 299.859375 236.089844 299.964844 235.835938 C 300.070312 235.582031 300.222656 235.355469 300.414062 235.160156 C 300.609375 234.96875 300.835938 234.816406 301.089844 234.710938 C 301.34375 234.605469 301.609375 234.554688 301.882812 234.554688 Z M 301.882812 234.554688 " fill-opacity="1" fill-rule="nonzero"/></g><path fill="#000000" d="M 280.578125 292.429688 C 280.632812 292.167969 280.714844 291.914062 280.832031 291.667969 C 280.945312 291.425781 281.089844 291.199219 281.261719 290.988281 C 281.433594 290.78125 281.625 290.59375 281.84375 290.433594 C 282.058594 290.273438 282.292969 290.140625 282.542969 290.039062 C 282.792969 289.933594 283.050781 289.863281 283.316406 289.824219 C 283.585938 289.785156 283.851562 289.777344 284.121094 289.804688 C 284.390625 289.832031 284.652344 289.890625 284.90625 289.980469 C 285.160156 290.070312 285.398438 290.191406 285.621094 290.339844 C 285.847656 290.492188 286.050781 290.667969 286.230469 290.867188 C 286.414062 291.066406 286.566406 291.285156 286.695312 291.523438 C 286.820312 291.761719 286.917969 292.011719 286.984375 292.273438 C 287.050781 292.535156 287.082031 292.800781 287.082031 293.070312 C 287.082031 293.339844 287.050781 293.605469 286.984375 293.867188 C 286.917969 294.128906 286.820312 294.378906 286.695312 294.617188 C 286.566406 294.855469 286.414062 295.074219 286.230469 295.277344 C 286.050781 295.476562 285.847656 295.652344 285.621094 295.800781 C 285.398438 295.949219 285.160156 296.070312 284.90625 296.164062 C 284.652344 296.253906 284.390625 296.3125 284.121094 296.339844 C 283.851562 296.363281 283.585938 296.359375 283.316406 296.320312 C 283.050781 296.277344 282.792969 296.207031 282.542969 296.105469 C 282.292969 296 282.058594 295.867188 281.84375 295.707031 C 281.625 295.546875 281.433594 295.363281 281.261719 295.152344 C 281.089844 294.945312 280.945312 294.71875 280.832031 294.472656 C 280.714844 294.230469 280.632812 293.976562 280.578125 293.710938 L 237.417969 293.710938 L 237.417969 286.101562 L 249.164062 286.101562 C 249.214844 285.835938 249.300781 285.582031 249.414062 285.335938 C 249.53125 285.09375 249.671875 284.867188 249.84375 284.65625 C 250.015625 284.449219 250.210938 284.261719 250.425781 284.101562 C 250.644531 283.941406 250.878906 283.808594 251.125 283.707031 C 251.375 283.601562 251.632812 283.53125 251.902344 283.492188 C 252.167969 283.453125 252.4375 283.445312 252.707031 283.472656 C 252.972656 283.5 253.234375 283.558594 253.492188 283.648438 C 253.746094 283.738281 253.984375 283.859375 254.207031 284.007812 C 254.433594 284.160156 254.636719 284.335938 254.816406 284.535156 C 255 284.734375 255.152344 284.953125 255.28125 285.191406 C 255.40625 285.429688 255.503906 285.679688 255.570312 285.941406 C 255.636719 286.203125 255.667969 286.46875 255.667969 286.742188 C 255.667969 287.011719 255.636719 287.277344 255.570312 287.539062 C 255.503906 287.800781 255.40625 288.050781 255.28125 288.289062 C 255.152344 288.527344 255 288.746094 254.816406 288.945312 C 254.636719 289.148438 254.433594 289.320312 254.207031 289.472656 C 253.984375 289.621094 253.746094 289.742188 253.492188 289.832031 C 253.234375 289.925781 252.972656 289.984375 252.707031 290.007812 C 252.4375 290.035156 252.167969 290.027344 251.902344 289.988281 C 251.632812 289.949219 251.375 289.878906 251.125 289.773438 C 250.878906 289.671875 250.644531 289.539062 250.425781 289.378906 C 250.210938 289.21875 250.015625 289.03125 249.84375 288.824219 C 249.671875 288.613281 249.53125 288.386719 249.414062 288.144531 C 249.300781 287.898438 249.214844 287.644531 249.164062 287.378906 L 238.699219 287.378906 L 238.699219 292.429688 Z M 280.578125 292.429688 " fill-opacity="1" fill-rule="nonzero"/><g clip-path="url(#b27041ed1c)"><path fill="#000000" d="M 192.097656 237.832031 L 192.097656 238.765625 L 200.238281 238.765625 L 200.238281 240.910156 L 219.851562 240.910156 L 219.851562 238.765625 L 230.511719 238.765625 L 230.511719 244.335938 L 219.851562 244.335938 L 219.851562 242.191406 L 200.234375 242.191406 L 200.234375 244.335938 L 192.089844 244.335938 L 192.089844 250.484375 L 199.804688 250.484375 L 199.804688 252.628906 L 242.546875 252.628906 L 297.257812 197.917969 L 332.511719 197.917969 C 332.566406 197.65625 332.648438 197.402344 332.765625 197.15625 C 332.878906 196.914062 333.023438 196.6875 333.195312 196.476562 C 333.367188 196.269531 333.558594 196.082031 333.777344 195.921875 C 333.992188 195.761719 334.226562 195.628906 334.476562 195.527344 C 334.726562 195.421875 334.984375 195.351562 335.25 195.3125 C 335.519531 195.273438 335.785156 195.265625 336.054688 195.292969 C 336.324219 195.316406 336.585938 195.378906 336.839844 195.46875 C 337.09375 195.558594 337.332031 195.679688 337.558594 195.828125 C 337.78125 195.980469 337.984375 196.152344 338.164062 196.355469 C 338.347656 196.554688 338.5 196.773438 338.628906 197.011719 C 338.753906 197.25 338.851562 197.5 338.917969 197.761719 C 338.984375 198.023438 339.015625 198.289062 339.015625 198.558594 C 339.015625 198.828125 338.984375 199.09375 338.917969 199.355469 C 338.851562 199.617188 338.753906 199.867188 338.628906 200.105469 C 338.5 200.34375 338.347656 200.5625 338.164062 200.765625 C 337.984375 200.964844 337.78125 201.140625 337.558594 201.289062 C 337.332031 201.4375 337.09375 201.558594 336.839844 201.652344 C 336.585938 201.742188 336.324219 201.800781 336.054688 201.828125 C 335.785156 201.851562 335.519531 201.847656 335.25 201.804688 C 334.984375 201.765625 334.726562 201.695312 334.476562 201.59375 C 334.226562 201.488281 333.992188 201.355469 333.777344 201.195312 C 333.558594 201.035156 333.367188 200.851562 333.195312 200.640625 C 333.023438 200.433594 332.878906 200.207031 332.765625 199.960938 C 332.648438 199.71875 332.566406 199.464844 332.511719 199.199219 L 297.789062 199.199219 L 243.078125 253.910156 L 199.808594 253.910156 L 199.808594 256.058594 L 192.097656 256.058594 L 192.097656 262.203125 L 200.238281 262.203125 L 200.238281 264.351562 L 245.628906 264.351562 L 293.371094 216.609375 C 293.222656 216.382812 293.105469 216.140625 293.019531 215.886719 C 292.929688 215.632812 292.875 215.367188 292.851562 215.097656 C 292.828125 214.828125 292.839844 214.5625 292.882812 214.292969 C 292.925781 214.027344 293 213.769531 293.105469 213.523438 C 293.214844 213.273438 293.347656 213.042969 293.511719 212.828125 C 293.675781 212.609375 293.863281 212.417969 294.074219 212.25 C 294.285156 212.082031 294.515625 211.941406 294.761719 211.828125 C 295.003906 211.714844 295.261719 211.636719 295.527344 211.585938 C 295.792969 211.535156 296.0625 211.519531 296.332031 211.535156 C 296.601562 211.554688 296.863281 211.601562 297.121094 211.683594 C 297.378906 211.765625 297.625 211.878906 297.855469 212.019531 C 298.082031 212.160156 298.292969 212.328125 298.480469 212.523438 C 298.671875 212.714844 298.832031 212.929688 298.96875 213.164062 C 299.105469 213.398438 299.210938 213.644531 299.285156 213.902344 C 299.359375 214.164062 299.402344 214.429688 299.414062 214.699219 C 299.421875 214.96875 299.398438 215.234375 299.34375 215.5 C 299.289062 215.765625 299.199219 216.019531 299.082031 216.261719 C 298.960938 216.503906 298.816406 216.730469 298.640625 216.9375 C 298.46875 217.144531 298.269531 217.324219 298.050781 217.484375 C 297.832031 217.640625 297.597656 217.769531 297.347656 217.871094 C 297.09375 217.972656 296.835938 218.039062 296.566406 218.074219 C 296.300781 218.113281 296.03125 218.113281 295.761719 218.085938 C 295.492188 218.054688 295.234375 217.992188 294.980469 217.898438 C 294.726562 217.804688 294.488281 217.679688 294.265625 217.527344 L 268.140625 243.652344 L 280.707031 243.652344 L 291.609375 232.75 C 291.414062 232.558594 291.242188 232.351562 291.097656 232.121094 C 290.953125 231.890625 290.839844 231.644531 290.753906 231.386719 C 290.671875 231.128906 290.621094 230.863281 290.601562 230.589844 C 290.582031 230.320312 290.597656 230.050781 290.644531 229.78125 C 290.691406 229.515625 290.769531 229.257812 290.882812 229.007812 C 290.992188 228.757812 291.132812 228.527344 291.300781 228.3125 C 291.46875 228.101562 291.660156 227.910156 291.875 227.742188 C 292.089844 227.578125 292.320312 227.4375 292.570312 227.328125 C 292.820312 227.21875 293.078125 227.140625 293.347656 227.09375 C 293.613281 227.050781 293.882812 227.035156 294.15625 227.058594 C 294.425781 227.078125 294.691406 227.132812 294.949219 227.21875 C 295.207031 227.304688 295.453125 227.417969 295.679688 227.566406 C 295.910156 227.710938 296.121094 227.882812 296.308594 228.078125 C 296.496094 228.277344 296.65625 228.496094 296.789062 228.730469 C 296.921875 228.96875 297.027344 229.21875 297.097656 229.480469 C 297.171875 229.742188 297.210938 230.007812 297.214844 230.28125 C 297.222656 230.554688 297.195312 230.820312 297.136719 231.085938 C 297.078125 231.351562 296.984375 231.605469 296.863281 231.851562 C 296.742188 232.09375 296.589844 232.316406 296.414062 232.523438 C 296.234375 232.730469 296.035156 232.910156 295.8125 233.066406 C 295.589844 233.222656 295.351562 233.351562 295.097656 233.449219 C 294.84375 233.546875 294.582031 233.613281 294.3125 233.648438 C 294.042969 233.679688 293.773438 233.679688 293.503906 233.648438 C 293.230469 233.613281 292.96875 233.550781 292.714844 233.453125 L 281.238281 244.929688 L 266.855469 244.929688 L 246.15625 265.628906 L 200.238281 265.628906 L 200.238281 267.777344 L 192.097656 267.777344 L 192.097656 273.792969 L 200.238281 273.792969 L 200.238281 275.933594 L 205.734375 275.933594 C 205.785156 275.671875 205.871094 275.414062 205.984375 275.171875 C 206.101562 274.925781 206.242188 274.703125 206.414062 274.492188 C 206.585938 274.285156 206.78125 274.097656 206.996094 273.9375 C 207.214844 273.777344 207.449219 273.644531 207.695312 273.542969 C 207.945312 273.4375 208.203125 273.367188 208.472656 273.328125 C 208.738281 273.289062 209.007812 273.28125 209.273438 273.308594 C 209.542969 273.332031 209.804688 273.390625 210.058594 273.484375 C 210.3125 273.574219 210.554688 273.695312 210.777344 273.84375 C 211 273.996094 211.203125 274.167969 211.386719 274.371094 C 211.566406 274.570312 211.722656 274.789062 211.847656 275.027344 C 211.976562 275.265625 212.074219 275.515625 212.136719 275.777344 C 212.203125 276.039062 212.238281 276.304688 212.238281 276.574219 C 212.238281 276.84375 212.203125 277.109375 212.136719 277.371094 C 212.074219 277.632812 211.976562 277.882812 211.847656 278.121094 C 211.722656 278.359375 211.566406 278.578125 211.386719 278.78125 C 211.203125 278.980469 211 279.15625 210.777344 279.304688 C 210.554688 279.453125 210.3125 279.574219 210.058594 279.664062 C 209.804688 279.757812 209.542969 279.816406 209.273438 279.84375 C 209.007812 279.867188 208.738281 279.863281 208.472656 279.820312 C 208.203125 279.78125 207.945312 279.710938 207.695312 279.609375 C 207.449219 279.503906 207.214844 279.371094 206.996094 279.210938 C 206.78125 279.050781 206.585938 278.867188 206.414062 278.65625 C 206.242188 278.449219 206.101562 278.222656 205.984375 277.976562 C 205.871094 277.734375 205.785156 277.480469 205.734375 277.214844 L 200.238281 277.214844 L 200.238281 279.363281 L 192.097656 279.363281 L 192.097656 285.375 L 200.238281 285.375 L 200.238281 287.523438 L 227.660156 287.523438 L 238.847656 276.34375 L 270.785156 276.34375 L 304.90625 242.21875 L 305.09375 242.035156 L 348.53125 242.035156 C 348.554688 241.738281 348.601562 241.449219 348.667969 241.160156 C 348.730469 240.871094 348.8125 240.589844 348.914062 240.3125 C 349.011719 240.035156 349.128906 239.761719 349.265625 239.5 C 349.398438 239.238281 349.550781 238.984375 349.714844 238.742188 C 349.882812 238.496094 350.066406 238.265625 350.261719 238.042969 C 350.457031 237.824219 350.667969 237.617188 350.890625 237.421875 C 351.113281 237.230469 351.347656 237.050781 351.59375 236.886719 C 351.835938 236.722656 352.09375 236.574219 352.355469 236.441406 C 352.621094 236.3125 352.890625 236.195312 353.171875 236.101562 C 353.449219 236.003906 353.734375 235.921875 354.023438 235.863281 C 354.3125 235.800781 354.601562 235.757812 354.898438 235.734375 C 355.191406 235.710938 355.484375 235.707031 355.78125 235.71875 C 356.074219 235.734375 356.367188 235.765625 356.660156 235.816406 C 356.949219 235.867188 357.234375 235.9375 357.519531 236.023438 C 357.800781 236.109375 358.074219 236.214844 358.34375 236.335938 C 358.613281 236.460938 358.871094 236.597656 359.125 236.753906 C 359.375 236.910156 359.613281 237.082031 359.84375 237.265625 C 360.074219 237.453125 360.289062 237.652344 360.496094 237.867188 C 360.699219 238.078125 360.886719 238.304688 361.0625 238.542969 C 361.238281 238.78125 361.398438 239.027344 361.542969 239.285156 C 361.683594 239.542969 361.8125 239.808594 361.921875 240.082031 C 362.03125 240.355469 362.125 240.636719 362.199219 240.921875 C 362.273438 241.207031 362.328125 241.496094 362.363281 241.789062 C 362.402344 242.082031 362.421875 242.378906 362.421875 242.671875 C 362.421875 242.96875 362.402344 243.261719 362.363281 243.554688 C 362.328125 243.847656 362.273438 244.136719 362.199219 244.421875 C 362.125 244.707031 362.03125 244.988281 361.921875 245.261719 C 361.8125 245.535156 361.683594 245.800781 361.542969 246.058594 C 361.398438 246.316406 361.238281 246.566406 361.0625 246.804688 C 360.886719 247.042969 360.699219 247.265625 360.496094 247.480469 C 360.289062 247.695312 360.074219 247.894531 359.84375 248.078125 C 359.613281 248.265625 359.375 248.4375 359.125 248.589844 C 358.871094 248.746094 358.613281 248.886719 358.34375 249.007812 C 358.074219 249.128906 357.800781 249.234375 357.519531 249.320312 C 357.234375 249.410156 356.949219 249.476562 356.660156 249.527344 C 356.367188 249.582031 356.074219 249.613281 355.78125 249.625 C 355.484375 249.640625 355.191406 249.632812 354.898438 249.609375 C 354.601562 249.585938 354.3125 249.542969 354.023438 249.484375 C 353.734375 249.421875 353.449219 249.34375 353.171875 249.246094 C 352.890625 249.148438 352.621094 249.035156 352.355469 248.902344 C 352.09375 248.769531 351.835938 248.625 351.59375 248.460938 C 351.347656 248.296875 351.113281 248.117188 350.890625 247.921875 C 350.667969 247.726562 350.457031 247.519531 350.261719 247.300781 C 350.066406 247.082031 349.882812 246.847656 349.714844 246.605469 C 349.550781 246.359375 349.398438 246.109375 349.265625 245.84375 C 349.128906 245.582031 349.011719 245.3125 348.914062 245.035156 C 348.8125 244.757812 348.730469 244.472656 348.667969 244.183594 C 348.601562 243.898438 348.554688 243.605469 348.53125 243.3125 L 305.625 243.3125 L 280.03125 268.898438 L 291.3125 268.898438 L 302.753906 257.460938 C 302.601562 257.234375 302.480469 256.996094 302.390625 256.742188 C 302.300781 256.488281 302.242188 256.226562 302.214844 255.957031 C 302.1875 255.6875 302.195312 255.417969 302.234375 255.152344 C 302.273438 254.886719 302.34375 254.628906 302.449219 254.378906 C 302.550781 254.128906 302.683594 253.894531 302.84375 253.679688 C 303.003906 253.460938 303.191406 253.265625 303.398438 253.09375 C 303.609375 252.925781 303.835938 252.78125 304.078125 252.664062 C 304.324219 252.550781 304.578125 252.464844 304.84375 252.414062 C 305.105469 252.359375 305.375 252.339844 305.644531 252.351562 C 305.914062 252.367188 306.179688 252.414062 306.4375 252.492188 C 306.695312 252.570312 306.941406 252.679688 307.171875 252.816406 C 307.402344 252.957031 307.613281 253.121094 307.804688 253.3125 C 307.996094 253.503906 308.160156 253.714844 308.300781 253.945312 C 308.4375 254.175781 308.546875 254.421875 308.625 254.679688 C 308.703125 254.9375 308.75 255.203125 308.761719 255.472656 C 308.777344 255.742188 308.757812 256.011719 308.703125 256.273438 C 308.652344 256.539062 308.566406 256.792969 308.453125 257.039062 C 308.335938 257.28125 308.191406 257.507812 308.023438 257.71875 C 307.851562 257.925781 307.65625 258.113281 307.4375 258.273438 C 307.222656 258.433594 306.988281 258.566406 306.738281 258.667969 C 306.488281 258.773438 306.230469 258.84375 305.964844 258.882812 C 305.695312 258.921875 305.429688 258.929688 305.160156 258.902344 C 304.890625 258.875 304.628906 258.816406 304.375 258.726562 C 304.121094 258.636719 303.882812 258.515625 303.65625 258.363281 L 291.84375 270.179688 L 278.753906 270.179688 L 271.496094 277.429688 L 271.308594 277.617188 L 239.367188 277.617188 L 228.183594 288.800781 L 200.234375 288.800781 L 200.234375 290.945312 L 192.089844 290.945312 L 192.089844 296.964844 L 200.984375 296.964844 L 200.984375 299.109375 L 237.253906 299.109375 L 253.246094 315.101562 L 260.507812 315.101562 L 272.449219 303.164062 L 298.179688 303.164062 L 298.179688 299.980469 L 312.792969 299.980469 L 312.792969 307.625 L 298.179688 307.625 L 298.179688 304.441406 L 272.984375 304.441406 L 262.324219 315.101562 L 280.210938 315.101562 L 280.210938 312.019531 L 294.820312 312.019531 L 294.820312 319.660156 L 280.210938 319.660156 L 280.210938 316.394531 L 252.722656 316.394531 L 236.730469 300.402344 L 200.992188 300.402344 L 200.992188 302.546875 L 192.097656 302.546875 L 192.097656 307.492188 L 200.992188 307.492188 L 200.992188 309.636719 L 228.359375 309.636719 L 253.128906 334.40625 L 272.960938 334.40625 C 273.015625 334.140625 273.097656 333.886719 273.214844 333.640625 C 273.328125 333.398438 273.472656 333.171875 273.644531 332.960938 C 273.816406 332.753906 274.007812 332.570312 274.226562 332.40625 C 274.441406 332.246094 274.675781 332.113281 274.925781 332.011719 C 275.175781 331.90625 275.433594 331.835938 275.699219 331.796875 C 275.964844 331.757812 276.234375 331.75 276.503906 331.777344 C 276.773438 331.804688 277.035156 331.863281 277.289062 331.953125 C 277.542969 332.042969 277.78125 332.164062 278.003906 332.3125 C 278.230469 332.464844 278.433594 332.640625 278.613281 332.839844 C 278.796875 333.039062 278.949219 333.257812 279.078125 333.496094 C 279.203125 333.734375 279.300781 333.984375 279.367188 334.246094 C 279.433594 334.507812 279.464844 334.773438 279.464844 335.042969 C 279.464844 335.3125 279.433594 335.582031 279.367188 335.84375 C 279.300781 336.105469 279.203125 336.355469 279.078125 336.59375 C 278.949219 336.828125 278.796875 337.050781 278.613281 337.25 C 278.433594 337.449219 278.230469 337.625 278.003906 337.773438 C 277.78125 337.925781 277.542969 338.042969 277.289062 338.136719 C 277.035156 338.226562 276.773438 338.285156 276.503906 338.3125 C 276.234375 338.339844 275.964844 338.332031 275.699219 338.292969 C 275.433594 338.253906 275.175781 338.179688 274.925781 338.078125 C 274.675781 337.972656 274.441406 337.839844 274.226562 337.679688 C 274.007812 337.519531 273.816406 337.335938 273.644531 337.125 C 273.472656 336.917969 273.328125 336.691406 273.214844 336.445312 C 273.097656 336.203125 273.015625 335.949219 272.960938 335.683594 L 252.597656 335.683594 L 227.828125 310.914062 L 200.984375 310.914062 L 200.984375 313.058594 L 192.09375 313.058594 L 192.09375 317.726562 L 187.5 317.726562 L 187.5 237.828125 Z M 355.453125 245.726562 C 355.855469 245.722656 356.242188 245.644531 356.617188 245.492188 C 356.988281 245.335938 357.316406 245.113281 357.601562 244.828125 C 357.886719 244.542969 358.105469 244.214844 358.261719 243.839844 C 358.414062 243.46875 358.492188 243.078125 358.488281 242.675781 C 358.488281 242.273438 358.410156 241.882812 358.257812 241.511719 C 358.101562 241.136719 357.882812 240.808594 357.59375 240.523438 C 357.308594 240.238281 356.980469 240.019531 356.609375 239.867188 C 356.234375 239.710938 355.847656 239.632812 355.441406 239.636719 C 355.039062 239.636719 354.652344 239.710938 354.277344 239.867188 C 353.90625 240.023438 353.574219 240.242188 353.289062 240.527344 C 353.003906 240.8125 352.785156 241.140625 352.632812 241.515625 C 352.476562 241.886719 352.398438 242.277344 352.398438 242.679688 C 352.402344 243.085938 352.480469 243.472656 352.636719 243.84375 C 352.789062 244.21875 353.011719 244.546875 353.296875 244.832031 C 353.582031 245.117188 353.914062 245.339844 354.285156 245.492188 C 354.660156 245.648438 355.046875 245.726562 355.453125 245.726562 Z M 355.453125 245.726562 " fill-opacity="1" fill-rule="nonzero"/></g><path fill="#000000" d="M 313.476562 133.714844 L 230.796875 133.714844 C 229.210938 133.714844 228.445312 135.644531 229.554688 136.753906 C 240.027344 147.269531 255.195312 153.894531 272.136719 153.894531 C 289.0625 153.894531 304.246094 147.253906 314.722656 136.753906 C 315.847656 135.644531 315.0625 133.714844 313.476562 133.714844 Z M 313.476562 133.714844 " fill-opacity="1" fill-rule="nonzero"/><g clip-path="url(#6c21393fe8)"><path fill="#000000" d="M 235.695312 130.027344 L 270.925781 59.566406 L 272.136719 131.050781 L 273.347656 59.601562 L 308.597656 130.027344 L 272.582031 52.925781 L 293.855469 52.261719 C 293.976562 54.90625 296.125 56.988281 298.789062 56.988281 C 301.515625 56.988281 303.753906 54.789062 303.753906 52.023438 C 303.753906 49.289062 301.515625 47.054688 298.789062 47.054688 C 296.144531 47.054688 293.992188 49.171875 293.855469 51.816406 L 225.304688 49.664062 L 193.589844 35.171875 L 193.570312 35.171875 L 187.292969 7.324219 L 181.015625 35.171875 L 149.296875 49.664062 L 80.746094 51.816406 C 80.574219 49.171875 78.476562 47.054688 75.8125 47.054688 C 73.085938 47.054688 70.847656 49.289062 70.847656 52.023438 C 70.847656 54.804688 73.085938 56.988281 75.8125 56.988281 C 78.457031 56.988281 80.574219 54.925781 80.746094 52.261719 L 101.988281 52.925781 L 66.003906 130.027344 L 101.21875 59.585938 L 102.429688 131.050781 L 103.640625 59.585938 L 138.90625 130.027344 L 102.925781 52.976562 L 149.792969 54.394531 C 150.117188 54.394531 150.457031 54.359375 150.746094 54.222656 L 150.78125 54.191406 L 180.996094 40.359375 L 187.292969 200.109375 L 193.589844 40.359375 L 223.769531 54.191406 L 223.855469 54.222656 C 224.144531 54.34375 224.433594 54.394531 224.808594 54.394531 L 271.675781 52.976562 Z M 235.695312 130.027344 " fill-opacity="1" fill-rule="nonzero"/></g><path fill="#000000" d="M 143.785156 133.714844 L 61.109375 133.714844 C 59.519531 133.714844 58.753906 135.644531 59.863281 136.753906 C 70.335938 147.269531 85.503906 153.894531 102.445312 153.894531 C 119.371094 153.894531 134.554688 147.253906 145.03125 136.753906 C 146.140625 135.644531 145.375 133.714844 143.785156 133.714844 Z M 143.785156 133.714844 " fill-opacity="1" fill-rule="nonzero"/><g fill="#00ff41" fill-opacity="1"><g transform="translate(6.005863, 211.250012)"><g><path d="M 17.90625 0.9375 C 14.289062 0.9375 11.242188 0.171875 8.765625 -1.359375 C 6.296875 -2.890625 4.421875 -5.144531 3.140625 -8.125 C 1.867188 -11.101562 1.234375 -14.773438 1.234375 -19.140625 C 1.234375 -22.378906 1.6875 -25.238281 2.59375 -27.71875 C 3.5 -30.207031 4.757812 -32.289062 6.375 -33.96875 C 7.988281 -35.65625 9.867188 -36.925781 12.015625 -37.78125 C 14.160156 -38.644531 16.472656 -39.078125 18.953125 -39.078125 C 21.734375 -39.078125 24.078125 -38.644531 25.984375 -37.78125 C 27.890625 -36.925781 29.585938 -35.789062 31.078125 -34.375 L 26.34375 -29.484375 C 25.1875 -30.503906 24.078125 -31.257812 23.015625 -31.75 C 21.953125 -32.25 20.742188 -32.5 19.390625 -32.5 C 18.109375 -32.5 16.929688 -32.25 15.859375 -31.75 C 14.785156 -31.25 13.847656 -30.460938 13.046875 -29.390625 C 12.253906 -28.316406 11.632812 -26.929688 11.1875 -25.234375 C 10.75 -23.535156 10.53125 -21.484375 10.53125 -19.078125 C 10.53125 -15.765625 10.800781 -13.125 11.34375 -11.15625 C 11.882812 -9.195312 12.703125 -7.789062 13.796875 -6.9375 C 14.898438 -6.09375 16.296875 -5.671875 17.984375 -5.671875 C 18.878906 -5.671875 19.722656 -5.773438 20.515625 -5.984375 C 21.304688 -6.191406 22.039062 -6.46875 22.71875 -6.8125 L 22.71875 -15.53125 L 17.9375 -15.53125 L 17.046875 -21.859375 L 31.234375 -21.859375 L 31.234375 -2.921875 C 29.328125 -1.742188 27.28125 -0.804688 25.09375 -0.109375 C 22.90625 0.585938 20.507812 0.9375 17.90625 0.9375 Z M 17.90625 0.9375 "/></g></g></g><g fill="#00ff41" fill-opacity="1"><g transform="translate(39.00347, 211.250012)"><g><path d="M 4.125 0 L 4.125 -5.828125 L 7.96875 -5.828125 L 7.96875 -23.4375 L 4.125 -23.4375 L 4.125 -29.203125 L 14.609375 -29.203125 L 16.203125 -22.625 C 17.242188 -25.144531 18.570312 -27.015625 20.1875 -28.234375 C 21.8125 -29.460938 23.800781 -30.078125 26.15625 -30.078125 C 27.144531 -30.078125 28.023438 -30 28.796875 -29.84375 C 29.566406 -29.695312 30.289062 -29.484375 30.96875 -29.203125 L 28.328125 -22.03125 C 27.796875 -22.175781 27.265625 -22.285156 26.734375 -22.359375 C 26.203125 -22.429688 25.613281 -22.46875 24.96875 -22.46875 C 23.0625 -22.46875 21.390625 -21.6875 19.953125 -20.125 C 18.515625 -18.570312 17.421875 -16.59375 16.671875 -14.1875 L 16.671875 -5.828125 L 22.4375 -5.828125 L 22.4375 0 Z M 23.890625 -17 L 23.890625 -25.515625 L 25.1875 -29.203125 L 30.96875 -29.203125 L 29.34375 -17 Z M 23.890625 -17 "/></g></g></g><g fill="#00ff41" fill-opacity="1"><g transform="translate(72.001076, 211.250012)"><g><path d="M 11.390625 -12.078125 C 11.585938 -10.484375 12 -9.191406 12.625 -8.203125 C 13.257812 -7.222656 14.070312 -6.507812 15.0625 -6.0625 C 16.0625 -5.613281 17.171875 -5.390625 18.390625 -5.390625 C 19.734375 -5.390625 21.023438 -5.609375 22.265625 -6.046875 C 23.515625 -6.484375 24.71875 -7.070312 25.875 -7.8125 L 29.375 -3.078125 C 28 -1.898438 26.332031 -0.9375 24.375 -0.1875 C 22.425781 0.5625 20.203125 0.9375 17.703125 0.9375 C 14.367188 0.9375 11.570312 0.273438 9.3125 -1.046875 C 7.0625 -2.378906 5.367188 -4.207031 4.234375 -6.53125 C 3.097656 -8.863281 2.53125 -11.546875 2.53125 -14.578125 C 2.53125 -17.453125 3.078125 -20.066406 4.171875 -22.421875 C 5.273438 -24.773438 6.882812 -26.65625 9 -28.0625 C 11.125 -29.46875 13.71875 -30.171875 16.78125 -30.171875 C 19.5625 -30.171875 21.972656 -29.570312 24.015625 -28.375 C 26.066406 -27.1875 27.65625 -25.472656 28.78125 -23.234375 C 29.90625 -20.992188 30.46875 -18.3125 30.46875 -15.1875 C 30.46875 -14.6875 30.453125 -14.148438 30.421875 -13.578125 C 30.398438 -13.015625 30.363281 -12.515625 30.3125 -12.078125 Z M 16.78125 -24.34375 C 15.21875 -24.34375 13.957031 -23.78125 13 -22.65625 C 12.050781 -21.539062 11.476562 -19.753906 11.28125 -17.296875 L 22 -17.296875 C 21.976562 -19.421875 21.5625 -21.125 20.75 -22.40625 C 19.945312 -23.695312 18.625 -24.34375 16.78125 -24.34375 Z M 16.78125 -24.34375 "/></g></g></g><g fill="#00ff41" fill-opacity="1"><g transform="translate(104.998682, 211.250012)"><g><path d="M 11.390625 -12.078125 C 11.585938 -10.484375 12 -9.191406 12.625 -8.203125 C 13.257812 -7.222656 14.070312 -6.507812 15.0625 -6.0625 C 16.0625 -5.613281 17.171875 -5.390625 18.390625 -5.390625 C 19.734375 -5.390625 21.023438 -5.609375 22.265625 -6.046875 C 23.515625 -6.484375 24.71875 -7.070312 25.875 -7.8125 L 29.375 -3.078125 C 28 -1.898438 26.332031 -0.9375 24.375 -0.1875 C 22.425781 0.5625 20.203125 0.9375 17.703125 0.9375 C 14.367188 0.9375 11.570312 0.273438 9.3125 -1.046875 C 7.0625 -2.378906 5.367188 -4.207031 4.234375 -6.53125 C 3.097656 -8.863281 2.53125 -11.546875 2.53125 -14.578125 C 2.53125 -17.453125 3.078125 -20.066406 4.171875 -22.421875 C 5.273438 -24.773438 6.882812 -26.65625 9 -28.0625 C 11.125 -29.46875 13.71875 -30.171875 16.78125 -30.171875 C 19.5625 -30.171875 21.972656 -29.570312 24.015625 -28.375 C 26.066406 -27.1875 27.65625 -25.472656 28.78125 -23.234375 C 29.90625 -20.992188 30.46875 -18.3125 30.46875 -15.1875 C 30.46875 -14.6875 30.453125 -14.148438 30.421875 -13.578125 C 30.398438 -13.015625 30.363281 -12.515625 30.3125 -12.078125 Z M 16.78125 -24.34375 C 15.21875 -24.34375 13.957031 -23.78125 13 -22.65625 C 12.050781 -21.539062 11.476562 -19.753906 11.28125 -17.296875 L 22 -17.296875 C 21.976562 -19.421875 21.5625 -21.125 20.75 -22.40625 C 19.945312 -23.695312 18.625 -24.34375 16.78125 -24.34375 Z M 16.78125 -24.34375 "/></g></g></g><g fill="#00ff41" fill-opacity="1"><g transform="translate(137.996288, 211.250012)"><g><path d="M 3.84375 0 L 3.84375 -29.203125 L 11.4375 -29.203125 L 12.046875 -25.828125 C 13.347656 -27.285156 14.722656 -28.375 16.171875 -29.09375 C 17.617188 -29.8125 19.269531 -30.171875 21.125 -30.171875 C 23.613281 -30.171875 25.570312 -29.410156 27 -27.890625 C 28.4375 -26.367188 29.15625 -24.222656 29.15625 -21.453125 L 29.15625 0 L 20.453125 0 L 20.453125 -18.953125 C 20.453125 -20.140625 20.367188 -21.085938 20.203125 -21.796875 C 20.046875 -22.503906 19.757812 -23.007812 19.34375 -23.3125 C 18.9375 -23.613281 18.375 -23.765625 17.65625 -23.765625 C 17.050781 -23.765625 16.457031 -23.628906 15.875 -23.359375 C 15.300781 -23.097656 14.738281 -22.71875 14.1875 -22.21875 C 13.632812 -21.726562 13.085938 -21.132812 12.546875 -20.4375 L 12.546875 0 Z M 3.84375 0 "/></g></g></g><g fill="#ffffff" fill-opacity="1"><g transform="translate(170.994138, 211.250012)"><g><path d="M 30.875 -26.53125 C 30.875 -24.71875 30.535156 -23.132812 29.859375 -21.78125 C 29.179688 -20.425781 28.265625 -19.28125 27.109375 -18.34375 C 25.953125 -17.40625 24.660156 -16.65625 23.234375 -16.09375 L 33.21875 0 L 23.015625 0 L 14.765625 -14.578125 L 12.203125 -14.578125 L 12.203125 0 L 3.1875 0 L 3.1875 -38.109375 L 15.1875 -38.109375 C 20.375 -38.109375 24.285156 -37.164062 26.921875 -35.28125 C 29.554688 -33.394531 30.875 -30.476562 30.875 -26.53125 Z M 21.59375 -26.53125 C 21.59375 -28.363281 21.054688 -29.695312 19.984375 -30.53125 C 18.910156 -31.375 17.316406 -31.796875 15.203125 -31.796875 L 12.203125 -31.796875 L 12.203125 -20.765625 L 15.5625 -20.765625 C 17.519531 -20.765625 19.015625 -21.222656 20.046875 -22.140625 C 21.078125 -23.054688 21.59375 -24.519531 21.59375 -26.53125 Z M 21.59375 -26.53125 "/></g></g></g><g fill="#ffffff" fill-opacity="1"><g transform="translate(203.991744, 211.250012)"><g><path d="M 11.390625 -12.078125 C 11.585938 -10.484375 12 -9.191406 12.625 -8.203125 C 13.257812 -7.222656 14.070312 -6.507812 15.0625 -6.0625 C 16.0625 -5.613281 17.171875 -5.390625 18.390625 -5.390625 C 19.734375 -5.390625 21.023438 -5.609375 22.265625 -6.046875 C 23.515625 -6.484375 24.71875 -7.070312 25.875 -7.8125 L 29.375 -3.078125 C 28 -1.898438 26.332031 -0.9375 24.375 -0.1875 C 22.425781 0.5625 20.203125 0.9375 17.703125 0.9375 C 14.367188 0.9375 11.570312 0.273438 9.3125 -1.046875 C 7.0625 -2.378906 5.367188 -4.207031 4.234375 -6.53125 C 3.097656 -8.863281 2.53125 -11.546875 2.53125 -14.578125 C 2.53125 -17.453125 3.078125 -20.066406 4.171875 -22.421875 C 5.273438 -24.773438 6.882812 -26.65625 9 -28.0625 C 11.125 -29.46875 13.71875 -30.171875 16.78125 -30.171875 C 19.5625 -30.171875 21.972656 -29.570312 24.015625 -28.375 C 26.066406 -27.1875 27.65625 -25.472656 28.78125 -23.234375 C 29.90625 -20.992188 30.46875 -18.3125 30.46875 -15.1875 C 30.46875 -14.6875 30.453125 -14.148438 30.421875 -13.578125 C 30.398438 -13.015625 30.363281 -12.515625 30.3125 -12.078125 Z M 16.78125 -24.34375 C 15.21875 -24.34375 13.957031 -23.78125 13 -22.65625 C 12.050781 -21.539062 11.476562 -19.753906 11.28125 -17.296875 L 22 -17.296875 C 21.976562 -19.421875 21.5625 -21.125 20.75 -22.40625 C 19.945312 -23.695312 18.625 -24.34375 16.78125 -24.34375 Z M 16.78125 -24.34375 "/></g></g></g><g fill="#ffffff" fill-opacity="1"><g transform="translate(236.98935, 211.250012)"><g><path d="M 29.78125 -33.875 L 31.8125 -27.5 C 30.789062 -27.09375 29.59375 -26.796875 28.21875 -26.609375 C 26.84375 -26.429688 25.238281 -26.34375 23.40625 -26.34375 C 25.238281 -25.550781 26.632812 -24.570312 27.59375 -23.40625 C 28.5625 -22.25 29.046875 -20.726562 29.046875 -18.84375 C 29.046875 -16.945312 28.539062 -15.257812 27.53125 -13.78125 C 26.519531 -12.3125 25.085938 -11.15625 23.234375 -10.3125 C 21.378906 -9.46875 19.191406 -9.046875 16.671875 -9.046875 C 16.046875 -9.046875 15.457031 -9.070312 14.90625 -9.125 C 14.351562 -9.1875 13.8125 -9.269531 13.28125 -9.375 C 12.96875 -9.207031 12.726562 -8.96875 12.5625 -8.65625 C 12.394531 -8.34375 12.3125 -8.023438 12.3125 -7.703125 C 12.3125 -7.242188 12.5 -6.828125 12.875 -6.453125 C 13.257812 -6.085938 14.144531 -5.90625 15.53125 -5.90625 L 20.328125 -5.90625 C 22.597656 -5.90625 24.5625 -5.539062 26.21875 -4.8125 C 27.875 -4.082031 29.160156 -3.082031 30.078125 -1.8125 C 30.992188 -0.550781 31.453125 0.894531 31.453125 2.53125 C 31.453125 5.519531 30.140625 7.875 27.515625 9.59375 C 24.898438 11.320312 21.007812 12.1875 15.84375 12.1875 C 12.101562 12.1875 9.207031 11.804688 7.15625 11.046875 C 5.113281 10.285156 3.691406 9.203125 2.890625 7.796875 C 2.097656 6.390625 1.703125 4.726562 1.703125 2.8125 L 9.40625 2.8125 C 9.40625 3.644531 9.570312 4.332031 9.90625 4.875 C 10.25 5.414062 10.898438 5.816406 11.859375 6.078125 C 12.828125 6.335938 14.226562 6.46875 16.0625 6.46875 C 17.914062 6.46875 19.328125 6.316406 20.296875 6.015625 C 21.265625 5.722656 21.925781 5.320312 22.28125 4.8125 C 22.644531 4.3125 22.828125 3.753906 22.828125 3.140625 C 22.828125 2.273438 22.488281 1.578125 21.8125 1.046875 C 21.132812 0.515625 20.0625 0.25 18.59375 0.25 L 13.9375 0.25 C 10.789062 0.25 8.5 -0.332031 7.0625 -1.5 C 5.632812 -2.664062 4.921875 -4.023438 4.921875 -5.578125 C 4.921875 -6.660156 5.207031 -7.6875 5.78125 -8.65625 C 6.363281 -9.632812 7.175781 -10.453125 8.21875 -11.109375 C 6.351562 -12.097656 5.015625 -13.265625 4.203125 -14.609375 C 3.398438 -15.960938 3 -17.582031 3 -19.46875 C 3 -21.664062 3.554688 -23.554688 4.671875 -25.140625 C 5.796875 -26.734375 7.34375 -27.957031 9.3125 -28.8125 C 11.28125 -29.675781 13.53125 -30.109375 16.0625 -30.109375 C 18.238281 -30.078125 20.132812 -30.226562 21.75 -30.5625 C 23.363281 -30.90625 24.8125 -31.375 26.09375 -31.96875 C 27.375 -32.5625 28.601562 -33.195312 29.78125 -33.875 Z M 16.28125 -24.46875 C 14.90625 -24.46875 13.8125 -24.03125 13 -23.15625 C 12.195312 -22.289062 11.796875 -21.097656 11.796875 -19.578125 C 11.796875 -17.960938 12.207031 -16.722656 13.03125 -15.859375 C 13.851562 -15.003906 14.9375 -14.578125 16.28125 -14.578125 C 17.726562 -14.578125 18.832031 -15.003906 19.59375 -15.859375 C 20.351562 -16.722656 20.734375 -18 20.734375 -19.6875 C 20.734375 -21.320312 20.359375 -22.523438 19.609375 -23.296875 C 18.859375 -24.078125 17.75 -24.46875 16.28125 -24.46875 Z M 16.28125 -24.46875 "/></g></g></g><g fill="#ffffff" fill-opacity="1"><g transform="translate(269.986956, 211.250012)"><g><path d="M 12.546875 -29.203125 L 12.546875 -9.21875 C 12.546875 -7.800781 12.804688 -6.828125 13.328125 -6.296875 C 13.847656 -5.765625 14.578125 -5.5 15.515625 -5.5 C 16.410156 -5.5 17.304688 -5.78125 18.203125 -6.34375 C 19.097656 -6.914062 19.847656 -7.6875 20.453125 -8.65625 L 20.453125 -29.203125 L 29.15625 -29.203125 L 29.15625 0 L 21.5625 0 L 21.171875 -3.40625 C 20.179688 -1.976562 18.878906 -0.894531 17.265625 -0.15625 C 15.648438 0.570312 13.960938 0.9375 12.203125 0.9375 C 9.378906 0.9375 7.28125 0.117188 5.90625 -1.515625 C 4.53125 -3.160156 3.84375 -5.367188 3.84375 -8.140625 L 3.84375 -29.203125 Z M 12.546875 -29.203125 "/></g></g></g><g fill="#00b4d8" fill-opacity="1"><g transform="translate(302.994129, 211.250012)"><g><path d="M 22 -8.21875 L 10.828125 -8.21875 L 8.828125 0 L -0.609375 0 L 11.0625 -38.109375 L 22 -38.109375 L 33.65625 0 L 24 0 Z M 12.265625 -14.765625 L 20.515625 -14.765625 L 16.390625 -31.625 Z M 12.265625 -14.765625 "/></g></g></g><g fill="#00b4d8" fill-opacity="1"><g transform="translate(335.991735, 211.250012)"><g><path d="M 28.875 -38.109375 L 28.875 -31.515625 L 21.015625 -31.515625 L 21.015625 -6.625 L 28.875 -6.625 L 28.875 0 L 4.125 0 L 4.125 -6.625 L 11.984375 -6.625 L 11.984375 -31.515625 L 4.125 -31.515625 L 4.125 -38.109375 Z M 28.875 -38.109375 "/></g></g></g></svg>