<svg xmlns="http://www.w3.org/2000/svg" xmlns:xlink="http://www.w3.org/1999/xlink" width="400" zoomAndPan="magnify" viewBox="0 0 300 149.999998" height="200" preserveAspectRatio="xMidYMid meet" version="1.0"><defs><g/><clipPath id="d86de44d62"><path d="M 42.097656 40 L 298.535156 40 L 298.535156 89 L 42.097656 89 Z M 42.097656 40 " clip-rule="nonzero"/></clipPath><clipPath id="ce0c6b2cde"><path d="M 42.097656 29 L 298.535156 29 L 298.535156 89 L 42.097656 89 Z M 42.097656 29 " clip-rule="nonzero"/></clipPath><clipPath id="e95967fa38"><path d="M 42.097656 59 L 65 59 L 65 102 L 42.097656 102 Z M 42.097656 59 " clip-rule="nonzero"/></clipPath><clipPath id="799b61f322"><path d="M 42.097656 67 L 65 67 L 65 102 L 42.097656 102 Z M 42.097656 67 " clip-rule="nonzero"/></clipPath><clipPath id="9f9f665a89"><path d="M 42.097656 57 L 120 57 L 120 93 L 42.097656 93 Z M 42.097656 57 " clip-rule="nonzero"/></clipPath><clipPath id="fca7500f4e"><path d="M 98 34 L 298.535156 34 L 298.535156 80 L 98 80 Z M 98 34 " clip-rule="nonzero"/></clipPath><clipPath id="c1777c4819"><path d="M 42.097656 56 L 96 56 L 96 81 L 42.097656 81 Z M 42.097656 56 " clip-rule="nonzero"/></clipPath><clipPath id="30fec419d5"><path d="M 194 28 L 298.535156 28 L 298.535156 83 L 194 83 Z M 194 28 " clip-rule="nonzero"/></clipPath><clipPath id="7ba7bcbf29"><path d="M 290 50 L 298.535156 50 L 298.535156 56 L 290 56 Z M 290 50 " clip-rule="nonzero"/></clipPath><clipPath id="8b7c047638"><path d="M 297 44 L 298.535156 44 L 298.535156 64 L 297 64 Z M 297 44 " clip-rule="nonzero"/></clipPath><clipPath id="3ee4989bcb"><path d="M 49 98 L 54 98 L 54 102.335938 L 49 102.335938 Z M 49 98 " clip-rule="nonzero"/></clipPath><clipPath id="66c549b4a3"><path d="M 212 24.335938 L 216 24.335938 L 216 27 L 212 27 Z M 212 24.335938 " clip-rule="nonzero"/></clipPath><clipPath id="86fa6450e0"><path d="M 296 61 L 298.535156 61 L 298.535156 65 L 296 65 Z M 296 61 " clip-rule="nonzero"/></clipPath></defs><g fill="#000000" fill-opacity="1"><g transform="translate(0.0000025, 121.492934)"><g><path d="M 1.671875 -7.46875 L 10.125 -11.703125 L 10.125 -9.921875 L 4.03125 -6.953125 C 3.875 -6.878906 3.726562 -6.816406 3.59375 -6.765625 C 3.46875 -6.710938 3.359375 -6.671875 3.265625 -6.640625 C 3.148438 -6.597656 3.046875 -6.570312 2.953125 -6.5625 L 2.953125 -6.421875 C 3.046875 -6.410156 3.148438 -6.394531 3.265625 -6.375 C 3.359375 -6.34375 3.46875 -6.300781 3.59375 -6.25 C 3.726562 -6.195312 3.875 -6.128906 4.03125 -6.046875 L 10.125 -3.03125 L 10.125 -1.28125 L 1.671875 -5.5 Z M 1.671875 -7.46875 "/></g></g></g><g fill="#000000" fill-opacity="1"><g transform="translate(11.800783, 121.492934)"><g/></g></g><g fill="#ffbd59" fill-opacity="1"><g transform="translate(11.800783, 121.492934)"><g><path d="M 5.890625 0.203125 C 5.160156 0.203125 4.492188 0.09375 3.890625 -0.125 C 3.296875 -0.351562 2.785156 -0.671875 2.359375 -1.078125 C 1.941406 -1.484375 1.617188 -1.972656 1.390625 -2.546875 C 1.160156 -3.117188 1.046875 -3.757812 1.046875 -4.46875 C 1.046875 -5.332031 1.226562 -6.207031 1.59375 -7.09375 C 1.957031 -7.988281 2.492188 -8.984375 3.203125 -10.078125 L 5.796875 -14.15625 L 8.609375 -14.15625 L 5.484375 -9.421875 C 5.160156 -8.929688 4.898438 -8.546875 4.703125 -8.265625 C 4.515625 -7.984375 4.367188 -7.769531 4.265625 -7.625 C 4.148438 -7.457031 4.070312 -7.347656 4.03125 -7.296875 L 4.21875 -7.296875 C 4.382812 -7.554688 4.582031 -7.789062 4.8125 -8 C 5.019531 -8.164062 5.285156 -8.320312 5.609375 -8.46875 C 5.929688 -8.613281 6.320312 -8.6875 6.78125 -8.6875 C 7.375 -8.6875 7.914062 -8.582031 8.40625 -8.375 C 8.894531 -8.164062 9.3125 -7.867188 9.65625 -7.484375 C 10.007812 -7.109375 10.28125 -6.65625 10.46875 -6.125 C 10.664062 -5.59375 10.765625 -5 10.765625 -4.34375 C 10.765625 -3.664062 10.644531 -3.046875 10.40625 -2.484375 C 10.175781 -1.929688 9.847656 -1.453125 9.421875 -1.046875 C 8.992188 -0.648438 8.484375 -0.34375 7.890625 -0.125 C 7.296875 0.09375 6.628906 0.203125 5.890625 0.203125 Z M 3.5 -4.34375 C 3.5 -3.59375 3.71875 -2.992188 4.15625 -2.546875 C 4.59375 -2.109375 5.171875 -1.890625 5.890625 -1.890625 C 6.617188 -1.890625 7.203125 -2.109375 7.640625 -2.546875 C 8.085938 -2.992188 8.3125 -3.59375 8.3125 -4.34375 C 8.3125 -5.09375 8.085938 -5.6875 7.640625 -6.125 C 7.203125 -6.5625 6.617188 -6.78125 5.890625 -6.78125 C 5.179688 -6.78125 4.601562 -6.554688 4.15625 -6.109375 C 3.71875 -5.660156 3.5 -5.070312 3.5 -4.34375 Z M 3.5 -4.34375 "/></g></g></g><g fill="#ffbd59" fill-opacity="1"><g transform="translate(23.601564, 121.492934)"><g/></g></g><g fill="#000000" fill-opacity="1"><g transform="translate(23.601564, 121.492934)"><g><path d="M 1.171875 0.484375 L 10.609375 0.484375 L 10.609375 1.96875 L 1.171875 1.96875 Z M 1.171875 0.484375 "/></g></g></g><g fill="#000000" fill-opacity="1"><g transform="translate(35.402344, 121.492934)"><g/></g></g><g fill="#ffbd59" fill-opacity="1"><g transform="translate(35.402344, 121.492934)"><g><path d="M 6 -14.34375 C 6.6875 -14.34375 7.304688 -14.242188 7.859375 -14.046875 C 8.421875 -13.859375 8.90625 -13.582031 9.3125 -13.21875 C 9.71875 -12.851562 10.039062 -12.410156 10.28125 -11.890625 C 10.519531 -11.378906 10.648438 -10.8125 10.671875 -10.1875 L 8.21875 -10.1875 C 8.1875 -10.800781 7.972656 -11.28125 7.578125 -11.625 C 7.179688 -11.96875 6.65625 -12.140625 6 -12.140625 C 5.3125 -12.140625 4.769531 -11.945312 4.375 -11.5625 C 3.976562 -11.1875 3.78125 -10.664062 3.78125 -10 L 3.78125 -4.140625 C 3.78125 -3.472656 3.972656 -2.945312 4.359375 -2.5625 C 4.742188 -2.1875 5.289062 -2 6 -2 C 6.65625 -2 7.179688 -2.179688 7.578125 -2.546875 C 7.972656 -2.910156 8.1875 -3.390625 8.21875 -3.984375 L 10.671875 -3.984375 C 10.609375 -2.703125 10.160156 -1.679688 9.328125 -0.921875 C 8.492188 -0.171875 7.382812 0.203125 6 0.203125 C 5.289062 0.203125 4.644531 0.101562 4.0625 -0.09375 C 3.488281 -0.300781 3 -0.59375 2.59375 -0.96875 C 2.1875 -1.351562 1.867188 -1.816406 1.640625 -2.359375 C 1.421875 -2.898438 1.3125 -3.492188 1.3125 -4.140625 L 1.3125 -10 C 1.3125 -10.65625 1.421875 -11.25 1.640625 -11.78125 C 1.867188 -12.320312 2.1875 -12.78125 2.59375 -13.15625 C 3 -13.539062 3.488281 -13.832031 4.0625 -14.03125 C 4.644531 -14.238281 5.289062 -14.34375 6 -14.34375 Z M 6 -14.34375 "/></g></g></g><g fill="#ffbd59" fill-opacity="1"><g transform="translate(47.193763, 121.492934)"><g><path d="M 6.5 -14.34375 L 6.5 -3.5 C 6.5 -3.09375 6.613281 -2.773438 6.84375 -2.546875 C 7.070312 -2.328125 7.378906 -2.21875 7.765625 -2.21875 L 10.984375 -2.21875 L 10.984375 0 L 7.59375 0 C 6.488281 0 5.617188 -0.304688 4.984375 -0.921875 C 4.359375 -1.535156 4.046875 -2.394531 4.046875 -3.5 L 4.046875 -12.125 L 0.609375 -12.125 L 0.609375 -14.34375 Z M 6.5 -14.34375 "/></g></g></g><g fill="#ffbd59" fill-opacity="1"><g transform="translate(58.985183, 121.492934)"><g><path d="M 5.890625 0.203125 C 5.179688 0.203125 4.535156 0.101562 3.953125 -0.09375 C 3.378906 -0.300781 2.890625 -0.585938 2.484375 -0.953125 C 2.078125 -1.328125 1.757812 -1.773438 1.53125 -2.296875 C 1.3125 -2.828125 1.203125 -3.410156 1.203125 -4.046875 L 1.203125 -6.78125 C 1.203125 -7.425781 1.3125 -8.007812 1.53125 -8.53125 C 1.757812 -9.050781 2.078125 -9.492188 2.484375 -9.859375 C 2.890625 -10.234375 3.378906 -10.515625 3.953125 -10.703125 C 4.535156 -10.898438 5.179688 -11 5.890625 -11 C 6.597656 -11 7.238281 -10.894531 7.8125 -10.6875 C 8.394531 -10.488281 8.890625 -10.207031 9.296875 -9.84375 C 9.703125 -9.476562 10.015625 -9.03125 10.234375 -8.5 C 10.460938 -7.976562 10.578125 -7.398438 10.578125 -6.765625 L 10.578125 -4.796875 L 3.640625 -4.796875 L 3.640625 -4.09375 C 3.640625 -3.363281 3.835938 -2.796875 4.234375 -2.390625 C 4.628906 -1.984375 5.179688 -1.78125 5.890625 -1.78125 C 6.429688 -1.78125 6.890625 -1.863281 7.265625 -2.03125 C 7.640625 -2.195312 7.90625 -2.4375 8.0625 -2.75 L 10.484375 -2.75 C 10.359375 -2.300781 10.15625 -1.894531 9.875 -1.53125 C 9.601562 -1.164062 9.269531 -0.851562 8.875 -0.59375 C 8.476562 -0.34375 8.023438 -0.144531 7.515625 0 C 7.015625 0.132812 6.472656 0.203125 5.890625 0.203125 Z M 8.15625 -6.453125 L 8.15625 -6.765625 C 8.15625 -7.484375 7.957031 -8.039062 7.5625 -8.4375 C 7.175781 -8.84375 6.617188 -9.046875 5.890625 -9.046875 C 5.179688 -9.046875 4.628906 -8.84375 4.234375 -8.4375 C 3.835938 -8.039062 3.640625 -7.488281 3.640625 -6.78125 L 3.640625 -6.453125 Z M 8.15625 -6.453125 "/></g></g></g><g fill="#ffbd59" fill-opacity="1"><g transform="translate(70.776602, 121.492934)"><g><path d="M 1 -3.03125 C 1 -3.5625 1.097656 -4.039062 1.296875 -4.46875 C 1.492188 -4.894531 1.773438 -5.257812 2.140625 -5.5625 C 2.503906 -5.863281 2.945312 -6.09375 3.46875 -6.25 C 3.988281 -6.414062 4.566406 -6.5 5.203125 -6.5 L 7.921875 -6.5 L 7.921875 -7.4375 C 7.921875 -7.925781 7.734375 -8.316406 7.359375 -8.609375 C 6.984375 -8.910156 6.46875 -9.0625 5.8125 -9.0625 C 5.28125 -9.0625 4.828125 -8.960938 4.453125 -8.765625 C 4.085938 -8.566406 3.851562 -8.296875 3.75 -7.953125 L 1.34375 -7.953125 C 1.507812 -8.898438 1.988281 -9.644531 2.78125 -10.1875 C 3.582031 -10.726562 4.59375 -11 5.8125 -11 C 6.507812 -11 7.140625 -10.914062 7.703125 -10.75 C 8.265625 -10.59375 8.742188 -10.359375 9.140625 -10.046875 C 9.535156 -9.742188 9.835938 -9.375 10.046875 -8.9375 C 10.265625 -8.5 10.375 -8.007812 10.375 -7.46875 L 10.375 0 L 8.0625 0 L 8.0625 -2.125 L 7.90625 -2.125 C 7.769531 -1.414062 7.394531 -0.847656 6.78125 -0.421875 C 6.175781 -0.00390625 5.421875 0.203125 4.515625 0.203125 C 3.441406 0.203125 2.585938 -0.0859375 1.953125 -0.671875 C 1.316406 -1.253906 1 -2.039062 1 -3.03125 Z M 5.359375 -1.734375 C 6.109375 -1.734375 6.722656 -1.910156 7.203125 -2.265625 C 7.679688 -2.628906 7.921875 -3.085938 7.921875 -3.640625 L 7.921875 -4.890625 L 5.234375 -4.890625 C 4.679688 -4.890625 4.242188 -4.75 3.921875 -4.46875 C 3.609375 -4.195312 3.453125 -3.816406 3.453125 -3.328125 C 3.453125 -2.828125 3.617188 -2.4375 3.953125 -2.15625 C 4.296875 -1.875 4.765625 -1.734375 5.359375 -1.734375 Z M 5.359375 -1.734375 "/></g></g></g><g fill="#ffbd59" fill-opacity="1"><g transform="translate(82.568021, 121.492934)"><g><path d="M 1.421875 0 L 1.421875 -10.8125 L 3.75 -10.8125 L 3.75 -8.9375 L 3.9375 -8.9375 C 4.050781 -9.59375 4.359375 -10.097656 4.859375 -10.453125 C 5.359375 -10.816406 6 -11 6.78125 -11 C 7.863281 -11 8.726562 -10.644531 9.375 -9.9375 C 10.019531 -9.238281 10.34375 -8.285156 10.34375 -7.078125 L 10.34375 0 L 7.875 0 L 7.875 -6.78125 C 7.875 -7.4375 7.695312 -7.953125 7.34375 -8.328125 C 7 -8.703125 6.515625 -8.890625 5.890625 -8.890625 C 5.265625 -8.890625 4.769531 -8.691406 4.40625 -8.296875 C 4.050781 -7.910156 3.875 -7.382812 3.875 -6.71875 L 3.875 0 Z M 1.421875 0 "/></g></g></g><g fill="#ffbd59" fill-opacity="1"><g transform="translate(94.359441, 121.492934)"><g><path d="M 0.890625 -10.8125 L 3.875 -10.8125 L 3.875 -14.15625 L 6.328125 -14.15625 L 6.328125 -10.8125 L 10.4375 -10.8125 L 10.4375 -8.59375 L 6.328125 -8.59375 L 6.328125 -3.34375 C 6.328125 -3 6.425781 -2.722656 6.625 -2.515625 C 6.832031 -2.316406 7.117188 -2.21875 7.484375 -2.21875 L 10.234375 -2.21875 L 10.234375 0 L 7.3125 0 C 6.25 0 5.410156 -0.300781 4.796875 -0.90625 C 4.179688 -1.507812 3.875 -2.320312 3.875 -3.34375 L 3.875 -8.59375 L 0.890625 -8.59375 Z M 0.890625 -10.8125 "/></g></g></g><g fill="#ffbd59" fill-opacity="1"><g transform="translate(106.15086, 121.492934)"><g><path d="M 5.890625 0.203125 C 5.179688 0.203125 4.535156 0.101562 3.953125 -0.09375 C 3.378906 -0.300781 2.890625 -0.585938 2.484375 -0.953125 C 2.078125 -1.328125 1.757812 -1.773438 1.53125 -2.296875 C 1.3125 -2.828125 1.203125 -3.410156 1.203125 -4.046875 L 1.203125 -6.78125 C 1.203125 -7.425781 1.3125 -8.007812 1.53125 -8.53125 C 1.757812 -9.050781 2.078125 -9.492188 2.484375 -9.859375 C 2.890625 -10.234375 3.378906 -10.515625 3.953125 -10.703125 C 4.535156 -10.898438 5.179688 -11 5.890625 -11 C 6.597656 -11 7.238281 -10.894531 7.8125 -10.6875 C 8.394531 -10.488281 8.890625 -10.207031 9.296875 -9.84375 C 9.703125 -9.476562 10.015625 -9.03125 10.234375 -8.5 C 10.460938 -7.976562 10.578125 -7.398438 10.578125 -6.765625 L 10.578125 -4.796875 L 3.640625 -4.796875 L 3.640625 -4.09375 C 3.640625 -3.363281 3.835938 -2.796875 4.234375 -2.390625 C 4.628906 -1.984375 5.179688 -1.78125 5.890625 -1.78125 C 6.429688 -1.78125 6.890625 -1.863281 7.265625 -2.03125 C 7.640625 -2.195312 7.90625 -2.4375 8.0625 -2.75 L 10.484375 -2.75 C 10.359375 -2.300781 10.15625 -1.894531 9.875 -1.53125 C 9.601562 -1.164062 9.269531 -0.851562 8.875 -0.59375 C 8.476562 -0.34375 8.023438 -0.144531 7.515625 0 C 7.015625 0.132812 6.472656 0.203125 5.890625 0.203125 Z M 8.15625 -6.453125 L 8.15625 -6.765625 C 8.15625 -7.484375 7.957031 -8.039062 7.5625 -8.4375 C 7.175781 -8.84375 6.617188 -9.046875 5.890625 -9.046875 C 5.179688 -9.046875 4.628906 -8.84375 4.234375 -8.4375 C 3.835938 -8.039062 3.640625 -7.488281 3.640625 -6.78125 L 3.640625 -6.453125 Z M 8.15625 -6.453125 "/></g></g></g><g fill="#ffbd59" fill-opacity="1"><g transform="translate(117.942279, 121.492934)"><g><path d="M 6.015625 0.203125 C 5.304688 0.203125 4.660156 0.101562 4.078125 -0.09375 C 3.503906 -0.289062 3.015625 -0.570312 2.609375 -0.9375 C 2.203125 -1.3125 1.890625 -1.753906 1.671875 -2.265625 C 1.453125 -2.785156 1.34375 -3.367188 1.34375 -4.015625 L 1.34375 -6.78125 C 1.34375 -7.425781 1.453125 -8.003906 1.671875 -8.515625 C 1.890625 -9.035156 2.203125 -9.476562 2.609375 -9.84375 C 3.015625 -10.207031 3.503906 -10.488281 4.078125 -10.6875 C 4.660156 -10.894531 5.304688 -11 6.015625 -11 C 6.640625 -11 7.21875 -10.910156 7.75 -10.734375 C 8.289062 -10.566406 8.765625 -10.3125 9.171875 -9.96875 C 9.578125 -9.632812 9.914062 -9.234375 10.1875 -8.765625 C 10.457031 -8.304688 10.640625 -7.78125 10.734375 -7.1875 L 8.28125 -7.1875 C 8.1875 -7.6875 7.9375 -8.085938 7.53125 -8.390625 C 7.125 -8.703125 6.617188 -8.859375 6.015625 -8.859375 C 5.316406 -8.859375 4.769531 -8.675781 4.375 -8.3125 C 3.988281 -7.945312 3.796875 -7.4375 3.796875 -6.78125 L 3.796875 -4.015625 C 3.796875 -3.367188 3.988281 -2.863281 4.375 -2.5 C 4.757812 -2.132812 5.304688 -1.953125 6.015625 -1.953125 C 6.609375 -1.953125 7.109375 -2.101562 7.515625 -2.40625 C 7.929688 -2.71875 8.1875 -3.117188 8.28125 -3.609375 L 10.734375 -3.609375 C 10.640625 -3.023438 10.457031 -2.5 10.1875 -2.03125 C 9.914062 -1.570312 9.570312 -1.171875 9.15625 -0.828125 C 8.75 -0.492188 8.28125 -0.238281 7.75 -0.0625 C 7.21875 0.113281 6.640625 0.203125 6.015625 0.203125 Z M 6.015625 0.203125 "/></g></g></g><g fill="#ffbd59" fill-opacity="1"><g transform="translate(129.733698, 121.492934)"><g><path d="M 1.421875 -14.34375 L 3.875 -14.34375 L 3.875 -10.8125 C 3.875 -10.613281 3.863281 -10.40625 3.84375 -10.1875 C 3.832031 -9.976562 3.816406 -9.78125 3.796875 -9.59375 C 3.785156 -9.40625 3.769531 -9.25 3.75 -9.125 C 3.738281 -9 3.734375 -8.9375 3.734375 -8.9375 L 3.9375 -8.9375 C 4.050781 -9.59375 4.359375 -10.097656 4.859375 -10.453125 C 5.359375 -10.816406 6 -11 6.78125 -11 C 7.863281 -11 8.726562 -10.644531 9.375 -9.9375 C 10.019531 -9.238281 10.34375 -8.285156 10.34375 -7.078125 L 10.34375 0 L 7.875 0 L 7.875 -6.78125 C 7.875 -7.4375 7.695312 -7.953125 7.34375 -8.328125 C 7 -8.703125 6.515625 -8.890625 5.890625 -8.890625 C 5.265625 -8.890625 4.769531 -8.691406 4.40625 -8.296875 C 4.050781 -7.910156 3.875 -7.382812 3.875 -6.71875 L 3.875 0 L 1.421875 0 Z M 1.421875 -14.34375 "/></g></g></g><g fill="#ffbd59" fill-opacity="1"><g transform="translate(141.527342, 121.492934)"><g/></g></g><g fill="#000000" fill-opacity="1"><g transform="translate(141.527342, 121.492934)"><g><path d="M 1.171875 0.484375 L 10.609375 0.484375 L 10.609375 1.96875 L 1.171875 1.96875 Z M 1.171875 0.484375 "/></g></g></g><g fill="#000000" fill-opacity="1"><g transform="translate(153.328119, 121.492934)"><g/></g></g><g fill="#4c77f6" fill-opacity="1"><g transform="translate(153.328119, 121.492934)"><g><path d="M 0.46875 0 L 4.28125 -14.15625 L 7.609375 -14.15625 L 11.328125 0 L 8.78125 0 L 7.9375 -3.5625 L 3.828125 -3.5625 L 2.984375 0 Z M 4.3125 -5.5 L 7.46875 -5.5 L 6.265625 -10.5625 C 6.210938 -10.789062 6.160156 -11.019531 6.109375 -11.25 C 6.066406 -11.488281 6.035156 -11.703125 6.015625 -11.890625 C 5.984375 -12.097656 5.957031 -12.304688 5.9375 -12.515625 L 5.84375 -12.515625 C 5.8125 -12.304688 5.785156 -12.097656 5.765625 -11.890625 C 5.734375 -11.703125 5.695312 -11.488281 5.65625 -11.25 C 5.625 -11.019531 5.570312 -10.789062 5.5 -10.5625 Z M 4.3125 -5.5 "/></g></g></g><g fill="#4c77f6" fill-opacity="1"><g transform="translate(165.119538, 121.492934)"><g><path d="M 1.625 0 L 1.625 -2.140625 L 4.65625 -2.140625 L 4.65625 -12.015625 L 1.625 -12.015625 L 1.625 -14.15625 L 10.15625 -14.15625 L 10.15625 -12.015625 L 7.140625 -12.015625 L 7.140625 -2.140625 L 10.15625 -2.140625 L 10.15625 0 Z M 1.625 0 "/></g></g></g><g fill="#4c77f6" fill-opacity="1"><g transform="translate(176.917965, 121.492934)"><g/></g></g><g fill="#000000" fill-opacity="1"><g transform="translate(176.917965, 121.492934)"><g><path d="M 1.171875 0.484375 L 10.609375 0.484375 L 10.609375 1.96875 L 1.171875 1.96875 Z M 1.171875 0.484375 "/></g></g></g><g fill="#000000" fill-opacity="1"><g transform="translate(188.718741, 121.492934)"><g/></g></g><g fill="#000000" fill-opacity="1"><g transform="translate(188.718741, 121.492934)"><g><path d="M 5.609375 0.203125 C 4.460938 0.203125 3.519531 -0.0546875 2.78125 -0.578125 C 2.039062 -1.097656 1.617188 -1.789062 1.515625 -2.65625 L 3.375 -2.65625 C 3.457031 -2.269531 3.703125 -1.957031 4.109375 -1.71875 C 4.515625 -1.488281 5.015625 -1.375 5.609375 -1.375 L 6.15625 -1.375 C 6.863281 -1.375 7.410156 -1.519531 7.796875 -1.8125 C 8.191406 -2.113281 8.390625 -2.507812 8.390625 -3 C 8.390625 -3.851562 7.785156 -4.375 6.578125 -4.5625 L 4.953125 -4.796875 C 3.890625 -4.953125 3.09375 -5.285156 2.5625 -5.796875 C 2.039062 -6.304688 1.78125 -7.019531 1.78125 -7.9375 C 1.78125 -8.90625 2.125 -9.65625 2.8125 -10.1875 C 3.507812 -10.726562 4.472656 -11 5.703125 -11 L 6.25 -11 C 6.769531 -11 7.253906 -10.929688 7.703125 -10.796875 C 8.148438 -10.671875 8.539062 -10.488281 8.875 -10.25 C 9.21875 -10.007812 9.5 -9.722656 9.71875 -9.390625 C 9.9375 -9.054688 10.078125 -8.6875 10.140625 -8.28125 L 8.28125 -8.28125 C 8.195312 -8.613281 7.972656 -8.890625 7.609375 -9.109375 C 7.242188 -9.328125 6.789062 -9.4375 6.25 -9.4375 L 5.703125 -9.4375 C 5.035156 -9.4375 4.515625 -9.304688 4.140625 -9.046875 C 3.765625 -8.785156 3.578125 -8.390625 3.578125 -7.859375 C 3.578125 -7.441406 3.703125 -7.125 3.953125 -6.90625 C 4.210938 -6.6875 4.628906 -6.539062 5.203125 -6.46875 L 6.84375 -6.234375 C 8.007812 -6.054688 8.859375 -5.710938 9.390625 -5.203125 C 9.921875 -4.691406 10.1875 -3.96875 10.1875 -3.03125 C 10.1875 -2.019531 9.832031 -1.226562 9.125 -0.65625 C 8.425781 -0.0820312 7.4375 0.203125 6.15625 0.203125 Z M 5.609375 0.203125 "/></g></g></g><g fill="#000000" fill-opacity="1"><g transform="translate(200.510161, 121.492934)"><g><path d="M 1.171875 -10.8125 L 4.328125 -10.8125 L 4.328125 -14.15625 L 6.09375 -14.15625 L 6.09375 -10.8125 L 10.3125 -10.8125 L 10.3125 -9.203125 L 6.09375 -9.203125 L 6.09375 -2.796875 C 6.09375 -2.421875 6.207031 -2.128906 6.4375 -1.921875 C 6.664062 -1.710938 6.976562 -1.609375 7.375 -1.609375 L 10.125 -1.609375 L 10.125 0 L 7.375 0 C 6.4375 0 5.691406 -0.253906 5.140625 -0.765625 C 4.597656 -1.273438 4.328125 -1.953125 4.328125 -2.796875 L 4.328125 -9.203125 L 1.171875 -9.203125 Z M 1.171875 -10.8125 "/></g></g></g><g fill="#000000" fill-opacity="1"><g transform="translate(212.30158, 121.492934)"><g><path d="M 1.234375 -3.140625 C 1.234375 -3.648438 1.320312 -4.113281 1.5 -4.53125 C 1.675781 -4.945312 1.929688 -5.296875 2.265625 -5.578125 C 2.597656 -5.867188 3 -6.09375 3.46875 -6.25 C 3.945312 -6.40625 4.484375 -6.484375 5.078125 -6.484375 L 8.296875 -6.484375 L 8.296875 -7.375 C 8.296875 -8.039062 8.078125 -8.5625 7.640625 -8.9375 C 7.203125 -9.3125 6.566406 -9.5 5.734375 -9.5 C 5.128906 -9.5 4.613281 -9.382812 4.1875 -9.15625 C 3.769531 -8.9375 3.488281 -8.628906 3.34375 -8.234375 L 1.578125 -8.234375 C 1.753906 -9.085938 2.21875 -9.757812 2.96875 -10.25 C 3.726562 -10.75 4.664062 -11 5.78125 -11 C 7.113281 -11 8.160156 -10.6875 8.921875 -10.0625 C 9.679688 -9.445312 10.0625 -8.582031 10.0625 -7.46875 L 10.0625 0 L 8.453125 0 L 8.453125 -2.0625 L 8.296875 -2.0625 C 8.128906 -1.363281 7.726562 -0.8125 7.09375 -0.40625 C 6.46875 0 5.703125 0.203125 4.796875 0.203125 C 3.710938 0.203125 2.847656 -0.0976562 2.203125 -0.703125 C 1.554688 -1.304688 1.234375 -2.117188 1.234375 -3.140625 Z M 5.1875 -1.265625 C 5.632812 -1.265625 6.046875 -1.320312 6.421875 -1.4375 C 6.804688 -1.550781 7.132812 -1.71875 7.40625 -1.9375 C 7.6875 -2.15625 7.90625 -2.40625 8.0625 -2.6875 C 8.21875 -2.976562 8.296875 -3.296875 8.296875 -3.640625 L 8.296875 -5.109375 L 5.109375 -5.109375 C 4.453125 -5.109375 3.9375 -4.9375 3.5625 -4.59375 C 3.1875 -4.257812 3 -3.789062 3 -3.1875 C 3 -2.582031 3.1875 -2.109375 3.5625 -1.765625 C 3.945312 -1.429688 4.488281 -1.265625 5.1875 -1.265625 Z M 5.1875 -1.265625 "/></g></g></g><g fill="#000000" fill-opacity="1"><g transform="translate(224.092999, 121.492934)"><g><path d="M 2.203125 -10.8125 L 3.875 -10.8125 L 3.875 -8.9375 L 4.03125 -8.9375 C 4.195312 -9.582031 4.546875 -10.085938 5.078125 -10.453125 C 5.617188 -10.816406 6.285156 -11 7.078125 -11 C 8.210938 -11 9.101562 -10.640625 9.75 -9.921875 C 10.40625 -9.210938 10.734375 -8.238281 10.734375 -7 L 10.734375 -6.390625 L 8.96875 -6.390625 L 8.96875 -6.78125 C 8.96875 -7.632812 8.753906 -8.289062 8.328125 -8.75 C 7.898438 -9.21875 7.289062 -9.453125 6.5 -9.453125 C 5.726562 -9.453125 5.113281 -9.210938 4.65625 -8.734375 C 4.195312 -8.253906 3.96875 -7.601562 3.96875 -6.78125 L 3.96875 0 L 2.203125 0 Z M 2.203125 -10.8125 "/></g></g></g><g fill="#000000" fill-opacity="1"><g transform="translate(235.884419, 121.492934)"><g><path d="M 1.171875 -10.8125 L 4.328125 -10.8125 L 4.328125 -14.15625 L 6.09375 -14.15625 L 6.09375 -10.8125 L 10.3125 -10.8125 L 10.3125 -9.203125 L 6.09375 -9.203125 L 6.09375 -2.796875 C 6.09375 -2.421875 6.207031 -2.128906 6.4375 -1.921875 C 6.664062 -1.710938 6.976562 -1.609375 7.375 -1.609375 L 10.125 -1.609375 L 10.125 0 L 7.375 0 C 6.4375 0 5.691406 -0.253906 5.140625 -0.765625 C 4.597656 -1.273438 4.328125 -1.953125 4.328125 -2.796875 L 4.328125 -9.203125 L 1.171875 -9.203125 Z M 1.171875 -10.8125 "/></g></g></g><g fill="#000000" fill-opacity="1"><g transform="translate(247.675838, 121.492934)"><g><path d="M 1.765625 -10.8125 L 3.53125 -10.8125 L 3.53125 -3.8125 C 3.53125 -2.175781 4.3125 -1.359375 5.875 -1.359375 C 7.457031 -1.359375 8.25 -2.175781 8.25 -3.8125 L 8.25 -10.8125 L 10.03125 -10.8125 L 10.03125 -3.8125 C 10.03125 -2.53125 9.671875 -1.539062 8.953125 -0.84375 C 8.234375 -0.144531 7.207031 0.203125 5.875 0.203125 C 4.5625 0.203125 3.546875 -0.144531 2.828125 -0.84375 C 2.117188 -1.550781 1.765625 -2.539062 1.765625 -3.8125 Z M 1.765625 -10.8125 "/></g></g></g><g fill="#000000" fill-opacity="1"><g transform="translate(259.467257, 121.492934)"><g><path d="M 3.40625 -10.8125 L 3.40625 -8.9375 L 3.5625 -8.9375 C 3.726562 -9.59375 4.070312 -10.097656 4.59375 -10.453125 C 5.125 -10.816406 5.785156 -11 6.578125 -11 C 7.128906 -11 7.628906 -10.898438 8.078125 -10.703125 C 8.523438 -10.515625 8.90625 -10.238281 9.21875 -9.875 C 9.53125 -9.519531 9.773438 -9.078125 9.953125 -8.546875 C 10.128906 -8.023438 10.21875 -7.4375 10.21875 -6.78125 L 10.21875 -4.03125 C 10.21875 -3.375 10.128906 -2.78125 9.953125 -2.25 C 9.773438 -1.726562 9.53125 -1.285156 9.21875 -0.921875 C 8.90625 -0.566406 8.523438 -0.289062 8.078125 -0.09375 C 7.628906 0.101562 7.128906 0.203125 6.578125 0.203125 C 5.785156 0.203125 5.125 0.0195312 4.59375 -0.34375 C 4.070312 -0.707031 3.726562 -1.21875 3.5625 -1.875 L 3.40625 -1.875 C 3.414062 -1.644531 3.429688 -1.421875 3.453125 -1.203125 C 3.472656 -1.003906 3.484375 -0.800781 3.484375 -0.59375 C 3.492188 -0.382812 3.5 -0.1875 3.5 0 L 3.5 3.25 L 1.734375 3.25 L 1.734375 -10.8125 Z M 3.5 -4.03125 C 3.5 -3.207031 3.71875 -2.550781 4.15625 -2.0625 C 4.59375 -1.582031 5.179688 -1.34375 5.921875 -1.34375 C 6.703125 -1.34375 7.316406 -1.582031 7.765625 -2.0625 C 8.222656 -2.550781 8.453125 -3.207031 8.453125 -4.03125 L 8.453125 -6.78125 C 8.453125 -7.632812 8.226562 -8.296875 7.78125 -8.765625 C 7.332031 -9.234375 6.710938 -9.46875 5.921875 -9.46875 C 5.179688 -9.46875 4.59375 -9.222656 4.15625 -8.734375 C 3.71875 -8.253906 3.5 -7.601562 3.5 -6.78125 Z M 3.5 -4.03125 "/></g></g></g><g fill="#000000" fill-opacity="1"><g transform="translate(271.258677, 121.492934)"><g><path d="M 5.609375 0.203125 C 4.460938 0.203125 3.519531 -0.0546875 2.78125 -0.578125 C 2.039062 -1.097656 1.617188 -1.789062 1.515625 -2.65625 L 3.375 -2.65625 C 3.457031 -2.269531 3.703125 -1.957031 4.109375 -1.71875 C 4.515625 -1.488281 5.015625 -1.375 5.609375 -1.375 L 6.15625 -1.375 C 6.863281 -1.375 7.410156 -1.519531 7.796875 -1.8125 C 8.191406 -2.113281 8.390625 -2.507812 8.390625 -3 C 8.390625 -3.851562 7.785156 -4.375 6.578125 -4.5625 L 4.953125 -4.796875 C 3.890625 -4.953125 3.09375 -5.285156 2.5625 -5.796875 C 2.039062 -6.304688 1.78125 -7.019531 1.78125 -7.9375 C 1.78125 -8.90625 2.125 -9.65625 2.8125 -10.1875 C 3.507812 -10.726562 4.472656 -11 5.703125 -11 L 6.25 -11 C 6.769531 -11 7.253906 -10.929688 7.703125 -10.796875 C 8.148438 -10.671875 8.539062 -10.488281 8.875 -10.25 C 9.21875 -10.007812 9.5 -9.722656 9.71875 -9.390625 C 9.9375 -9.054688 10.078125 -8.6875 10.140625 -8.28125 L 8.28125 -8.28125 C 8.195312 -8.613281 7.972656 -8.890625 7.609375 -9.109375 C 7.242188 -9.328125 6.789062 -9.4375 6.25 -9.4375 L 5.703125 -9.4375 C 5.035156 -9.4375 4.515625 -9.304688 4.140625 -9.046875 C 3.765625 -8.785156 3.578125 -8.390625 3.578125 -7.859375 C 3.578125 -7.441406 3.703125 -7.125 3.953125 -6.90625 C 4.210938 -6.6875 4.628906 -6.539062 5.203125 -6.46875 L 6.84375 -6.234375 C 8.007812 -6.054688 8.859375 -5.710938 9.390625 -5.203125 C 9.921875 -4.691406 10.1875 -3.96875 10.1875 -3.03125 C 10.1875 -2.019531 9.832031 -1.226562 9.125 -0.65625 C 8.425781 -0.0820312 7.4375 0.203125 6.15625 0.203125 Z M 5.609375 0.203125 "/></g></g></g><g fill="#000000" fill-opacity="1"><g transform="translate(283.050096, 121.492934)"><g><path d="M 1.671875 -3.046875 L 7.765625 -6.015625 C 7.921875 -6.085938 8.0625 -6.148438 8.1875 -6.203125 C 8.320312 -6.265625 8.441406 -6.304688 8.546875 -6.328125 C 8.648438 -6.367188 8.75 -6.394531 8.84375 -6.40625 L 8.84375 -6.546875 C 8.75 -6.554688 8.648438 -6.582031 8.546875 -6.625 C 8.328125 -6.664062 8.066406 -6.765625 7.765625 -6.921875 L 1.671875 -9.953125 L 1.671875 -11.703125 L 10.125 -7.46875 L 10.125 -5.5 L 1.671875 -1.28125 Z M 1.671875 -3.046875 "/></g></g></g><g fill="#000000" fill-opacity="1"><g transform="translate(294.843735, 121.492934)"><g/></g></g><g fill="#000000" fill-opacity="1"><g transform="translate(0.0000025, 146.992933)"><g><path d="M 1.671875 -7.46875 L 10.125 -11.703125 L 10.125 -9.921875 L 4.03125 -6.953125 C 3.875 -6.878906 3.726562 -6.816406 3.59375 -6.765625 C 3.46875 -6.710938 3.359375 -6.671875 3.265625 -6.640625 C 3.148438 -6.597656 3.046875 -6.570312 2.953125 -6.5625 L 2.953125 -6.421875 C 3.046875 -6.410156 3.148438 -6.394531 3.265625 -6.375 C 3.359375 -6.34375 3.46875 -6.300781 3.59375 -6.25 C 3.726562 -6.195312 3.875 -6.128906 4.03125 -6.046875 L 10.125 -3.03125 L 10.125 -1.28125 L 1.671875 -5.5 Z M 1.671875 -7.46875 "/></g></g></g><g fill="#000000" fill-opacity="1"><g transform="translate(11.800783, 146.992933)"><g/></g></g><g fill="#000000" fill-opacity="1"><g transform="translate(11.800783, 146.992933)"><g><path d="M 1.875 0 L 1.875 -1.609375 L 5.796875 -1.609375 L 5.796875 -9.203125 L 2.359375 -9.203125 L 2.359375 -10.8125 L 7.5625 -10.8125 L 7.5625 -1.609375 L 10.8125 -1.609375 L 10.8125 0 Z M 6.1875 -15.03125 L 6.578125 -15.03125 C 6.960938 -15.03125 7.269531 -14.921875 7.5 -14.703125 C 7.738281 -14.484375 7.859375 -14.195312 7.859375 -13.84375 C 7.859375 -13.488281 7.738281 -13.203125 7.5 -12.984375 C 7.269531 -12.773438 6.960938 -12.671875 6.578125 -12.671875 L 6.1875 -12.671875 C 5.8125 -12.671875 5.503906 -12.769531 5.265625 -12.96875 C 5.023438 -13.175781 4.90625 -13.46875 4.90625 -13.84375 C 4.90625 -14.195312 5.023438 -14.484375 5.265625 -14.703125 C 5.503906 -14.921875 5.8125 -15.03125 6.1875 -15.03125 Z M 6.1875 -15.03125 "/></g></g></g><g fill="#000000" fill-opacity="1"><g transform="translate(23.592202, 146.992933)"><g><path d="M 1.734375 0 L 1.734375 -10.8125 L 3.40625 -10.8125 L 3.40625 -8.9375 L 3.5625 -8.9375 C 3.726562 -9.59375 4.066406 -10.097656 4.578125 -10.453125 C 5.097656 -10.816406 5.75 -11 6.53125 -11 C 7.0625 -11 7.546875 -10.90625 7.984375 -10.71875 C 8.429688 -10.539062 8.804688 -10.285156 9.109375 -9.953125 C 9.421875 -9.617188 9.660156 -9.21875 9.828125 -8.75 C 9.992188 -8.289062 10.078125 -7.769531 10.078125 -7.1875 L 10.078125 0 L 8.3125 0 L 8.3125 -6.90625 C 8.3125 -7.726562 8.101562 -8.367188 7.6875 -8.828125 C 7.269531 -9.285156 6.6875 -9.515625 5.9375 -9.515625 C 5.1875 -9.515625 4.59375 -9.269531 4.15625 -8.78125 C 3.71875 -8.289062 3.5 -7.625 3.5 -6.78125 L 3.5 0 Z M 1.734375 0 "/></g></g></g><g fill="#000000" fill-opacity="1"><g transform="translate(35.383622, 146.992933)"><g><path d="M 1.171875 0.484375 L 10.609375 0.484375 L 10.609375 1.96875 L 1.171875 1.96875 Z M 1.171875 0.484375 "/></g></g></g><g fill="#000000" fill-opacity="1"><g transform="translate(47.179687, 146.992933)"><g/></g></g><g fill="#4c77f6" fill-opacity="1"><g transform="translate(47.179687, 146.992933)"><g><path d="M 5.890625 0.203125 C 5.160156 0.203125 4.492188 0.09375 3.890625 -0.125 C 3.296875 -0.351562 2.785156 -0.671875 2.359375 -1.078125 C 1.941406 -1.484375 1.617188 -1.972656 1.390625 -2.546875 C 1.160156 -3.117188 1.046875 -3.757812 1.046875 -4.46875 C 1.046875 -5.332031 1.226562 -6.207031 1.59375 -7.09375 C 1.957031 -7.988281 2.492188 -8.984375 3.203125 -10.078125 L 5.796875 -14.15625 L 8.609375 -14.15625 L 5.484375 -9.421875 C 5.160156 -8.929688 4.898438 -8.546875 4.703125 -8.265625 C 4.515625 -7.984375 4.367188 -7.769531 4.265625 -7.625 C 4.148438 -7.457031 4.070312 -7.347656 4.03125 -7.296875 L 4.21875 -7.296875 C 4.382812 -7.554688 4.582031 -7.789062 4.8125 -8 C 5.019531 -8.164062 5.285156 -8.320312 5.609375 -8.46875 C 5.929688 -8.613281 6.320312 -8.6875 6.78125 -8.6875 C 7.375 -8.6875 7.914062 -8.582031 8.40625 -8.375 C 8.894531 -8.164062 9.3125 -7.867188 9.65625 -7.484375 C 10.007812 -7.109375 10.28125 -6.65625 10.46875 -6.125 C 10.664062 -5.59375 10.765625 -5 10.765625 -4.34375 C 10.765625 -3.664062 10.644531 -3.046875 10.40625 -2.484375 C 10.175781 -1.929688 9.847656 -1.453125 9.421875 -1.046875 C 8.992188 -0.648438 8.484375 -0.34375 7.890625 -0.125 C 7.296875 0.09375 6.628906 0.203125 5.890625 0.203125 Z M 3.5 -4.34375 C 3.5 -3.59375 3.71875 -2.992188 4.15625 -2.546875 C 4.59375 -2.109375 5.171875 -1.890625 5.890625 -1.890625 C 6.617188 -1.890625 7.203125 -2.109375 7.640625 -2.546875 C 8.085938 -2.992188 8.3125 -3.59375 8.3125 -4.34375 C 8.3125 -5.09375 8.085938 -5.6875 7.640625 -6.125 C 7.203125 -6.5625 6.617188 -6.78125 5.890625 -6.78125 C 5.179688 -6.78125 4.601562 -6.554688 4.15625 -6.109375 C 3.71875 -5.660156 3.5 -5.070312 3.5 -4.34375 Z M 3.5 -4.34375 "/></g></g></g><g fill="#4c77f6" fill-opacity="1"><g transform="translate(58.980468, 146.992933)"><g/></g></g><g fill="#000000" fill-opacity="1"><g transform="translate(58.980468, 146.992933)"><g><path d="M 1.171875 0.484375 L 10.609375 0.484375 L 10.609375 1.96875 L 1.171875 1.96875 Z M 1.171875 0.484375 "/></g></g></g><g fill="#000000" fill-opacity="1"><g transform="translate(70.771887, 146.992933)"><g><path d="M 1.21875 -10.8125 L 2.609375 -10.8125 L 2.609375 -9.21875 L 2.75 -9.21875 C 2.800781 -9.789062 2.984375 -10.226562 3.296875 -10.53125 C 3.617188 -10.84375 4.039062 -11 4.5625 -11 C 5.082031 -11 5.515625 -10.84375 5.859375 -10.53125 C 6.203125 -10.226562 6.4375 -9.789062 6.5625 -9.21875 L 6.65625 -9.21875 C 6.707031 -9.789062 6.890625 -10.226562 7.203125 -10.53125 C 7.523438 -10.84375 7.945312 -11 8.46875 -11 C 9.132812 -11 9.648438 -10.753906 10.015625 -10.265625 C 10.390625 -9.773438 10.578125 -9.097656 10.578125 -8.234375 L 10.578125 0 L 9.046875 0 L 9.046875 -8.234375 C 9.046875 -8.691406 8.941406 -9.039062 8.734375 -9.28125 C 8.535156 -9.53125 8.242188 -9.65625 7.859375 -9.65625 C 7.054688 -9.65625 6.65625 -9.148438 6.65625 -8.140625 L 6.65625 0 L 5.125 0 L 5.125 -8.234375 C 5.125 -8.617188 5.035156 -8.953125 4.859375 -9.234375 C 4.679688 -9.515625 4.378906 -9.65625 3.953125 -9.65625 C 3.554688 -9.65625 3.25 -9.507812 3.03125 -9.21875 C 2.84375 -8.957031 2.75 -8.597656 2.75 -8.140625 L 2.75 0 L 1.21875 0 Z M 1.21875 -10.8125 "/></g></g></g><g fill="#000000" fill-opacity="1"><g transform="translate(82.563306, 146.992933)"><g><path d="M 3.34375 -4.03125 C 3.34375 -3.207031 3.566406 -2.554688 4.015625 -2.078125 C 4.472656 -1.609375 5.097656 -1.375 5.890625 -1.375 C 6.679688 -1.375 7.304688 -1.609375 7.765625 -2.078125 C 8.222656 -2.554688 8.453125 -3.207031 8.453125 -4.03125 L 8.453125 -6.78125 C 8.453125 -7.601562 8.222656 -8.25 7.765625 -8.71875 C 7.304688 -9.195312 6.679688 -9.4375 5.890625 -9.4375 C 5.109375 -9.4375 4.488281 -9.195312 4.03125 -8.71875 C 3.570312 -8.25 3.34375 -7.601562 3.34375 -6.78125 Z M 1.578125 -6.78125 C 1.578125 -7.4375 1.675781 -8.019531 1.875 -8.53125 C 2.082031 -9.050781 2.367188 -9.492188 2.734375 -9.859375 C 3.109375 -10.234375 3.5625 -10.515625 4.09375 -10.703125 C 4.625 -10.898438 5.222656 -11 5.890625 -11 C 7.234375 -11 8.289062 -10.625 9.0625 -9.875 C 9.832031 -9.132812 10.21875 -8.109375 10.21875 -6.796875 L 10.21875 -4.03125 C 10.21875 -3.375 10.117188 -2.78125 9.921875 -2.25 C 9.722656 -1.726562 9.4375 -1.285156 9.0625 -0.921875 C 8.695312 -0.566406 8.242188 -0.289062 7.703125 -0.09375 C 7.171875 0.101562 6.566406 0.203125 5.890625 0.203125 C 5.222656 0.203125 4.625 0.101562 4.09375 -0.09375 C 3.5625 -0.289062 3.109375 -0.570312 2.734375 -0.9375 C 2.367188 -1.3125 2.082031 -1.757812 1.875 -2.28125 C 1.675781 -2.800781 1.578125 -3.382812 1.578125 -4.03125 Z M 1.578125 -6.78125 "/></g></g></g><g fill="#000000" fill-opacity="1"><g transform="translate(94.354726, 146.992933)"><g><path d="M 1.734375 0 L 1.734375 -10.8125 L 3.40625 -10.8125 L 3.40625 -8.9375 L 3.5625 -8.9375 C 3.726562 -9.59375 4.066406 -10.097656 4.578125 -10.453125 C 5.097656 -10.816406 5.75 -11 6.53125 -11 C 7.0625 -11 7.546875 -10.90625 7.984375 -10.71875 C 8.429688 -10.539062 8.804688 -10.285156 9.109375 -9.953125 C 9.421875 -9.617188 9.660156 -9.21875 9.828125 -8.75 C 9.992188 -8.289062 10.078125 -7.769531 10.078125 -7.1875 L 10.078125 0 L 8.3125 0 L 8.3125 -6.90625 C 8.3125 -7.726562 8.101562 -8.367188 7.6875 -8.828125 C 7.269531 -9.285156 6.6875 -9.515625 5.9375 -9.515625 C 5.1875 -9.515625 4.59375 -9.269531 4.15625 -8.78125 C 3.71875 -8.289062 3.5 -7.625 3.5 -6.78125 L 3.5 0 Z M 1.734375 0 "/></g></g></g><g fill="#000000" fill-opacity="1"><g transform="translate(106.146145, 146.992933)"><g><path d="M 1.171875 -10.8125 L 4.328125 -10.8125 L 4.328125 -14.15625 L 6.09375 -14.15625 L 6.09375 -10.8125 L 10.3125 -10.8125 L 10.3125 -9.203125 L 6.09375 -9.203125 L 6.09375 -2.796875 C 6.09375 -2.421875 6.207031 -2.128906 6.4375 -1.921875 C 6.664062 -1.710938 6.976562 -1.609375 7.375 -1.609375 L 10.125 -1.609375 L 10.125 0 L 7.375 0 C 6.4375 0 5.691406 -0.253906 5.140625 -0.765625 C 4.597656 -1.273438 4.328125 -1.953125 4.328125 -2.796875 L 4.328125 -9.203125 L 1.171875 -9.203125 Z M 1.171875 -10.8125 "/></g></g></g><g fill="#000000" fill-opacity="1"><g transform="translate(117.937564, 146.992933)"><g><path d="M 1.734375 -14.34375 L 3.5 -14.34375 L 3.5 -10.8125 C 3.5 -10.625 3.492188 -10.421875 3.484375 -10.203125 C 3.484375 -9.992188 3.472656 -9.796875 3.453125 -9.609375 C 3.429688 -9.390625 3.414062 -9.164062 3.40625 -8.9375 L 3.5625 -8.9375 C 3.726562 -9.59375 4.066406 -10.097656 4.578125 -10.453125 C 5.097656 -10.816406 5.75 -11 6.53125 -11 C 7.0625 -11 7.546875 -10.90625 7.984375 -10.71875 C 8.429688 -10.539062 8.804688 -10.285156 9.109375 -9.953125 C 9.421875 -9.617188 9.660156 -9.21875 9.828125 -8.75 C 9.992188 -8.289062 10.078125 -7.769531 10.078125 -7.1875 L 10.078125 0 L 8.3125 0 L 8.3125 -6.90625 C 8.3125 -7.726562 8.101562 -8.367188 7.6875 -8.828125 C 7.269531 -9.285156 6.6875 -9.515625 5.9375 -9.515625 C 5.1875 -9.515625 4.59375 -9.269531 4.15625 -8.78125 C 3.71875 -8.289062 3.5 -7.625 3.5 -6.78125 L 3.5 0 L 1.734375 0 Z M 1.734375 -14.34375 "/></g></g></g><g fill="#000000" fill-opacity="1"><g transform="translate(129.728984, 146.992933)"><g><path d="M 5.609375 0.203125 C 4.460938 0.203125 3.519531 -0.0546875 2.78125 -0.578125 C 2.039062 -1.097656 1.617188 -1.789062 1.515625 -2.65625 L 3.375 -2.65625 C 3.457031 -2.269531 3.703125 -1.957031 4.109375 -1.71875 C 4.515625 -1.488281 5.015625 -1.375 5.609375 -1.375 L 6.15625 -1.375 C 6.863281 -1.375 7.410156 -1.519531 7.796875 -1.8125 C 8.191406 -2.113281 8.390625 -2.507812 8.390625 -3 C 8.390625 -3.851562 7.785156 -4.375 6.578125 -4.5625 L 4.953125 -4.796875 C 3.890625 -4.953125 3.09375 -5.285156 2.5625 -5.796875 C 2.039062 -6.304688 1.78125 -7.019531 1.78125 -7.9375 C 1.78125 -8.90625 2.125 -9.65625 2.8125 -10.1875 C 3.507812 -10.726562 4.472656 -11 5.703125 -11 L 6.25 -11 C 6.769531 -11 7.253906 -10.929688 7.703125 -10.796875 C 8.148438 -10.671875 8.539062 -10.488281 8.875 -10.25 C 9.21875 -10.007812 9.5 -9.722656 9.71875 -9.390625 C 9.9375 -9.054688 10.078125 -8.6875 10.140625 -8.28125 L 8.28125 -8.28125 C 8.195312 -8.613281 7.972656 -8.890625 7.609375 -9.109375 C 7.242188 -9.328125 6.789062 -9.4375 6.25 -9.4375 L 5.703125 -9.4375 C 5.035156 -9.4375 4.515625 -9.304688 4.140625 -9.046875 C 3.765625 -8.785156 3.578125 -8.390625 3.578125 -7.859375 C 3.578125 -7.441406 3.703125 -7.125 3.953125 -6.90625 C 4.210938 -6.6875 4.628906 -6.539062 5.203125 -6.46875 L 6.84375 -6.234375 C 8.007812 -6.054688 8.859375 -5.710938 9.390625 -5.203125 C 9.921875 -4.691406 10.1875 -3.96875 10.1875 -3.03125 C 10.1875 -2.019531 9.832031 -1.226562 9.125 -0.65625 C 8.425781 -0.0820312 7.4375 0.203125 6.15625 0.203125 Z M 5.609375 0.203125 "/></g></g></g><g fill="#000000" fill-opacity="1"><g transform="translate(141.520403, 146.992933)"><g><path d="M 1.671875 -3.046875 L 7.765625 -6.015625 C 7.921875 -6.085938 8.0625 -6.148438 8.1875 -6.203125 C 8.320312 -6.265625 8.441406 -6.304688 8.546875 -6.328125 C 8.648438 -6.367188 8.75 -6.394531 8.84375 -6.40625 L 8.84375 -6.546875 C 8.75 -6.554688 8.648438 -6.582031 8.546875 -6.625 C 8.328125 -6.664062 8.066406 -6.765625 7.765625 -6.921875 L 1.671875 -9.953125 L 1.671875 -11.703125 L 10.125 -7.46875 L 10.125 -5.5 L 1.671875 -1.28125 Z M 1.671875 -3.046875 "/></g></g></g><g fill="#000000" fill-opacity="1"><g transform="translate(153.316404, 146.992933)"><g/></g></g><g clip-path="url(#d86de44d62)"><path fill="#4c77f6" d="M 273.183594 88.6875 L 265.867188 75.523438 L 250.328125 82.152344 L 248.449219 68.785156 L 222.03125 48.714844 L 194.433594 75.902344 L 194.332031 75.878906 L 140.445312 63.429688 L 140.410156 63.394531 L 132.851562 56.308594 L 117.625 60.316406 L 126.332031 67.601562 L 119.371094 81.527344 L 99.488281 70.226562 L 99.511719 70.09375 L 104.292969 42.1875 L 94.816406 57.789062 L 75.671875 48.316406 L 84.238281 61.667969 L 68.160156 88.605469 L 45.613281 60.890625 L 34.101562 68.734375 L 33.890625 68.425781 L 45.6875 60.386719 L 68.109375 87.953125 L 83.796875 61.671875 L 74.625 47.382812 L 94.671875 57.300781 L 104.996094 40.3125 L 99.902344 70.027344 L 119.210938 81.003906 L 125.863281 67.699219 L 116.828125 60.136719 L 132.957031 55.894531 L 140.628906 63.085938 L 194.316406 75.492188 L 222 48.222656 L 222.128906 48.320312 L 248.796875 68.582031 L 250.632812 81.617188 L 266.03125 75.046875 L 273.15625 87.871094 L 290.675781 51.394531 L 298.574219 62.972656 L 318.628906 44.410156 L 318.882812 44.6875 L 298.507812 63.542969 L 290.730469 52.144531 Z M 273.183594 88.6875 " fill-opacity="1" fill-rule="nonzero"/></g><g clip-path="url(#ce0c6b2cde)"><path fill="#4c77f6" d="M 68.179688 88.515625 L 68.046875 88.445312 L 35.867188 71.324219 L 36.042969 70.992188 L 68.09375 88.042969 L 79.378906 75.117188 L 79.433594 75.101562 L 99.582031 69.960938 L 105.183594 61.867188 L 105.3125 61.902344 L 126.007812 67.433594 L 132.796875 55.910156 L 132.90625 55.914062 L 185.644531 56.53125 L 218.539062 29.429688 L 240.089844 57.199219 L 265.941406 75.050781 L 313.890625 35.742188 L 314.128906 36.03125 L 265.960938 75.519531 L 239.828125 57.476562 L 239.8125 57.453125 L 218.476562 29.964844 L 185.777344 56.90625 L 133.011719 56.289062 L 126.1875 67.871094 L 126.050781 67.832031 L 105.34375 62.296875 L 99.808594 70.292969 L 79.582031 75.449219 Z M 68.179688 88.515625 " fill-opacity="1" fill-rule="nonzero"/></g><g clip-path="url(#e95967fa38)"><path fill="#4c77f6" d="M 51.714844 101.699219 L 41.25 77.316406 L 41.59375 77.167969 L 51.757812 100.847656 L 60.53125 84.910156 L 64.304688 69.316406 L 38.882812 60.09375 L 39.011719 59.742188 L 64.746094 69.078125 L 60.886719 85.046875 L 60.875 85.070312 Z M 51.714844 101.699219 " fill-opacity="1" fill-rule="nonzero"/></g><g clip-path="url(#799b61f322)"><path fill="#4c77f6" d="M 51.675781 101.941406 L 45.71875 71.421875 L 40.210938 72.167969 L 40.160156 71.796875 L 45.523438 71.070312 L 42.007812 67.261719 L 42.28125 67.007812 L 45.976562 71.007812 L 64.816406 68.453125 Z M 46.089844 71.371094 L 51.796875 100.605469 L 64.234375 68.914062 Z M 46.089844 71.371094 " fill-opacity="1" fill-rule="nonzero"/></g><g clip-path="url(#9f9f665a89)"><path fill="#4c77f6" d="M 79.035156 92.664062 L 78.75 92.453125 L 36.773438 61.203125 L 36.996094 60.902344 L 78.6875 91.9375 L 79.292969 75.25 L 83.597656 61.921875 L 99.34375 69.742188 L 94.40625 57.195312 L 105.386719 61.929688 L 119.039062 80.601562 L 117.042969 60.246094 L 117.414062 60.207031 L 119.542969 81.929688 L 105.144531 62.234375 L 95.082031 57.894531 L 100.046875 70.511719 L 83.820312 62.449219 L 79.667969 75.316406 Z M 79.035156 92.664062 " fill-opacity="1" fill-rule="nonzero"/></g><g clip-path="url(#fca7500f4e)"><path fill="#4c77f6" d="M 128.902344 79.21875 L 125.957031 67.851562 L 98.921875 70.386719 L 116.457031 59.460938 L 105.308594 62.265625 L 105.21875 61.902344 L 118.6875 58.515625 L 100.46875 69.867188 L 126.238281 67.449219 L 129.070312 78.363281 L 140.378906 63.15625 L 155.460938 34.785156 L 155.636719 34.910156 L 185.75 56.519531 L 222.023438 48.273438 L 222.074219 48.292969 L 262.234375 62.089844 L 290.664062 51.582031 L 290.695312 51.582031 L 304.171875 50.964844 L 304.1875 51.335938 L 290.742188 51.953125 L 262.238281 62.488281 L 222.003906 48.664062 L 185.667969 56.921875 L 155.589844 35.339844 L 140.695312 63.359375 L 140.6875 63.367188 Z M 128.902344 79.21875 " fill-opacity="1" fill-rule="nonzero"/></g><g clip-path="url(#c1777c4819)"><path fill="#4c77f6" d="M 75.542969 80.082031 L 75.253906 79.84375 L 78.921875 75.402344 L 35.933594 70.003906 L 35.980469 69.632812 L 78.234375 74.9375 L 64.007812 68.660156 L 83.640625 62.011719 L 95.132812 56.375 L 79.625 75.140625 L 80.726562 75.628906 L 79.363281 75.457031 Z M 65.042969 68.707031 L 79.265625 74.984375 L 93.738281 57.476562 L 83.78125 62.359375 L 83.769531 62.363281 Z M 65.042969 68.707031 " fill-opacity="1" fill-rule="nonzero"/></g><path fill="#4c77f6" d="M 119.417969 81.40625 L 119.164062 81.125 L 130.089844 71.292969 L 132.757812 55.855469 L 144.53125 59.609375 L 163.933594 46.914062 L 185.332031 56.785156 L 185.363281 56.84375 L 194.734375 76.007812 L 194.316406 75.875 L 144.585938 60.023438 L 139.414062 63.40625 L 130.4375 71.484375 L 129.167969 78.824219 L 128.800781 78.757812 L 129.988281 71.890625 Z M 144.992188 59.757812 L 194.011719 75.386719 L 185.054688 57.066406 L 163.964844 47.339844 Z M 133.054688 56.34375 L 130.542969 70.886719 L 139.183594 63.109375 L 139.195312 63.101562 L 144.125 59.875 Z M 133.054688 56.34375 " fill-opacity="1" fill-rule="nonzero"/><path fill="#4c77f6" d="M 126.035156 67.472656 L 140.785156 62.316406 L 140.910156 62.671875 L 126.160156 67.828125 Z M 126.035156 67.472656 " fill-opacity="1" fill-rule="nonzero"/><g clip-path="url(#30fec419d5)"><path fill="#4c77f6" d="M 249.980469 82.699219 L 240.519531 57.960938 L 222.050781 47.972656 L 222.035156 47.882812 L 218.628906 29.542969 L 194.539062 75.785156 L 194.207031 75.609375 L 218.796875 28.40625 L 222.386719 47.726562 L 240.820312 57.695312 L 250.152344 82.101562 L 302.96875 42.542969 L 303.191406 42.84375 Z M 249.980469 82.699219 " fill-opacity="1" fill-rule="nonzero"/></g><path fill="#4c77f6" d="M 185.433594 55.816406 L 185.160156 55.558594 L 213.941406 25.324219 L 222.292969 48.816406 L 221.941406 48.945312 L 213.792969 26.027344 Z M 185.433594 55.816406 " fill-opacity="1" fill-rule="nonzero"/><path fill="#4c77f6" d="M 265.246094 76.019531 L 249.921875 69.335938 L 250.074219 68.992188 L 264.710938 75.378906 L 261.96875 63.507812 L 249.460938 69.050781 L 240.234375 57.789062 L 240.523438 57.550781 L 249.570312 68.589844 L 262.230469 62.984375 Z M 265.246094 76.019531 " fill-opacity="1" fill-rule="nonzero"/><path fill="#4c77f6" d="M 249.613281 68.457031 L 249.558594 68.085938 L 278.308594 63.761719 L 287.683594 54.660156 L 287.945312 54.929688 L 278.484375 64.117188 Z M 249.613281 68.457031 " fill-opacity="1" fill-rule="nonzero"/><path fill="#4c77f6" d="M 278.390625 64.128906 L 278.375 64.125 L 261.617188 62.269531 L 261.640625 61.894531 L 297.445312 62.445312 L 297.453125 62.820312 Z M 265.578125 62.332031 L 278.398438 63.75 L 292.972656 62.75 Z M 265.578125 62.332031 " fill-opacity="1" fill-rule="nonzero"/><path fill="#4c77f6" d="M 273.738281 89.203125 L 278.203125 63.898438 L 278.574219 63.964844 L 274.105469 89.265625 Z M 273.738281 89.203125 " fill-opacity="1" fill-rule="nonzero"/><g clip-path="url(#7ba7bcbf29)"><path fill="#4c77f6" d="M 290.464844 50.933594 L 290.539062 50.566406 L 314.878906 55.515625 L 314.804688 55.882812 Z M 290.464844 50.933594 " fill-opacity="1" fill-rule="nonzero"/></g><g clip-path="url(#8b7c047638)"><path fill="#4c77f6" d="M 297.273438 63.566406 L 307.792969 44.109375 L 308.125 44.289062 L 297.605469 63.746094 Z M 297.273438 63.566406 " fill-opacity="1" fill-rule="nonzero"/></g><path fill="#4c77f6" d="M 49.15625 61.671875 C 49.15625 61.953125 49.105469 62.222656 48.996094 62.484375 C 48.886719 62.746094 48.734375 62.976562 48.535156 63.175781 C 48.332031 63.378906 48.101562 63.53125 47.84375 63.640625 C 47.582031 63.746094 47.308594 63.800781 47.027344 63.800781 C 46.742188 63.800781 46.472656 63.746094 46.210938 63.640625 C 45.949219 63.53125 45.71875 63.378906 45.519531 63.175781 C 45.320312 62.976562 45.164062 62.746094 45.058594 62.484375 C 44.949219 62.222656 44.894531 61.953125 44.894531 61.671875 C 44.894531 61.386719 44.949219 61.117188 45.058594 60.855469 C 45.164062 60.59375 45.320312 60.363281 45.519531 60.164062 C 45.71875 59.964844 45.949219 59.808594 46.210938 59.699219 C 46.472656 59.59375 46.742188 59.539062 47.027344 59.539062 C 47.308594 59.539062 47.582031 59.59375 47.84375 59.699219 C 48.101562 59.808594 48.332031 59.964844 48.535156 60.164062 C 48.734375 60.363281 48.886719 60.59375 48.996094 60.855469 C 49.105469 61.117188 49.15625 61.386719 49.15625 61.671875 Z M 49.15625 61.671875 " fill-opacity="1" fill-rule="nonzero"/><g clip-path="url(#3ee4989bcb)"><path fill="#4c77f6" d="M 53.695312 100.792969 C 53.695312 101.039062 53.648438 101.277344 53.554688 101.503906 C 53.460938 101.730469 53.328125 101.929688 53.152344 102.105469 C 52.976562 102.28125 52.777344 102.414062 52.550781 102.507812 C 52.324219 102.601562 52.085938 102.648438 51.839844 102.648438 C 51.59375 102.648438 51.355469 102.601562 51.128906 102.507812 C 50.902344 102.414062 50.703125 102.28125 50.527344 102.105469 C 50.351562 101.929688 50.21875 101.730469 50.125 101.503906 C 50.03125 101.277344 49.984375 101.039062 49.984375 100.792969 C 49.984375 100.546875 50.03125 100.308594 50.125 100.082031 C 50.21875 99.855469 50.351562 99.65625 50.527344 99.480469 C 50.703125 99.304688 50.902344 99.171875 51.128906 99.078125 C 51.355469 98.984375 51.59375 98.9375 51.839844 98.9375 C 52.085938 98.9375 52.324219 98.984375 52.550781 99.078125 C 52.777344 99.171875 52.976562 99.304688 53.152344 99.480469 C 53.328125 99.65625 53.460938 99.855469 53.554688 100.082031 C 53.648438 100.308594 53.695312 100.546875 53.695312 100.792969 Z M 53.695312 100.792969 " fill-opacity="1" fill-rule="nonzero"/></g><path fill="#4c77f6" d="M 47.570312 71.132812 C 47.570312 71.34375 47.53125 71.550781 47.449219 71.75 C 47.367188 71.945312 47.25 72.121094 47.097656 72.273438 C 46.945312 72.425781 46.773438 72.542969 46.574219 72.625 C 46.375 72.703125 46.171875 72.746094 45.957031 72.746094 C 45.742188 72.746094 45.535156 72.703125 45.339844 72.625 C 45.140625 72.542969 44.964844 72.425781 44.816406 72.273438 C 44.664062 72.121094 44.546875 71.945312 44.464844 71.75 C 44.382812 71.550781 44.339844 71.34375 44.339844 71.132812 C 44.339844 70.917969 44.382812 70.710938 44.464844 70.511719 C 44.546875 70.316406 44.664062 70.140625 44.816406 69.988281 C 44.964844 69.839844 45.140625 69.722656 45.339844 69.640625 C 45.535156 69.558594 45.742188 69.515625 45.957031 69.515625 C 46.171875 69.515625 46.375 69.558594 46.574219 69.640625 C 46.773438 69.722656 46.945312 69.839844 47.097656 69.988281 C 47.25 70.140625 47.367188 70.316406 47.449219 70.511719 C 47.53125 70.710938 47.570312 70.917969 47.570312 71.132812 Z M 47.570312 71.132812 " fill-opacity="1" fill-rule="nonzero"/><path fill="#4c77f6" d="M 62.566406 84.839844 C 62.566406 85.132812 62.511719 85.414062 62.398438 85.683594 C 62.285156 85.953125 62.128906 86.191406 61.921875 86.398438 C 61.714844 86.605469 61.476562 86.761719 61.207031 86.875 C 60.9375 86.984375 60.65625 87.042969 60.367188 87.042969 C 60.074219 87.042969 59.792969 86.984375 59.523438 86.875 C 59.253906 86.761719 59.015625 86.605469 58.808594 86.398438 C 58.605469 86.191406 58.445312 85.953125 58.332031 85.683594 C 58.222656 85.414062 58.164062 85.132812 58.164062 84.839844 C 58.164062 84.550781 58.222656 84.269531 58.332031 84 C 58.445312 83.730469 58.605469 83.492188 58.808594 83.285156 C 59.015625 83.078125 59.253906 82.921875 59.523438 82.808594 C 59.792969 82.695312 60.074219 82.640625 60.367188 82.640625 C 60.65625 82.640625 60.9375 82.695312 61.207031 82.808594 C 61.476562 82.921875 61.714844 83.078125 61.921875 83.285156 C 62.128906 83.492188 62.285156 83.730469 62.398438 84 C 62.511719 84.269531 62.566406 84.550781 62.566406 84.839844 Z M 62.566406 84.839844 " fill-opacity="1" fill-rule="nonzero"/><path fill="#4c77f6" d="M 69.589844 87.914062 C 69.589844 88.15625 69.542969 88.386719 69.449219 88.609375 C 69.359375 88.832031 69.226562 89.03125 69.054688 89.203125 C 68.886719 89.371094 68.6875 89.503906 68.464844 89.597656 C 68.242188 89.6875 68.007812 89.734375 67.769531 89.734375 C 67.527344 89.734375 67.292969 89.6875 67.070312 89.597656 C 66.847656 89.503906 66.648438 89.371094 66.480469 89.203125 C 66.308594 89.03125 66.175781 88.832031 66.085938 88.609375 C 65.992188 88.386719 65.945312 88.15625 65.945312 87.914062 C 65.945312 87.671875 65.992188 87.4375 66.085938 87.214844 C 66.175781 86.992188 66.308594 86.796875 66.480469 86.625 C 66.648438 86.453125 66.847656 86.324219 67.070312 86.230469 C 67.292969 86.136719 67.527344 86.089844 67.769531 86.089844 C 68.007812 86.089844 68.242188 86.136719 68.464844 86.230469 C 68.6875 86.324219 68.886719 86.453125 69.054688 86.625 C 69.226562 86.796875 69.359375 86.992188 69.449219 87.214844 C 69.542969 87.4375 69.589844 87.671875 69.589844 87.914062 Z M 69.589844 87.914062 " fill-opacity="1" fill-rule="nonzero"/><path fill="#4c77f6" d="M 67.242188 69.269531 C 67.242188 69.644531 67.167969 70.011719 67.023438 70.359375 C 66.878906 70.710938 66.671875 71.019531 66.40625 71.285156 C 66.136719 71.554688 65.828125 71.757812 65.480469 71.902344 C 65.128906 72.046875 64.765625 72.121094 64.386719 72.121094 C 64.007812 72.121094 63.644531 72.046875 63.296875 71.902344 C 62.945312 71.757812 62.636719 71.554688 62.371094 71.285156 C 62.101562 71.019531 61.894531 70.710938 61.75 70.359375 C 61.605469 70.011719 61.535156 69.644531 61.535156 69.269531 C 61.535156 68.890625 61.605469 68.523438 61.75 68.175781 C 61.894531 67.824219 62.101562 67.519531 62.371094 67.25 C 62.636719 66.984375 62.945312 66.777344 63.296875 66.632812 C 63.644531 66.488281 64.007812 66.414062 64.386719 66.414062 C 64.765625 66.414062 65.128906 66.488281 65.480469 66.632812 C 65.828125 66.777344 66.136719 66.984375 66.40625 67.25 C 66.671875 67.519531 66.878906 67.824219 67.023438 68.175781 C 67.167969 68.523438 67.242188 68.890625 67.242188 69.269531 Z M 67.242188 69.269531 " fill-opacity="1" fill-rule="nonzero"/><path fill="#4c77f6" d="M 81.199219 75.730469 C 81.199219 75.964844 81.15625 76.1875 81.066406 76.402344 C 80.976562 76.617188 80.851562 76.804688 80.6875 76.972656 C 80.519531 77.136719 80.332031 77.261719 80.117188 77.351562 C 79.902344 77.441406 79.679688 77.484375 79.445312 77.484375 C 79.214844 77.484375 78.988281 77.441406 78.773438 77.351562 C 78.558594 77.261719 78.371094 77.136719 78.207031 76.972656 C 78.042969 76.804688 77.914062 76.617188 77.828125 76.402344 C 77.738281 76.1875 77.691406 75.964844 77.691406 75.730469 C 77.691406 75.5 77.738281 75.273438 77.828125 75.058594 C 77.914062 74.84375 78.042969 74.65625 78.207031 74.492188 C 78.371094 74.328125 78.558594 74.199219 78.773438 74.113281 C 78.988281 74.023438 79.214844 73.976562 79.445312 73.976562 C 79.679688 73.976562 79.902344 74.023438 80.117188 74.113281 C 80.332031 74.199219 80.519531 74.328125 80.6875 74.492188 C 80.851562 74.65625 80.976562 74.84375 81.066406 75.058594 C 81.15625 75.273438 81.199219 75.5 81.199219 75.730469 Z M 81.199219 75.730469 " fill-opacity="1" fill-rule="nonzero"/><path fill="#4c77f6" d="M 85.566406 61.859375 C 85.566406 62.117188 85.515625 62.363281 85.417969 62.601562 C 85.320312 62.839844 85.179688 63.050781 84.996094 63.234375 C 84.8125 63.414062 84.605469 63.554688 84.367188 63.652344 C 84.128906 63.753906 83.878906 63.800781 83.621094 63.800781 C 83.367188 63.800781 83.117188 63.753906 82.878906 63.652344 C 82.640625 63.554688 82.429688 63.414062 82.25 63.234375 C 82.066406 63.050781 81.925781 62.839844 81.828125 62.601562 C 81.730469 62.363281 81.679688 62.117188 81.679688 61.859375 C 81.679688 61.601562 81.730469 61.355469 81.828125 61.117188 C 81.925781 60.878906 82.066406 60.667969 82.25 60.484375 C 82.429688 60.304688 82.640625 60.164062 82.878906 60.066406 C 83.117188 59.964844 83.367188 59.917969 83.621094 59.917969 C 83.878906 59.917969 84.128906 59.964844 84.367188 60.066406 C 84.605469 60.164062 84.8125 60.304688 84.996094 60.484375 C 85.179688 60.667969 85.320312 60.878906 85.417969 61.117188 C 85.515625 61.355469 85.566406 61.601562 85.566406 61.859375 Z M 85.566406 61.859375 " fill-opacity="1" fill-rule="nonzero"/><path fill="#4c77f6" d="M 96.394531 57.0625 C 96.394531 57.320312 96.34375 57.5625 96.246094 57.800781 C 96.148438 58.035156 96.011719 58.242188 95.832031 58.425781 C 95.648438 58.605469 95.441406 58.746094 95.207031 58.84375 C 94.96875 58.941406 94.722656 58.988281 94.46875 58.988281 C 94.214844 58.988281 93.96875 58.941406 93.730469 58.84375 C 93.496094 58.746094 93.289062 58.605469 93.109375 58.425781 C 92.925781 58.242188 92.789062 58.035156 92.691406 57.800781 C 92.59375 57.5625 92.542969 57.320312 92.542969 57.0625 C 92.542969 56.808594 92.59375 56.5625 92.691406 56.328125 C 92.789062 56.089844 92.925781 55.882812 93.109375 55.703125 C 93.289062 55.523438 93.496094 55.382812 93.730469 55.285156 C 93.96875 55.1875 94.214844 55.136719 94.46875 55.136719 C 94.722656 55.136719 94.96875 55.1875 95.207031 55.285156 C 95.441406 55.382812 95.648438 55.523438 95.832031 55.703125 C 96.011719 55.882812 96.148438 56.089844 96.246094 56.328125 C 96.34375 56.5625 96.394531 56.808594 96.394531 57.0625 Z M 96.394531 57.0625 " fill-opacity="1" fill-rule="nonzero"/><path fill="#4c77f6" d="M 102.726562 69.578125 C 102.726562 70 102.644531 70.402344 102.484375 70.792969 C 102.324219 71.179688 102.09375 71.519531 101.796875 71.816406 C 101.5 72.113281 101.160156 72.34375 100.773438 72.503906 C 100.382812 72.664062 99.980469 72.746094 99.558594 72.746094 C 99.140625 72.746094 98.738281 72.664062 98.347656 72.503906 C 97.960938 72.34375 97.617188 72.113281 97.320312 71.816406 C 97.023438 71.519531 96.796875 71.179688 96.636719 70.792969 C 96.476562 70.402344 96.394531 70 96.394531 69.578125 C 96.394531 69.160156 96.476562 68.757812 96.636719 68.367188 C 96.796875 67.980469 97.023438 67.636719 97.320312 67.339844 C 97.617188 67.042969 97.960938 66.816406 98.347656 66.65625 C 98.738281 66.496094 99.140625 66.414062 99.558594 66.414062 C 99.980469 66.414062 100.382812 66.496094 100.773438 66.65625 C 101.160156 66.816406 101.5 67.042969 101.796875 67.339844 C 102.09375 67.636719 102.324219 67.980469 102.484375 68.367188 C 102.644531 68.757812 102.726562 69.160156 102.726562 69.578125 Z M 102.726562 69.578125 " fill-opacity="1" fill-rule="nonzero"/><path fill="#4c77f6" d="M 76.394531 47.980469 C 76.394531 48.199219 76.351562 48.410156 76.265625 48.613281 C 76.183594 48.816406 76.0625 48.992188 75.910156 49.148438 C 75.753906 49.304688 75.574219 49.421875 75.375 49.503906 C 75.171875 49.589844 74.960938 49.632812 74.742188 49.632812 C 74.523438 49.632812 74.3125 49.589844 74.109375 49.503906 C 73.910156 49.421875 73.730469 49.304688 73.574219 49.148438 C 73.421875 48.992188 73.300781 48.816406 73.21875 48.613281 C 73.132812 48.410156 73.09375 48.199219 73.09375 47.980469 C 73.09375 47.761719 73.132812 47.550781 73.21875 47.351562 C 73.300781 47.148438 73.421875 46.96875 73.574219 46.8125 C 73.730469 46.660156 73.910156 46.539062 74.109375 46.457031 C 74.3125 46.371094 74.523438 46.332031 74.742188 46.332031 C 74.960938 46.332031 75.171875 46.371094 75.375 46.457031 C 75.574219 46.539062 75.753906 46.660156 75.910156 46.8125 C 76.0625 46.96875 76.183594 47.148438 76.265625 47.351562 C 76.351562 47.550781 76.394531 47.761719 76.394531 47.980469 Z M 76.394531 47.980469 " fill-opacity="1" fill-rule="nonzero"/><path fill="#4c77f6" d="M 106.363281 41.351562 C 106.363281 41.546875 106.328125 41.738281 106.25 41.917969 C 106.175781 42.097656 106.070312 42.257812 105.929688 42.398438 C 105.792969 42.535156 105.632812 42.644531 105.453125 42.71875 C 105.269531 42.792969 105.082031 42.832031 104.886719 42.832031 C 104.691406 42.832031 104.5 42.792969 104.320312 42.71875 C 104.140625 42.644531 103.980469 42.535156 103.839844 42.398438 C 103.703125 42.257812 103.59375 42.097656 103.519531 41.917969 C 103.445312 41.738281 103.40625 41.546875 103.40625 41.351562 C 103.40625 41.15625 103.445312 40.96875 103.519531 40.785156 C 103.59375 40.605469 103.703125 40.445312 103.839844 40.304688 C 103.980469 40.167969 104.140625 40.0625 104.320312 39.984375 C 104.5 39.910156 104.691406 39.875 104.886719 39.875 C 105.082031 39.875 105.269531 39.910156 105.453125 39.984375 C 105.632812 40.0625 105.792969 40.167969 105.929688 40.304688 C 106.070312 40.445312 106.175781 40.605469 106.25 40.785156 C 106.328125 40.96875 106.363281 41.15625 106.363281 41.351562 Z M 106.363281 41.351562 " fill-opacity="1" fill-rule="nonzero"/><path fill="#4c77f6" d="M 106.84375 62.183594 C 106.84375 62.363281 106.8125 62.535156 106.742188 62.699219 C 106.675781 62.863281 106.578125 63.007812 106.453125 63.132812 C 106.328125 63.257812 106.183594 63.355469 106.019531 63.425781 C 105.855469 63.492188 105.683594 63.527344 105.503906 63.527344 C 105.328125 63.527344 105.15625 63.492188 104.992188 63.425781 C 104.828125 63.355469 104.683594 63.257812 104.558594 63.132812 C 104.429688 63.007812 104.335938 62.863281 104.265625 62.699219 C 104.199219 62.535156 104.164062 62.363281 104.164062 62.183594 C 104.164062 62.007812 104.199219 61.835938 104.265625 61.671875 C 104.335938 61.507812 104.429688 61.363281 104.558594 61.238281 C 104.683594 61.113281 104.828125 61.015625 104.992188 60.945312 C 105.15625 60.878906 105.328125 60.84375 105.503906 60.84375 C 105.683594 60.84375 105.855469 60.878906 106.019531 60.945312 C 106.183594 61.015625 106.328125 61.113281 106.453125 61.238281 C 106.578125 61.363281 106.675781 61.507812 106.742188 61.671875 C 106.8125 61.835938 106.84375 62.007812 106.84375 62.183594 Z M 106.84375 62.183594 " fill-opacity="1" fill-rule="nonzero"/><path fill="#4c77f6" d="M 119.210938 59.675781 C 119.210938 59.878906 119.171875 60.074219 119.097656 60.261719 C 119.019531 60.449219 118.90625 60.613281 118.765625 60.757812 C 118.621094 60.898438 118.457031 61.011719 118.269531 61.089844 C 118.082031 61.164062 117.886719 61.203125 117.683594 61.203125 C 117.480469 61.203125 117.285156 61.164062 117.097656 61.089844 C 116.910156 61.011719 116.742188 60.898438 116.601562 60.757812 C 116.457031 60.613281 116.347656 60.449219 116.269531 60.261719 C 116.191406 60.074219 116.152344 59.878906 116.152344 59.675781 C 116.152344 59.472656 116.191406 59.277344 116.269531 59.089844 C 116.347656 58.902344 116.457031 58.738281 116.601562 58.59375 C 116.742188 58.449219 116.910156 58.339844 117.097656 58.261719 C 117.285156 58.183594 117.480469 58.144531 117.683594 58.144531 C 117.886719 58.144531 118.082031 58.183594 118.269531 58.261719 C 118.457031 58.339844 118.621094 58.449219 118.765625 58.59375 C 118.90625 58.738281 119.019531 58.902344 119.097656 59.089844 C 119.171875 59.277344 119.210938 59.472656 119.210938 59.675781 Z M 119.210938 59.675781 " fill-opacity="1" fill-rule="nonzero"/><path fill="#4c77f6" d="M 121.304688 80.878906 C 121.304688 81.117188 121.257812 81.347656 121.167969 81.570312 C 121.074219 81.792969 120.945312 81.988281 120.773438 82.160156 C 120.605469 82.328125 120.410156 82.460938 120.1875 82.550781 C 119.964844 82.644531 119.734375 82.6875 119.492188 82.6875 C 119.253906 82.6875 119.023438 82.644531 118.800781 82.550781 C 118.578125 82.460938 118.382812 82.328125 118.214844 82.160156 C 118.042969 81.988281 117.914062 81.792969 117.820312 81.570312 C 117.726562 81.347656 117.683594 81.117188 117.683594 80.878906 C 117.683594 80.636719 117.726562 80.40625 117.820312 80.183594 C 117.914062 79.960938 118.042969 79.765625 118.214844 79.597656 C 118.382812 79.425781 118.578125 79.296875 118.800781 79.203125 C 119.023438 79.113281 119.253906 79.066406 119.492188 79.066406 C 119.734375 79.066406 119.964844 79.113281 120.1875 79.203125 C 120.410156 79.296875 120.605469 79.425781 120.773438 79.597656 C 120.945312 79.765625 121.074219 79.960938 121.167969 80.183594 C 121.257812 80.40625 121.304688 80.636719 121.304688 80.878906 Z M 121.304688 80.878906 " fill-opacity="1" fill-rule="nonzero"/><path fill="#4c77f6" d="M 127.542969 68.339844 C 127.542969 68.59375 127.492188 68.839844 127.394531 69.074219 C 127.296875 69.3125 127.15625 69.519531 126.976562 69.699219 C 126.796875 69.882812 126.589844 70.019531 126.351562 70.117188 C 126.117188 70.214844 125.871094 70.265625 125.617188 70.265625 C 125.359375 70.265625 125.117188 70.214844 124.878906 70.117188 C 124.644531 70.019531 124.4375 69.882812 124.253906 69.699219 C 124.074219 69.519531 123.9375 69.3125 123.839844 69.074219 C 123.738281 68.839844 123.691406 68.59375 123.691406 68.339844 C 123.691406 68.085938 123.738281 67.839844 123.839844 67.601562 C 123.9375 67.367188 124.074219 67.160156 124.253906 66.976562 C 124.4375 66.796875 124.644531 66.660156 124.878906 66.5625 C 125.117188 66.464844 125.359375 66.414062 125.617188 66.414062 C 125.871094 66.414062 126.117188 66.464844 126.351562 66.5625 C 126.589844 66.660156 126.796875 66.796875 126.976562 66.976562 C 127.15625 67.160156 127.296875 67.367188 127.394531 67.601562 C 127.492188 67.839844 127.542969 68.085938 127.542969 68.339844 Z M 127.542969 68.339844 " fill-opacity="1" fill-rule="nonzero"/><path fill="#4c77f6" d="M 130.980469 78.585938 C 130.980469 78.8125 130.9375 79.03125 130.847656 79.242188 C 130.761719 79.453125 130.636719 79.640625 130.476562 79.800781 C 130.316406 79.960938 130.128906 80.085938 129.917969 80.171875 C 129.707031 80.261719 129.488281 80.304688 129.261719 80.304688 C 129.03125 80.304688 128.8125 80.261719 128.601562 80.171875 C 128.390625 80.085938 128.207031 79.960938 128.042969 79.800781 C 127.882812 79.640625 127.757812 79.453125 127.671875 79.242188 C 127.585938 79.03125 127.542969 78.8125 127.542969 78.585938 C 127.542969 78.355469 127.585938 78.136719 127.671875 77.925781 C 127.757812 77.714844 127.882812 77.53125 128.042969 77.367188 C 128.207031 77.207031 128.390625 77.082031 128.601562 76.996094 C 128.8125 76.910156 129.03125 76.867188 129.261719 76.867188 C 129.488281 76.867188 129.707031 76.910156 129.917969 76.996094 C 130.128906 77.082031 130.316406 77.207031 130.476562 77.367188 C 130.636719 77.53125 130.761719 77.714844 130.847656 77.925781 C 130.9375 78.136719 130.980469 78.355469 130.980469 78.585938 Z M 130.980469 78.585938 " fill-opacity="1" fill-rule="nonzero"/><path fill="#4c77f6" d="M 142.941406 62.976562 C 142.941406 63.257812 142.890625 63.53125 142.78125 63.792969 C 142.671875 64.054688 142.519531 64.285156 142.320312 64.484375 C 142.117188 64.683594 141.886719 64.835938 141.628906 64.945312 C 141.367188 65.054688 141.09375 65.109375 140.8125 65.109375 C 140.527344 65.109375 140.257812 65.054688 139.996094 64.945312 C 139.734375 64.835938 139.503906 64.683594 139.304688 64.484375 C 139.105469 64.285156 138.949219 64.054688 138.84375 63.792969 C 138.734375 63.53125 138.679688 63.257812 138.679688 62.976562 C 138.679688 62.695312 138.734375 62.421875 138.84375 62.160156 C 138.949219 61.898438 139.105469 61.667969 139.304688 61.46875 C 139.503906 61.269531 139.734375 61.113281 139.996094 61.007812 C 140.257812 60.898438 140.527344 60.84375 140.8125 60.84375 C 141.09375 60.84375 141.367188 60.898438 141.628906 61.007812 C 141.886719 61.113281 142.117188 61.269531 142.320312 61.46875 C 142.519531 61.667969 142.671875 61.898438 142.78125 62.160156 C 142.890625 62.421875 142.941406 62.695312 142.941406 62.976562 Z M 142.941406 62.976562 " fill-opacity="1" fill-rule="nonzero"/><path fill="#4c77f6" d="M 133.941406 56.378906 C 133.941406 56.542969 133.910156 56.699219 133.847656 56.851562 C 133.785156 57.003906 133.695312 57.136719 133.578125 57.253906 C 133.460938 57.371094 133.328125 57.460938 133.175781 57.523438 C 133.023438 57.585938 132.863281 57.617188 132.699219 57.617188 C 132.535156 57.617188 132.378906 57.585938 132.226562 57.523438 C 132.074219 57.460938 131.941406 57.371094 131.824219 57.253906 C 131.707031 57.136719 131.617188 57.003906 131.554688 56.851562 C 131.492188 56.699219 131.460938 56.542969 131.460938 56.378906 C 131.460938 56.214844 131.492188 56.054688 131.554688 55.902344 C 131.617188 55.75 131.707031 55.617188 131.824219 55.5 C 131.941406 55.382812 132.074219 55.296875 132.226562 55.230469 C 132.378906 55.167969 132.535156 55.136719 132.699219 55.136719 C 132.863281 55.136719 133.023438 55.167969 133.175781 55.230469 C 133.328125 55.296875 133.460938 55.382812 133.578125 55.5 C 133.695312 55.617188 133.785156 55.75 133.847656 55.902344 C 133.910156 56.054688 133.941406 56.214844 133.941406 56.378906 Z M 133.941406 56.378906 " fill-opacity="1" fill-rule="nonzero"/><path fill="#4c77f6" d="M 158.078125 35.375 C 158.078125 35.664062 158.023438 35.9375 157.910156 36.203125 C 157.800781 36.46875 157.644531 36.707031 157.441406 36.910156 C 157.238281 37.113281 157.003906 37.269531 156.738281 37.378906 C 156.472656 37.488281 156.195312 37.542969 155.90625 37.542969 C 155.621094 37.542969 155.34375 37.488281 155.078125 37.378906 C 154.8125 37.269531 154.578125 37.113281 154.375 36.910156 C 154.171875 36.707031 154.011719 36.46875 153.902344 36.203125 C 153.792969 35.9375 153.738281 35.664062 153.738281 35.375 C 153.738281 35.085938 153.792969 34.808594 153.902344 34.542969 C 154.011719 34.277344 154.171875 34.042969 154.375 33.839844 C 154.578125 33.636719 154.8125 33.480469 155.078125 33.371094 C 155.34375 33.261719 155.621094 33.203125 155.90625 33.203125 C 156.195312 33.203125 156.472656 33.261719 156.738281 33.371094 C 157.003906 33.480469 157.238281 33.636719 157.441406 33.839844 C 157.644531 34.042969 157.800781 34.277344 157.910156 34.542969 C 158.023438 34.808594 158.078125 35.085938 158.078125 35.375 Z M 158.078125 35.375 " fill-opacity="1" fill-rule="nonzero"/><path fill="#4c77f6" d="M 165.488281 47.046875 C 165.488281 47.277344 165.441406 47.5 165.355469 47.710938 C 165.265625 47.925781 165.140625 48.113281 164.976562 48.277344 C 164.816406 48.4375 164.628906 48.5625 164.414062 48.652344 C 164.203125 48.738281 163.980469 48.785156 163.75 48.785156 C 163.519531 48.785156 163.300781 48.738281 163.085938 48.652344 C 162.875 48.5625 162.6875 48.4375 162.523438 48.277344 C 162.359375 48.113281 162.234375 47.925781 162.148438 47.710938 C 162.058594 47.5 162.015625 47.277344 162.015625 47.046875 C 162.015625 46.816406 162.058594 46.597656 162.148438 46.382812 C 162.234375 46.171875 162.359375 45.984375 162.523438 45.820312 C 162.6875 45.65625 162.875 45.53125 163.085938 45.445312 C 163.300781 45.355469 163.519531 45.3125 163.75 45.3125 C 163.980469 45.3125 164.203125 45.355469 164.414062 45.445312 C 164.628906 45.53125 164.816406 45.65625 164.976562 45.820312 C 165.140625 45.984375 165.265625 46.171875 165.355469 46.382812 C 165.441406 46.597656 165.488281 46.816406 165.488281 47.046875 Z M 165.488281 47.046875 " fill-opacity="1" fill-rule="nonzero"/><path fill="#4c77f6" d="M 189.214844 56.410156 C 189.214844 56.917969 189.121094 57.402344 188.925781 57.871094 C 188.734375 58.339844 188.457031 58.75 188.097656 59.109375 C 187.742188 59.464844 187.328125 59.742188 186.859375 59.9375 C 186.394531 60.128906 185.90625 60.226562 185.402344 60.226562 C 184.894531 60.226562 184.40625 60.128906 183.941406 59.9375 C 183.472656 59.742188 183.058594 59.464844 182.703125 59.109375 C 182.34375 58.75 182.070312 58.339844 181.875 57.871094 C 181.679688 57.402344 181.585938 56.917969 181.585938 56.410156 C 181.585938 55.90625 181.679688 55.417969 181.875 54.949219 C 182.070312 54.484375 182.34375 54.070312 182.703125 53.710938 C 183.058594 53.355469 183.472656 53.078125 183.941406 52.886719 C 184.40625 52.691406 184.894531 52.59375 185.402344 52.59375 C 185.90625 52.59375 186.394531 52.691406 186.859375 52.886719 C 187.328125 53.078125 187.742188 53.355469 188.097656 53.710938 C 188.457031 54.070312 188.734375 54.484375 188.925781 54.949219 C 189.121094 55.417969 189.214844 55.90625 189.214844 56.410156 Z M 189.214844 56.410156 " fill-opacity="1" fill-rule="nonzero"/><path fill="#4c77f6" d="M 196.230469 75.75 C 196.230469 76.011719 196.179688 76.265625 196.078125 76.507812 C 195.980469 76.75 195.835938 76.960938 195.652344 77.148438 C 195.464844 77.332031 195.25 77.476562 195.007812 77.578125 C 194.765625 77.675781 194.515625 77.726562 194.253906 77.726562 C 193.988281 77.726562 193.738281 77.675781 193.496094 77.578125 C 193.253906 77.476562 193.039062 77.332031 192.855469 77.148438 C 192.667969 76.960938 192.527344 76.75 192.425781 76.507812 C 192.324219 76.265625 192.273438 76.011719 192.273438 75.75 C 192.273438 75.488281 192.324219 75.234375 192.425781 74.992188 C 192.527344 74.75 192.667969 74.535156 192.855469 74.351562 C 193.039062 74.164062 193.253906 74.023438 193.496094 73.921875 C 193.738281 73.820312 193.988281 73.769531 194.253906 73.769531 C 194.515625 73.769531 194.765625 73.820312 195.007812 73.921875 C 195.25 74.023438 195.464844 74.164062 195.652344 74.351562 C 195.835938 74.535156 195.980469 74.75 196.078125 74.992188 C 196.179688 75.234375 196.230469 75.488281 196.230469 75.75 Z M 196.230469 75.75 " fill-opacity="1" fill-rule="nonzero"/><g clip-path="url(#66c549b4a3)"><path fill="#4c77f6" d="M 215.550781 25.640625 C 215.550781 25.816406 215.519531 25.980469 215.453125 26.140625 C 215.386719 26.300781 215.292969 26.441406 215.167969 26.566406 C 215.046875 26.6875 214.90625 26.78125 214.746094 26.847656 C 214.585938 26.914062 214.417969 26.949219 214.246094 26.949219 C 214.070312 26.949219 213.90625 26.914062 213.746094 26.847656 C 213.585938 26.78125 213.445312 26.6875 213.320312 26.566406 C 213.199219 26.441406 213.105469 26.300781 213.039062 26.140625 C 212.972656 25.980469 212.9375 25.816406 212.9375 25.640625 C 212.9375 25.46875 212.972656 25.300781 213.039062 25.140625 C 213.105469 24.980469 213.199219 24.839844 213.320312 24.71875 C 213.445312 24.59375 213.585938 24.5 213.746094 24.433594 C 213.90625 24.367188 214.070312 24.335938 214.246094 24.335938 C 214.417969 24.335938 214.585938 24.367188 214.746094 24.433594 C 214.90625 24.5 215.046875 24.59375 215.167969 24.71875 C 215.292969 24.839844 215.386719 24.980469 215.453125 25.140625 C 215.519531 25.300781 215.550781 25.46875 215.550781 25.640625 Z M 215.550781 25.640625 " fill-opacity="1" fill-rule="nonzero"/></g><path fill="#4c77f6" d="M 220.53125 29.664062 C 220.53125 29.894531 220.488281 30.121094 220.398438 30.335938 C 220.3125 30.550781 220.183594 30.738281 220.019531 30.902344 C 219.855469 31.066406 219.664062 31.195312 219.449219 31.285156 C 219.234375 31.371094 219.011719 31.417969 218.78125 31.417969 C 218.546875 31.417969 218.324219 31.371094 218.109375 31.285156 C 217.894531 31.195312 217.703125 31.066406 217.539062 30.902344 C 217.375 30.738281 217.25 30.550781 217.160156 30.335938 C 217.070312 30.121094 217.027344 29.894531 217.027344 29.664062 C 217.027344 29.429688 217.070312 29.207031 217.160156 28.992188 C 217.25 28.777344 217.375 28.589844 217.539062 28.425781 C 217.703125 28.257812 217.894531 28.132812 218.109375 28.042969 C 218.324219 27.953125 218.546875 27.910156 218.78125 27.910156 C 219.011719 27.910156 219.234375 27.953125 219.449219 28.042969 C 219.664062 28.132812 219.855469 28.257812 220.019531 28.425781 C 220.183594 28.589844 220.3125 28.777344 220.398438 28.992188 C 220.488281 29.207031 220.53125 29.429688 220.53125 29.664062 Z M 220.53125 29.664062 " fill-opacity="1" fill-rule="nonzero"/><path fill="#4c77f6" d="M 227.382812 48.777344 C 227.382812 49.144531 227.347656 49.511719 227.277344 49.871094 C 227.203125 50.230469 227.097656 50.582031 226.957031 50.921875 C 226.816406 51.261719 226.644531 51.585938 226.4375 51.890625 C 226.234375 52.195312 226.003906 52.480469 225.742188 52.742188 C 225.480469 53 225.199219 53.234375 224.894531 53.4375 C 224.585938 53.640625 224.265625 53.8125 223.925781 53.957031 C 223.585938 54.097656 223.234375 54.203125 222.871094 54.273438 C 222.511719 54.347656 222.148438 54.382812 221.78125 54.382812 C 221.410156 54.382812 221.046875 54.347656 220.6875 54.273438 C 220.324219 54.203125 219.976562 54.097656 219.636719 53.957031 C 219.296875 53.8125 218.972656 53.640625 218.667969 53.4375 C 218.359375 53.234375 218.078125 53 217.816406 52.742188 C 217.558594 52.480469 217.324219 52.195312 217.121094 51.890625 C 216.914062 51.585938 216.742188 51.261719 216.601562 50.921875 C 216.460938 50.582031 216.355469 50.230469 216.285156 49.871094 C 216.210938 49.511719 216.175781 49.144531 216.175781 48.777344 C 216.175781 48.410156 216.210938 48.046875 216.285156 47.683594 C 216.355469 47.324219 216.460938 46.972656 216.601562 46.632812 C 216.742188 46.292969 216.914062 45.96875 217.121094 45.664062 C 217.324219 45.359375 217.558594 45.074219 217.816406 44.816406 C 218.078125 44.554688 218.359375 44.324219 218.667969 44.117188 C 218.972656 43.914062 219.296875 43.742188 219.636719 43.601562 C 219.976562 43.460938 220.324219 43.351562 220.6875 43.28125 C 221.046875 43.210938 221.410156 43.175781 221.78125 43.175781 C 222.148438 43.175781 222.511719 43.210938 222.871094 43.28125 C 223.234375 43.351562 223.585938 43.460938 223.925781 43.601562 C 224.265625 43.742188 224.585938 43.914062 224.894531 44.117188 C 225.199219 44.324219 225.480469 44.554688 225.742188 44.816406 C 226.003906 45.074219 226.234375 45.359375 226.4375 45.664062 C 226.644531 45.96875 226.816406 46.292969 226.957031 46.632812 C 227.097656 46.972656 227.203125 47.324219 227.277344 47.683594 C 227.347656 48.046875 227.382812 48.410156 227.382812 48.777344 Z M 227.382812 48.777344 " fill-opacity="1" fill-rule="nonzero"/><path fill="#4c77f6" d="M 242.105469 57.664062 C 242.105469 57.84375 242.070312 58.019531 242 58.1875 C 241.929688 58.359375 241.828125 58.507812 241.699219 58.636719 C 241.570312 58.765625 241.421875 58.863281 241.253906 58.933594 C 241.085938 59.003906 240.910156 59.039062 240.730469 59.039062 C 240.546875 59.039062 240.371094 59.003906 240.203125 58.933594 C 240.035156 58.863281 239.886719 58.765625 239.757812 58.636719 C 239.628906 58.507812 239.527344 58.359375 239.457031 58.1875 C 239.390625 58.019531 239.355469 57.84375 239.355469 57.664062 C 239.355469 57.480469 239.390625 57.304688 239.457031 57.136719 C 239.527344 56.96875 239.628906 56.820312 239.757812 56.691406 C 239.886719 56.5625 240.035156 56.460938 240.203125 56.394531 C 240.371094 56.324219 240.546875 56.289062 240.730469 56.289062 C 240.910156 56.289062 241.085938 56.324219 241.253906 56.394531 C 241.421875 56.460938 241.570312 56.5625 241.699219 56.691406 C 241.828125 56.820312 241.929688 56.96875 242 57.136719 C 242.070312 57.304688 242.105469 57.480469 242.105469 57.664062 Z M 242.105469 57.664062 " fill-opacity="1" fill-rule="nonzero"/><path fill="#4c77f6" d="M 279.832031 63.773438 C 279.832031 63.957031 279.796875 64.132812 279.726562 64.300781 C 279.65625 64.46875 279.558594 64.617188 279.429688 64.746094 C 279.300781 64.875 279.152344 64.976562 278.980469 65.046875 C 278.8125 65.113281 278.636719 65.148438 278.457031 65.148438 C 278.273438 65.148438 278.097656 65.113281 277.929688 65.046875 C 277.761719 64.976562 277.613281 64.875 277.484375 64.746094 C 277.355469 64.617188 277.253906 64.46875 277.1875 64.300781 C 277.117188 64.132812 277.082031 63.957031 277.082031 63.773438 C 277.082031 63.59375 277.117188 63.417969 277.1875 63.25 C 277.253906 63.082031 277.355469 62.929688 277.484375 62.800781 C 277.613281 62.671875 277.761719 62.574219 277.929688 62.503906 C 278.097656 62.433594 278.273438 62.398438 278.457031 62.398438 C 278.636719 62.398438 278.8125 62.433594 278.980469 62.503906 C 279.152344 62.574219 279.300781 62.671875 279.429688 62.800781 C 279.558594 62.929688 279.65625 63.082031 279.726562 63.25 C 279.796875 63.417969 279.832031 63.59375 279.832031 63.773438 Z M 279.832031 63.773438 " fill-opacity="1" fill-rule="nonzero"/><path fill="#4c77f6" d="M 250.203125 68.648438 C 250.203125 68.808594 250.175781 68.960938 250.113281 69.109375 C 250.050781 69.257812 249.964844 69.386719 249.851562 69.5 C 249.738281 69.613281 249.609375 69.699219 249.460938 69.761719 C 249.316406 69.820312 249.160156 69.851562 249 69.851562 C 248.84375 69.851562 248.6875 69.820312 248.542969 69.761719 C 248.394531 69.699219 248.265625 69.613281 248.152344 69.5 C 248.039062 69.386719 247.949219 69.257812 247.890625 69.109375 C 247.828125 68.960938 247.796875 68.808594 247.796875 68.648438 C 247.796875 68.488281 247.828125 68.335938 247.890625 68.1875 C 247.949219 68.039062 248.039062 67.910156 248.152344 67.796875 C 248.265625 67.683594 248.394531 67.597656 248.542969 67.539062 C 248.6875 67.476562 248.84375 67.445312 249 67.445312 C 249.160156 67.445312 249.316406 67.476562 249.460938 67.539062 C 249.609375 67.597656 249.738281 67.683594 249.851562 67.796875 C 249.964844 67.910156 250.050781 68.039062 250.113281 68.1875 C 250.175781 68.335938 250.203125 68.488281 250.203125 68.648438 Z M 250.203125 68.648438 " fill-opacity="1" fill-rule="nonzero"/><path fill="#4c77f6" d="M 266.671875 75.699219 C 266.671875 75.859375 266.640625 76.011719 266.582031 76.160156 C 266.519531 76.304688 266.433594 76.4375 266.320312 76.550781 C 266.207031 76.660156 266.078125 76.75 265.929688 76.808594 C 265.78125 76.871094 265.628906 76.902344 265.46875 76.902344 C 265.308594 76.902344 265.15625 76.871094 265.007812 76.808594 C 264.859375 76.75 264.730469 76.660156 264.617188 76.550781 C 264.503906 76.4375 264.417969 76.304688 264.355469 76.160156 C 264.296875 76.011719 264.265625 75.859375 264.265625 75.699219 C 264.265625 75.539062 264.296875 75.386719 264.355469 75.238281 C 264.417969 75.089844 264.503906 74.960938 264.617188 74.847656 C 264.730469 74.734375 264.859375 74.648438 265.007812 74.585938 C 265.15625 74.527344 265.308594 74.496094 265.46875 74.496094 C 265.628906 74.496094 265.78125 74.527344 265.929688 74.585938 C 266.078125 74.648438 266.207031 74.734375 266.320312 74.847656 C 266.433594 74.960938 266.519531 75.089844 266.582031 75.238281 C 266.640625 75.386719 266.671875 75.539062 266.671875 75.699219 Z M 266.671875 75.699219 " fill-opacity="1" fill-rule="nonzero"/><path fill="#4c77f6" d="M 251.929688 81.894531 C 251.929688 82.097656 251.890625 82.296875 251.8125 82.484375 C 251.730469 82.675781 251.621094 82.84375 251.476562 82.988281 C 251.332031 83.132812 251.164062 83.242188 250.972656 83.320312 C 250.785156 83.402344 250.585938 83.441406 250.382812 83.441406 C 250.175781 83.441406 249.980469 83.402344 249.789062 83.320312 C 249.601562 83.242188 249.433594 83.132812 249.289062 82.988281 C 249.144531 82.84375 249.03125 82.675781 248.953125 82.484375 C 248.875 82.296875 248.835938 82.097656 248.835938 81.894531 C 248.835938 81.6875 248.875 81.492188 248.953125 81.300781 C 249.03125 81.113281 249.144531 80.945312 249.289062 80.800781 C 249.433594 80.65625 249.601562 80.542969 249.789062 80.464844 C 249.980469 80.386719 250.175781 80.347656 250.382812 80.347656 C 250.585938 80.347656 250.785156 80.386719 250.972656 80.464844 C 251.164062 80.542969 251.332031 80.65625 251.476562 80.800781 C 251.621094 80.945312 251.730469 81.113281 251.8125 81.300781 C 251.890625 81.492188 251.929688 81.6875 251.929688 81.894531 Z M 251.929688 81.894531 " fill-opacity="1" fill-rule="nonzero"/><path fill="#4c77f6" d="M 275.320312 88.632812 C 275.320312 88.835938 275.28125 89.035156 275.203125 89.222656 C 275.125 89.414062 275.015625 89.582031 274.867188 89.726562 C 274.722656 89.871094 274.558594 89.980469 274.367188 90.058594 C 274.179688 90.140625 273.980469 90.179688 273.777344 90.179688 C 273.570312 90.179688 273.375 90.140625 273.183594 90.058594 C 272.996094 89.980469 272.828125 89.871094 272.683594 89.726562 C 272.539062 89.582031 272.425781 89.414062 272.347656 89.222656 C 272.269531 89.035156 272.230469 88.835938 272.230469 88.632812 C 272.230469 88.425781 272.269531 88.230469 272.347656 88.039062 C 272.425781 87.851562 272.539062 87.683594 272.683594 87.539062 C 272.828125 87.394531 272.996094 87.28125 273.183594 87.203125 C 273.375 87.125 273.570312 87.085938 273.777344 87.085938 C 273.980469 87.085938 274.179688 87.125 274.367188 87.203125 C 274.558594 87.28125 274.722656 87.394531 274.867188 87.539062 C 275.015625 87.683594 275.125 87.851562 275.203125 88.039062 C 275.28125 88.230469 275.320312 88.425781 275.320312 88.632812 Z M 275.320312 88.632812 " fill-opacity="1" fill-rule="nonzero"/><g clip-path="url(#86fa6450e0)"><path fill="#4c77f6" d="M 299.59375 63.011719 C 299.59375 63.214844 299.554688 63.414062 299.476562 63.601562 C 299.398438 63.792969 299.285156 63.960938 299.140625 64.105469 C 298.996094 64.25 298.828125 64.359375 298.640625 64.4375 C 298.449219 64.519531 298.253906 64.558594 298.046875 64.558594 C 297.84375 64.558594 297.644531 64.519531 297.457031 64.4375 C 297.265625 64.359375 297.097656 64.25 296.953125 64.105469 C 296.808594 63.960938 296.699219 63.792969 296.617188 63.601562 C 296.539062 63.414062 296.5 63.214844 296.5 63.011719 C 296.5 62.804688 296.539062 62.609375 296.617188 62.417969 C 296.699219 62.230469 296.808594 62.0625 296.953125 61.917969 C 297.097656 61.773438 297.265625 61.660156 297.457031 61.582031 C 297.644531 61.503906 297.84375 61.464844 298.046875 61.464844 C 298.253906 61.464844 298.449219 61.503906 298.640625 61.582031 C 298.828125 61.660156 298.996094 61.773438 299.140625 61.917969 C 299.285156 62.0625 299.398438 62.230469 299.476562 62.417969 C 299.554688 62.609375 299.59375 62.804688 299.59375 63.011719 Z M 299.59375 63.011719 " fill-opacity="1" fill-rule="nonzero"/></g><path fill="#4c77f6" d="M 264.023438 62.484375 C 264.023438 62.71875 263.980469 62.949219 263.890625 63.167969 C 263.796875 63.386719 263.667969 63.578125 263.5 63.746094 C 263.332031 63.914062 263.140625 64.042969 262.921875 64.132812 C 262.703125 64.226562 262.472656 64.269531 262.238281 64.269531 C 262 64.269531 261.773438 64.226562 261.554688 64.132812 C 261.332031 64.042969 261.140625 63.914062 260.972656 63.746094 C 260.804688 63.578125 260.675781 63.386719 260.585938 63.167969 C 260.496094 62.949219 260.449219 62.71875 260.449219 62.484375 C 260.449219 62.246094 260.496094 62.019531 260.585938 61.796875 C 260.675781 61.578125 260.804688 61.386719 260.972656 61.21875 C 261.140625 61.050781 261.332031 60.921875 261.554688 60.832031 C 261.773438 60.738281 262 60.695312 262.238281 60.695312 C 262.472656 60.695312 262.703125 60.738281 262.921875 60.832031 C 263.140625 60.921875 263.332031 61.050781 263.5 61.21875 C 263.667969 61.386719 263.796875 61.578125 263.890625 61.796875 C 263.980469 62.019531 264.023438 62.246094 264.023438 62.484375 Z M 264.023438 62.484375 " fill-opacity="1" fill-rule="nonzero"/><path fill="#4c77f6" d="M 295.652344 51.132812 C 295.652344 51.46875 295.621094 51.804688 295.554688 52.136719 C 295.488281 52.46875 295.390625 52.792969 295.261719 53.105469 C 295.132812 53.417969 294.972656 53.714844 294.785156 53.996094 C 294.597656 54.277344 294.382812 54.539062 294.144531 54.777344 C 293.902344 55.015625 293.644531 55.230469 293.363281 55.417969 C 293.078125 55.605469 292.78125 55.765625 292.46875 55.894531 C 292.15625 56.023438 291.835938 56.121094 291.503906 56.1875 C 291.171875 56.253906 290.835938 56.289062 290.496094 56.289062 C 290.15625 56.289062 289.824219 56.253906 289.492188 56.1875 C 289.160156 56.121094 288.835938 56.023438 288.523438 55.894531 C 288.210938 55.765625 287.914062 55.605469 287.632812 55.417969 C 287.351562 55.230469 287.089844 55.015625 286.851562 54.777344 C 286.609375 54.539062 286.398438 54.277344 286.207031 53.996094 C 286.019531 53.714844 285.863281 53.417969 285.730469 53.105469 C 285.601562 52.792969 285.503906 52.46875 285.4375 52.136719 C 285.371094 51.804688 285.339844 51.46875 285.339844 51.132812 C 285.339844 50.792969 285.371094 50.457031 285.4375 50.125 C 285.503906 49.792969 285.601562 49.472656 285.730469 49.15625 C 285.863281 48.84375 286.019531 48.546875 286.207031 48.265625 C 286.398438 47.984375 286.609375 47.722656 286.851562 47.484375 C 287.089844 47.246094 287.351562 47.03125 287.632812 46.84375 C 287.914062 46.65625 288.210938 46.496094 288.523438 46.367188 C 288.835938 46.238281 289.160156 46.140625 289.492188 46.074219 C 289.824219 46.007812 290.15625 45.976562 290.496094 45.976562 C 290.835938 45.976562 291.171875 46.007812 291.503906 46.074219 C 291.835938 46.140625 292.15625 46.238281 292.46875 46.367188 C 292.78125 46.496094 293.078125 46.65625 293.363281 46.84375 C 293.644531 47.03125 293.902344 47.246094 294.144531 47.484375 C 294.382812 47.722656 294.597656 47.984375 294.785156 48.265625 C 294.972656 48.546875 295.132812 48.84375 295.261719 49.15625 C 295.390625 49.472656 295.488281 49.792969 295.554688 50.125 C 295.621094 50.457031 295.652344 50.792969 295.652344 51.132812 Z M 295.652344 51.132812 " fill-opacity="1" fill-rule="nonzero"/><path fill="#ffbd59" d="M 32.015625 86.347656 C 23.429688 62.769531 49.53125 33.707031 74.917969 41.175781 C 78.65625 42.277344 81.996094 42.605469 83.039062 39.890625 C 83.878906 37.71875 90.804688 39.855469 89.363281 37.761719 C 87.632812 35.253906 79.589844 32.839844 75.933594 32.238281 C 45.292969 27.207031 19.5625 58.867188 32.015625 86.347656 Z M 32.015625 86.347656 " fill-opacity="1" fill-rule="evenodd"/><path fill="#ffbd59" d="M 26.875 61.800781 C 21.789062 62.25 18.625 59.675781 14.964844 57.886719 C 4.730469 52.894531 -6.753906 59.460938 12.609375 63.171875 C 19.578125 64.511719 27.394531 64.824219 26.875 61.800781 Z M 28.039062 83.730469 C 23.859375 86.664062 20.167969 86.804688 16.574219 87.84375 C 7.128906 90.578125 0.152344 102.65625 16.671875 92.789062 C 23.898438 88.46875 30.082031 84.316406 28.039062 83.730469 Z M 77.171875 29.085938 C 76.722656 24 80.203125 20.730469 82.699219 16.910156 C 88.898438 7.421875 86.761719 -3.800781 78.050781 14.726562 C 75.238281 20.710938 72.832031 27.34375 77.171875 29.085938 Z M 54.238281 28.976562 C 51.554688 24.933594 55.074219 19.785156 55.699219 15.582031 C 57.449219 3.769531 51.109375 -7.511719 49.59375 14.4375 C 49.03125 22.617188 50.902344 28.664062 54.238281 28.976562 Z M 36.832031 42.226562 C 33.859375 40.234375 31.621094 35.550781 28.15625 31.148438 C 18.636719 19.066406 5.414062 18.488281 22.976562 33.476562 C 31.101562 40.40625 33.96875 43.617188 36.832031 42.226562 Z M 36.832031 42.226562 " fill-opacity="1" fill-rule="evenodd"/><path fill="#e3e2e3" d="M 37.996094 58.492188 C 33.46875 65.351562 31.542969 73.121094 32.015625 80.476562 C 32.332031 73.613281 34.5625 66.484375 38.828125 60.019531 C 45.476562 49.941406 55.554688 43.769531 65.65625 42.484375 C 55.152344 42.808594 44.597656 48.480469 37.996094 58.492188 Z M 37.996094 58.492188 " fill-opacity="1" fill-rule="evenodd"/></svg>