<svg xmlns="http://www.w3.org/2000/svg" xmlns:xlink="http://www.w3.org/1999/xlink" width="500" zoomAndPan="magnify" viewBox="0 0 375 374.999991" height="500" preserveAspectRatio="xMidYMid meet" version="1.0"><defs><g/><clipPath id="06009e47dc"><path d="M 0 129.0625 L 375 129.0625 L 375 254.359375 L 0 254.359375 Z M 0 129.0625 " clip-rule="nonzero"/></clipPath><clipPath id="36eeaf69e8"><path d="M 341.394531 129.0625 C 359.953125 129.0625 375 157.113281 375 191.710938 C 375 226.308594 359.953125 254.359375 341.394531 254.359375 L 33.605469 254.359375 C 15.046875 254.359375 0 226.308594 0 191.710938 C 0 157.113281 15.046875 129.0625 33.605469 129.0625 Z M 341.394531 129.0625 " clip-rule="nonzero"/></clipPath></defs><g clip-path="url(#06009e47dc)"><g clip-path="url(#36eeaf69e8)"><path fill="#f2efe9" d="M 0 129.0625 L 374.90625 129.0625 L 374.90625 254.359375 L 0 254.359375 Z M 0 129.0625 " fill-opacity="1" fill-rule="nonzero"/></g></g><g fill="#0f1419" fill-opacity="1"><g transform="translate(56.296876, 217.563238)"><g><path d="M 40.96875 -35 C 39.882812 -38.34375 38.113281 -40.984375 35.65625 -42.921875 C 33.195312 -44.867188 30.128906 -45.84375 26.453125 -45.84375 C 23.429688 -45.84375 20.6875 -45.0625 18.21875 -43.5 C 15.75 -41.945312 13.785156 -39.648438 12.328125 -36.609375 C 10.867188 -33.578125 10.140625 -29.859375 10.140625 -25.453125 C 10.140625 -21.046875 10.875 -17.328125 12.34375 -14.296875 C 13.820312 -11.265625 15.820312 -8.96875 18.34375 -7.40625 C 20.863281 -5.851562 23.695312 -5.078125 26.84375 -5.078125 C 29.707031 -5.078125 32.242188 -5.679688 34.453125 -6.890625 C 36.671875 -8.109375 38.410156 -9.832031 39.671875 -12.0625 C 40.929688 -14.289062 41.59375 -16.929688 41.65625 -19.984375 L 28.234375 -19.984375 L 28.234375 -25.453125 L 47.625 -25.453125 L 47.625 -19.984375 C 47.625 -15.796875 46.734375 -12.148438 44.953125 -9.046875 C 43.171875 -5.953125 40.71875 -3.550781 37.59375 -1.84375 C 34.46875 -0.144531 30.882812 0.703125 26.84375 0.703125 C 22.332031 0.703125 18.375 -0.359375 14.96875 -2.484375 C 11.570312 -4.609375 8.921875 -7.625 7.015625 -11.53125 C 5.117188 -15.445312 4.171875 -20.085938 4.171875 -25.453125 C 4.171875 -30.828125 5.117188 -35.46875 7.015625 -39.375 C 8.921875 -43.28125 11.550781 -46.296875 14.90625 -48.421875 C 18.257812 -50.546875 22.109375 -51.609375 26.453125 -51.609375 C 30.023438 -51.609375 33.269531 -50.90625 36.1875 -49.5 C 39.101562 -48.101562 41.53125 -46.15625 43.46875 -43.65625 C 45.414062 -41.164062 46.703125 -38.28125 47.328125 -35 Z M 40.96875 -35 "/></g></g></g><g fill="#0f1419" fill-opacity="1"><g transform="translate(108.296811, 217.563238)"><g><path d="M 5.375 0 L 5.375 -38.1875 L 11.03125 -38.1875 L 11.03125 -32.421875 L 11.4375 -32.421875 C 12.113281 -34.304688 13.363281 -35.835938 15.1875 -37.015625 C 17.007812 -38.191406 19.070312 -38.78125 21.375 -38.78125 C 22.4375 -38.78125 23.363281 -38.65625 24.15625 -38.40625 C 24.957031 -38.15625 25.65625 -37.816406 26.25 -37.390625 L 24.265625 -32.421875 C 23.847656 -32.628906 23.359375 -32.796875 22.796875 -32.921875 C 22.242188 -33.046875 21.601562 -33.109375 20.875 -33.109375 C 18.09375 -33.109375 15.789062 -32.257812 13.96875 -30.5625 C 12.144531 -28.863281 11.234375 -26.726562 11.234375 -24.15625 L 11.234375 0 Z M 5.375 0 "/></g></g></g><g fill="#0f1419" fill-opacity="1"><g transform="translate(135.141902, 217.563238)"><g><path d="M 21.375 0.796875 C 17.695312 0.796875 14.523438 -0.0195312 11.859375 -1.65625 C 9.203125 -3.289062 7.15625 -5.578125 5.71875 -8.515625 C 4.289062 -11.453125 3.578125 -14.878906 3.578125 -18.796875 C 3.578125 -22.703125 4.289062 -26.148438 5.71875 -29.140625 C 7.15625 -32.140625 9.160156 -34.476562 11.734375 -36.15625 C 14.316406 -37.832031 17.332031 -38.671875 20.78125 -38.671875 C 22.769531 -38.671875 24.734375 -38.335938 26.671875 -37.671875 C 28.609375 -37.015625 30.375 -35.941406 31.96875 -34.453125 C 33.5625 -32.972656 34.828125 -31.015625 35.765625 -28.578125 C 36.710938 -26.148438 37.1875 -23.15625 37.1875 -19.59375 L 37.1875 -17.109375 L 9.46875 -17.109375 C 9.601562 -13.023438 10.757812 -9.894531 12.9375 -7.71875 C 15.113281 -5.550781 17.925781 -4.46875 21.375 -4.46875 C 23.675781 -4.46875 25.65625 -4.960938 27.3125 -5.953125 C 28.976562 -6.953125 30.179688 -8.445312 30.921875 -10.4375 L 36.59375 -8.84375 C 35.695312 -5.96875 33.90625 -3.640625 31.21875 -1.859375 C 28.53125 -0.0859375 25.25 0.796875 21.375 0.796875 Z M 9.46875 -22.171875 L 31.21875 -22.171875 C 31.21875 -25.398438 30.269531 -28.078125 28.375 -30.203125 C 26.488281 -32.335938 23.957031 -33.40625 20.78125 -33.40625 C 18.539062 -33.40625 16.597656 -32.882812 14.953125 -31.84375 C 13.316406 -30.800781 12.023438 -29.421875 11.078125 -27.703125 C 10.140625 -25.984375 9.601562 -24.140625 9.46875 -22.171875 Z M 9.46875 -22.171875 "/></g></g></g><g fill="#0f1419" fill-opacity="1"><g transform="translate(175.90667, 217.563238)"><g><path d="M 20.78125 15.109375 C 16.519531 15.109375 13.148438 14.332031 10.671875 12.78125 C 8.191406 11.238281 6.359375 9.460938 5.171875 7.453125 L 9.84375 4.171875 C 10.375 4.867188 11.046875 5.671875 11.859375 6.578125 C 12.671875 7.484375 13.785156 8.269531 15.203125 8.9375 C 16.617188 9.601562 18.476562 9.9375 20.78125 9.9375 C 23.863281 9.9375 26.40625 9.191406 28.40625 7.703125 C 30.414062 6.210938 31.421875 3.878906 31.421875 0.703125 L 31.421875 -7.0625 L 30.921875 -7.0625 C 30.492188 -6.363281 29.882812 -5.503906 29.09375 -4.484375 C 28.3125 -3.460938 27.1875 -2.554688 25.71875 -1.765625 C 24.25 -0.984375 22.269531 -0.59375 19.78125 -0.59375 C 16.695312 -0.59375 13.929688 -1.320312 11.484375 -2.78125 C 9.046875 -4.238281 7.117188 -6.359375 5.703125 -9.140625 C 4.285156 -11.929688 3.578125 -15.316406 3.578125 -19.296875 C 3.578125 -23.203125 4.265625 -26.609375 5.640625 -29.515625 C 7.015625 -32.421875 8.925781 -34.671875 11.375 -36.265625 C 13.832031 -37.867188 16.671875 -38.671875 19.890625 -38.671875 C 22.367188 -38.671875 24.34375 -38.257812 25.8125 -37.4375 C 27.28125 -36.625 28.40625 -35.695312 29.1875 -34.65625 C 29.976562 -33.625 30.585938 -32.773438 31.015625 -32.109375 L 31.625 -32.109375 L 31.625 -38.1875 L 37.28125 -38.1875 L 37.28125 1.09375 C 37.28125 4.375 36.539062 7.046875 35.0625 9.109375 C 33.582031 11.171875 31.59375 12.6875 29.09375 13.65625 C 26.601562 14.625 23.832031 15.109375 20.78125 15.109375 Z M 20.578125 -5.859375 C 24.109375 -5.859375 26.8125 -7.054688 28.6875 -9.453125 C 30.570312 -11.847656 31.515625 -15.160156 31.515625 -19.390625 C 31.515625 -23.515625 30.585938 -26.878906 28.734375 -29.484375 C 26.878906 -32.097656 24.160156 -33.40625 20.578125 -33.40625 C 18.097656 -33.40625 16.03125 -32.773438 14.375 -31.515625 C 12.726562 -30.253906 11.492188 -28.5625 10.671875 -26.4375 C 9.859375 -24.320312 9.453125 -21.972656 9.453125 -19.390625 C 9.453125 -15.410156 10.382812 -12.160156 12.25 -9.640625 C 14.125 -7.117188 16.898438 -5.859375 20.578125 -5.859375 Z M 20.578125 -5.859375 "/></g></g></g><g fill="#0f1419" fill-opacity="1"><g transform="translate(218.560537, 217.563238)"><g><path d="M 20.875 0.796875 C 17.425781 0.796875 14.40625 -0.0195312 11.8125 -1.65625 C 9.226562 -3.300781 7.207031 -5.597656 5.75 -8.546875 C 4.300781 -11.492188 3.578125 -14.941406 3.578125 -18.890625 C 3.578125 -22.867188 4.300781 -26.335938 5.75 -29.296875 C 7.207031 -32.265625 9.226562 -34.566406 11.8125 -36.203125 C 14.40625 -37.847656 17.425781 -38.671875 20.875 -38.671875 C 24.320312 -38.671875 27.34375 -37.847656 29.9375 -36.203125 C 32.53125 -34.566406 34.550781 -32.265625 36 -29.296875 C 37.457031 -26.335938 38.1875 -22.867188 38.1875 -18.890625 C 38.1875 -14.941406 37.457031 -11.492188 36 -8.546875 C 34.550781 -5.597656 32.53125 -3.300781 29.9375 -1.65625 C 27.34375 -0.0195312 24.320312 0.796875 20.875 0.796875 Z M 20.875 -4.46875 C 23.5 -4.46875 25.65625 -5.140625 27.34375 -6.484375 C 29.03125 -7.828125 30.28125 -9.59375 31.09375 -11.78125 C 31.90625 -13.96875 32.3125 -16.335938 32.3125 -18.890625 C 32.3125 -21.441406 31.90625 -23.816406 31.09375 -26.015625 C 30.28125 -28.222656 29.03125 -30.003906 27.34375 -31.359375 C 25.65625 -32.722656 23.5 -33.40625 20.875 -33.40625 C 18.257812 -33.40625 16.101562 -32.722656 14.40625 -31.359375 C 12.71875 -30.003906 11.46875 -28.222656 10.65625 -26.015625 C 9.851562 -23.816406 9.453125 -21.441406 9.453125 -18.890625 C 9.453125 -16.335938 9.851562 -13.96875 10.65625 -11.78125 C 11.46875 -9.59375 12.71875 -7.828125 14.40625 -6.484375 C 16.101562 -5.140625 18.257812 -4.46875 20.875 -4.46875 Z M 20.875 -4.46875 "/></g></g></g><g fill="#0f1419" fill-opacity="1"><g transform="translate(260.319567, 217.563238)"><g><path d="M 11.234375 -50.90625 L 11.234375 0 L 5.375 0 L 5.375 -50.90625 Z M 11.234375 -50.90625 "/></g></g></g><g fill="#0f1419" fill-opacity="1"><g transform="translate(276.923753, 217.563238)"><g><path d="M 20.875 0.796875 C 17.425781 0.796875 14.40625 -0.0195312 11.8125 -1.65625 C 9.226562 -3.300781 7.207031 -5.597656 5.75 -8.546875 C 4.300781 -11.492188 3.578125 -14.941406 3.578125 -18.890625 C 3.578125 -22.867188 4.300781 -26.335938 5.75 -29.296875 C 7.207031 -32.265625 9.226562 -34.566406 11.8125 -36.203125 C 14.40625 -37.847656 17.425781 -38.671875 20.875 -38.671875 C 24.320312 -38.671875 27.34375 -37.847656 29.9375 -36.203125 C 32.53125 -34.566406 34.550781 -32.265625 36 -29.296875 C 37.457031 -26.335938 38.1875 -22.867188 38.1875 -18.890625 C 38.1875 -14.941406 37.457031 -11.492188 36 -8.546875 C 34.550781 -5.597656 32.53125 -3.300781 29.9375 -1.65625 C 27.34375 -0.0195312 24.320312 0.796875 20.875 0.796875 Z M 20.875 -4.46875 C 23.5 -4.46875 25.65625 -5.140625 27.34375 -6.484375 C 29.03125 -7.828125 30.28125 -9.59375 31.09375 -11.78125 C 31.90625 -13.96875 32.3125 -16.335938 32.3125 -18.890625 C 32.3125 -21.441406 31.90625 -23.816406 31.09375 -26.015625 C 30.28125 -28.222656 29.03125 -30.003906 27.34375 -31.359375 C 25.65625 -32.722656 23.5 -33.40625 20.875 -33.40625 C 18.257812 -33.40625 16.101562 -32.722656 14.40625 -31.359375 C 12.71875 -30.003906 11.46875 -28.222656 10.65625 -26.015625 C 9.851562 -23.816406 9.453125 -21.441406 9.453125 -18.890625 C 9.453125 -16.335938 9.851562 -13.96875 10.65625 -11.78125 C 11.46875 -9.59375 12.71875 -7.828125 14.40625 -6.484375 C 16.101562 -5.140625 18.257812 -4.46875 20.875 -4.46875 Z M 20.875 -4.46875 "/></g></g></g></svg>